<svg width="500" height="500" viewBox="0 0 500 500" fill="none" xmlns="http://www.w3.org/2000/svg">
<g clip-path="url(#clip0_53_2725)">
<path d="M500 0H0V500H500V0Z" fill="#E9F0FF"/>
<path d="M11.6528 236.525C13.5958 213.107 19.6478 188.135 35.4768 174.422C46.7418 164.662 61.0828 162.22 74.2398 156.951C92.8608 149.494 109.754 135.837 122.565 117.883C143.35 88.7551 153.826 48.4991 179.981 26.5831C211.119 0.49207 255.415 10.0321 286.346 36.4801C302.601 50.3791 316.727 68.6081 335.198 77.5971C348.627 84.1321 363.397 85.2761 377.36 89.9011C415.718 102.605 445.535 141.458 461.092 185.691C476.649 229.924 479.604 279.154 478.477 327.197C478.198 339.077 477.623 351.267 473.628 362.127C468.812 375.219 459.453 385.118 449.413 392.74C424.057 411.992 393.642 418.917 363.812 422.103C299.248 428.999 234.337 420.145 169.541 418.179C146.509 417.48 123.303 417.635 100.68 412.363C78.5368 407.203 54.3198 395.752 38.5838 375.337C23.0088 355.133 16.2358 319.096 12.8968 292.659C10.5548 274.11 10.1038 255.203 11.6528 236.525Z" fill="#DCE9FF"/>
<path opacity="0.3" d="M29.0087 472.163C29.0087 473.103 26.6407 473.865 23.7197 473.865C20.7987 473.865 18.4307 473.103 18.4307 472.163C18.4307 471.223 20.7987 470.461 23.7197 470.461C26.6407 470.461 29.0087 471.223 29.0087 472.163Z" fill="#DDE8FC"/>
<path opacity="0.3" d="M35.3715 478.525C35.3715 479.465 33.0035 480.227 30.0825 480.227C27.1615 480.227 24.7935 479.465 24.7935 478.525C24.7935 477.585 27.1615 476.823 30.0825 476.823C33.0035 476.823 35.3715 477.585 35.3715 478.525Z" fill="#DDE8FC"/>
<path opacity="0.3" d="M45.1319 473.804C45.1319 474.565 43.2149 475.182 40.8499 475.182C38.4849 475.182 36.5679 474.565 36.5679 473.804C36.5679 473.043 38.4849 472.426 40.8499 472.426C43.2149 472.426 45.1319 473.043 45.1319 473.804Z" fill="#DDE8FC"/>
<path opacity="0.3" d="M339.593 417.849C339.593 418.319 338.409 418.7 336.949 418.7C335.488 418.7 334.305 418.319 334.305 417.849C334.305 417.379 335.489 416.998 336.949 416.998C338.409 416.998 339.593 417.379 339.593 417.849Z" fill="#DDE8FC"/>
<path opacity="0.3" d="M340.13 421.881C341.59 421.881 342.774 421.5 342.774 421.03C342.774 420.56 341.59 420.179 340.13 420.179C338.67 420.179 337.486 420.56 337.486 421.03C337.486 421.5 338.67 421.881 340.13 421.881Z" fill="#DDE8FC"/>
<path opacity="0.3" d="M347.654 418.67C347.654 419.051 346.695 419.359 345.513 419.359C344.331 419.359 343.372 419.05 343.372 418.67C343.372 418.289 344.331 417.981 345.513 417.981C346.696 417.981 347.654 418.289 347.654 418.67Z" fill="#DDE8FC"/>
<path opacity="0.3" d="M261.105 479.867C261.105 480.608 262.972 481.209 265.274 481.209C267.576 481.209 269.443 480.608 269.443 479.867C269.443 479.126 267.576 478.525 265.274 478.525C262.972 478.525 261.105 479.126 261.105 479.867Z" fill="#DDE8FC"/>
<path opacity="0.3" d="M256.089 484.883C256.089 485.624 257.956 486.225 260.258 486.225C262.561 486.225 264.427 485.624 264.427 484.883C264.427 484.142 262.56 483.541 260.258 483.541C257.956 483.541 256.089 484.142 256.089 484.883Z" fill="#DDE8FC"/>
<path opacity="0.3" d="M248.396 481.161C248.396 481.761 249.907 482.247 251.772 482.247C253.636 482.247 255.148 481.761 255.148 481.161C255.148 480.561 253.637 480.075 251.772 480.075C249.907 480.075 248.396 480.561 248.396 481.161Z" fill="#DDE8FC"/>
<path opacity="0.3" d="M462.991 469.533C462.991 470.274 464.858 470.875 467.16 470.875C469.462 470.875 471.329 470.274 471.329 469.533C471.329 468.792 469.462 468.191 467.16 468.191C464.857 468.191 462.991 468.792 462.991 469.533Z" fill="#DDE8FC"/>
<path opacity="0.3" d="M457.975 474.549C457.975 475.29 459.841 475.891 462.144 475.891C464.447 475.891 466.313 475.29 466.313 474.549C466.313 473.808 464.446 473.207 462.144 473.207C459.841 473.207 457.975 473.808 457.975 474.549Z" fill="#DDE8FC"/>
<path opacity="0.3" d="M450.281 470.827C450.281 471.427 451.792 471.913 453.657 471.913C455.521 471.913 457.033 471.427 457.033 470.827C457.033 470.227 455.522 469.741 453.657 469.741C451.792 469.741 450.281 470.227 450.281 470.827Z" fill="#DDE8FC"/>
<path d="M201.109 396.839C197.382 396.788 195.443 392.428 197.857 389.587C202.364 384.283 210.179 377.964 221.834 377.964C235.348 377.964 244.47 386.826 248.992 392.624C250.538 394.606 249.082 397.495 246.568 397.46L201.109 396.839Z" fill="#241A14" stroke="#FAF4E8" stroke-width="0.25" stroke-miterlimit="10" stroke-linecap="round" stroke-linejoin="round"/>
<path d="M322.507 332.241C322.507 332.241 319.791 347.894 318.597 363.569L255.969 371.827C255.969 371.827 231.418 366.431 221.153 369.274C210.888 372.117 194.299 384.451 193.919 388.448C193.293 395.032 212.603 396.811 217.323 393.628C222.277 390.287 226.464 387.713 231.044 387.713C235.624 387.713 246.836 394.226 256.865 388.856L332.297 396.672C333.847 396.947 335.451 397.109 337.076 397.167L337.404 397.201L337.399 397.177C346.063 397.417 355.144 394.805 358.645 391.304C365.909 384.04 367.132 332.241 367.132 332.241H322.507Z" fill="#AED1ED"/>
<path d="M241.885 379.718C241.885 379.718 224.519 391.271 226.058 393.93C227.596 396.589 227.681 397.741 231.796 396.913C235.911 396.085 251.367 390.644 251.382 389.94C251.397 389.236 242.636 379.874 242.636 379.874" fill="#AED1ED"/>
<path d="M204.706 394.613C204.706 394.613 215.368 386.095 220.813 383.117C227.026 379.719 231.196 379.287 231.196 379.287" stroke="#241A14" stroke-width="0.5" stroke-miterlimit="10" stroke-linecap="round" stroke-linejoin="round"/>
<path d="M198.757 393.552C198.757 393.552 210.259 383.032 214.514 380.394C218.769 377.756 226.514 374.437 226.514 374.437" stroke="#241A14" stroke-width="0.5" stroke-miterlimit="10" stroke-linecap="round" stroke-linejoin="round"/>
<path d="M194.445 390.52C194.445 390.52 205.663 379.117 211.195 376.138C216.727 373.159 221.578 371.287 221.578 371.287" stroke="#241A14" stroke-width="0.5" stroke-miterlimit="10" stroke-linecap="round" stroke-linejoin="round"/>
<path d="M229.153 388.448C229.153 388.448 241.827 383.848 245.575 383.057" stroke="#241A14" stroke-width="0.5" stroke-miterlimit="10" stroke-linecap="round" stroke-linejoin="round"/>
<path d="M318.597 363.568C318.597 363.568 324.56 364.28 327.429 367.777" stroke="#241A14" stroke-width="0.5" stroke-miterlimit="10" stroke-linecap="round" stroke-linejoin="round"/>
<path d="M355.405 257.465C355.405 257.465 338.43 271.208 328.898 300.485C319.366 329.762 318.004 343.719 318.004 343.719H343.876L355.405 257.465Z" fill="#5873C1"/>
<path d="M318.805 338.488H330.911" stroke="#241A14" stroke-width="0.5" stroke-miterlimit="10" stroke-linecap="round" stroke-linejoin="round"/>
<path d="M423.616 213.84C423.616 213.84 438.804 177.872 440.991 169.543C443.178 161.214 428.697 165.043 428.697 165.043L421.214 184.789L423.616 213.84Z" fill="#241A14"/>
<path d="M360.701 147C360.701 147 358.332 162.98 361.104 169.543L367.132 147H360.701Z" fill="#241A14"/>
<path d="M421.193 206.72C416.853 214.43 411.123 221.65 403.373 225.94C395.633 230.23 385.613 231.11 378.043 226.54C373.663 223.9 370.523 219.79 368.203 215.17C367.983 214.73 367.763 214.29 367.563 213.84C366.543 211.66 365.703 209.38 364.983 207.11C363.033 200.95 361.774 194.6 361.154 188.17C361.154 188.12 361.143 188.07 361.143 188.02C360.783 184.2 360.643 180.35 360.723 176.51C360.763 174.83 360.833 173.15 360.953 171.48C360.993 170.83 361.043 170.19 361.103 169.54C361.863 160.98 363.723 152.32 368.273 145.03C373.533 136.57 383.803 130.25 394.013 130.77C412.013 130.6 426.073 146.88 429.473 163.48C432.483 178.17 428.553 193.66 421.193 206.72Z" fill="#F1C3B5"/>
<path d="M423.815 125.553C423.815 125.553 410.6 138.83 412.643 148.276C414.685 157.723 423.815 161.042 423.815 161.042C423.815 161.042 421.854 176.62 427.206 183.129L438.767 176.038C438.767 176.038 448.118 152.489 443.281 140.233C438.444 127.978 427.005 123.535 427.005 123.535L423.815 125.553Z" fill="#241A14"/>
<path d="M346.257 136.297C346.359 136.938 346.506 137.583 346.698 138.229C348.974 145.862 357.933 151.499 365.806 149.667C379.451 146.49 384.047 139.341 384.047 139.341C384.047 139.341 394.574 152.625 412.8 143.174L427.006 123.536C427.006 123.536 419.026 110.107 405.494 112.66C391.962 115.213 388.388 118.915 377.665 117.639C370.938 116.838 363.464 116.048 357.03 118.711C349.979 121.629 345.046 128.715 346.257 136.297Z" fill="#241A14"/>
<path d="M424.573 200.25L422.713 240.06C411.553 255.59 392.923 264.26 384.773 263.52C376.613 262.78 379.183 253.4 379.183 253.4C380.583 250.79 382.133 244.66 383.383 238.91C384.203 235.15 384.893 231.55 385.323 229.22C385.623 227.55 385.803 226.52 385.803 226.52L424.573 200.25Z" fill="#F1C3B5"/>
<path d="M412.413 218.86C412.163 219.66 406.387 238.915 395.596 241.851C390.085 243.351 384.783 243.02 383.383 238.91C384.203 235.15 384.893 231.55 385.323 229.22C385.323 229.22 398.163 233.62 412.413 218.86Z" fill="#FF7171"/>
<path d="M393.336 171.082C395.124 169.782 397.021 169.037 399.091 168.56C401.144 168.1 403.324 168.004 405.475 168.334C406.557 168.462 407.607 168.803 408.65 169.125C409.649 169.58 410.684 169.96 411.567 170.614C413.442 171.735 414.919 173.368 416.041 175.118C416.528 175.878 416.307 176.888 415.547 177.375C415.029 177.707 414.395 177.71 413.889 177.438L413.707 177.339C412.109 176.474 410.728 175.559 409.205 174.973C408.476 174.621 407.693 174.424 406.952 174.139C406.17 173.965 405.416 173.713 404.614 173.608C403.033 173.326 401.39 173.195 399.69 173.219C398.013 173.244 396.202 173.42 394.504 173.595L394.304 173.616C393.533 173.695 392.843 173.134 392.764 172.363C392.712 171.847 392.946 171.367 393.336 171.082Z" fill="#241A14"/>
<path d="M378.143 172.58C377.883 172.96 377.453 173.15 377.033 173.12L376.853 173.11C375.343 173 373.743 172.9 372.253 172.92C370.753 172.95 369.303 173.11 367.913 173.4C367.213 173.52 366.553 173.76 365.863 173.94C365.223 174.21 364.533 174.4 363.903 174.74C362.813 175.2 361.813 175.84 360.723 176.51C360.763 174.83 360.833 173.15 360.953 171.48C361.193 171.29 361.433 171.11 361.693 170.95C362.453 170.35 363.353 169.98 364.223 169.55C365.143 169.24 366.053 168.91 367.013 168.77C368.903 168.41 370.833 168.44 372.663 168.79C374.503 169.15 376.193 169.76 377.813 170.86C378.383 171.24 378.533 172.01 378.143 172.58Z" fill="#241A14"/>
<path d="M401.772 181.356C401.772 182.62 400.747 183.644 399.484 183.644C398.22 183.644 397.196 182.619 397.196 181.356C397.196 180.092 398.22 179.068 399.484 179.068C400.747 179.068 401.772 180.092 401.772 181.356Z" fill="#241A14"/>
<path d="M374.109 182.501C374.109 183.765 373.084 184.789 371.821 184.789C370.557 184.789 369.533 183.765 369.533 182.501C369.533 181.237 370.558 180.213 371.821 180.213C373.084 180.212 374.109 181.237 374.109 182.501Z" fill="#241A14"/>
<path d="M409.606 212.809C417.344 212.809 423.616 206.536 423.616 198.799C423.616 191.061 417.344 184.789 409.606 184.789C401.869 184.789 395.596 191.061 395.596 198.799C395.596 206.536 401.869 212.809 409.606 212.809Z" fill="url(#paint0_linear_53_2725)"/>
<path d="M374.113 201.99C374.113 206.99 371.493 211.37 367.563 213.84C366.543 211.66 365.703 209.38 364.983 207.11C363.033 200.95 361.773 194.6 361.153 188.17C361.153 188.12 361.143 188.07 361.143 188.02C368.403 188.55 374.113 194.6 374.113 201.99Z" fill="url(#paint1_linear_53_2725)"/>
<path d="M382.228 178.664C382.59 181.364 382.95 184.087 382.761 186.805C382.571 189.523 381.79 192.269 380.088 194.397C379.143 195.578 377.867 196.694 377.775 198.204C377.703 199.395 378.438 200.52 379.396 201.232C380.354 201.944 381.514 202.319 382.651 202.682" stroke="#241A14" stroke-width="0.5" stroke-miterlimit="10" stroke-linecap="round" stroke-linejoin="round"/>
<path d="M378.797 208.404C378.797 208.404 389.204 212.872 401.306 205.085" stroke="#241A14" stroke-width="0.5" stroke-miterlimit="10" stroke-linecap="round" stroke-linejoin="round"/>
<path d="M386.855 213.043C386.855 213.043 392.42 213.383 395.595 211.256" stroke="#241A14" stroke-width="0.25" stroke-miterlimit="10" stroke-linecap="round" stroke-linejoin="round"/>
<path d="M426.52 184.7C426.52 184.7 430.854 172.816 438.767 176.039C446.68 179.261 441.983 204.14 432.015 202.861C422.047 201.582 423.616 197.043 423.616 197.043L426.52 184.7Z" fill="#F1C3B5"/>
<path d="M428.994 187.127C428.994 187.127 432.863 178.402 438.243 180.617C443.623 182.832 439.203 202.788 428.714 197.088" stroke="#241A14" stroke-width="0.456" stroke-miterlimit="10" stroke-linecap="round" stroke-linejoin="round"/>
<path d="M431.626 183.013C431.626 183.013 427.723 190.963 432.653 198.096" stroke="#241A14" stroke-width="0.456" stroke-miterlimit="10" stroke-linecap="round" stroke-linejoin="round"/>
<path d="M423.596 188.177C423.69 188.869 424.135 189.783 424.79 189.541C424.986 189.468 425.129 189.299 425.251 189.129C426.064 188.003 426.405 186.616 426.906 185.321C427.671 183.346 428.828 181.553 429.85 179.698C430.871 177.843 431.775 175.865 431.957 173.755C432.139 171.645 431.491 169.368 429.856 168.021C428.504 166.908 426.286 166.604 424.746 167.539C423.092 168.544 423.278 170.434 423.14 172.212C422.726 177.53 422.878 182.892 423.596 188.177Z" fill="#241A14"/>
<path d="M381.834 245.487C381.834 245.487 376.388 261.656 384.812 261.894C393.236 262.132 422.913 237.383 422.913 237.383C422.913 237.383 462.174 256.532 471.876 273.894C481.578 291.256 484.387 340.532 481.834 358.66C479.281 376.788 474.259 394.531 474.259 394.531L324.604 393.192C324.604 393.192 334.405 269.038 356.615 256.669C377.493 245.043 381.834 245.487 381.834 245.487Z" fill="#5873C1"/>
<path d="M344.009 279.936C344.009 279.936 330.223 332.668 328.898 354.489C327.573 376.311 324.605 388.191 324.605 388.191" stroke="#241A14" stroke-width="0.5" stroke-miterlimit="10" stroke-linecap="round" stroke-linejoin="round"/>
<path d="M333.947 322.818C333.947 322.818 337.749 297.298 338.94 292.021" stroke="#241A14" stroke-width="0.5" stroke-miterlimit="10" stroke-linecap="round" stroke-linejoin="round"/>
<path d="M347.025 272.106C347.025 272.106 352.362 258.639 361.143 254.196" stroke="#241A14" stroke-width="0.5" stroke-miterlimit="10" stroke-linecap="round" stroke-linejoin="round"/>
<path opacity="0.42" d="M430.491 309.733C430.491 309.733 411.621 365.808 410.855 380.872H438.174L430.491 309.733Z" fill="#5873C1"/>
<path d="M378.36 247.547C378.36 247.547 369.899 265.066 380.292 267.82C390.685 270.574 404.88 263.125 428.549 240.297" stroke="#241A14" stroke-width="0.5" stroke-miterlimit="10" stroke-linecap="round" stroke-linejoin="round"/>
<path d="M435.477 331.596C435.477 331.596 432.549 348.467 431.263 365.362L363.76 374.263C363.76 374.263 335.366 366.234 324.302 369.298C313.238 372.362 291.962 391.168 294.685 394.531C297.408 397.894 317.323 401.468 323.111 399.426C328.898 397.383 331.962 394.531 336.898 394.531C341.834 394.531 353.916 398.404 364.726 392.617L446.031 401.041C447.701 401.337 449.43 401.512 451.18 401.575L451.535 401.612L451.529 401.586C460.867 401.844 470.655 399.029 474.428 395.256C482.258 387.426 483.575 331.596 483.575 331.596H435.477Z" fill="#F1C3B5"/>
<path d="M315.49 399.94C315.49 399.94 324.259 388.489 333.578 385.042" stroke="#241A14" stroke-width="0.5" stroke-miterlimit="10" stroke-linecap="round" stroke-linejoin="round"/>
<path d="M306.92 398.853C306.92 398.853 313.962 388.914 320.855 384.319C327.749 379.723 328.592 379.47 328.592 379.47" stroke="#241A14" stroke-width="0.5" stroke-miterlimit="10" stroke-linecap="round" stroke-linejoin="round"/>
<path d="M300.046 396.556C300.046 396.556 309.238 382.149 322.897 375" stroke="#241A14" stroke-width="0.5" stroke-miterlimit="10" stroke-linecap="round" stroke-linejoin="round"/>
<path d="M431.263 365.362C431.263 365.362 445.962 363.383 459.111 367.213" stroke="#241A14" stroke-width="0.5" stroke-miterlimit="10" stroke-linecap="round" stroke-linejoin="round"/>
<path d="M450.685 269.298C450.685 269.298 430.951 283.312 429.943 319.105C428.956 354.171 427.005 361.307 427.005 361.307L483.876 362.234C483.876 362.234 484.247 300.753 474.998 281.196C465.749 261.638 450.685 269.298 450.685 269.298Z" fill="#5873C1"/>
<path d="M449.749 259.17C449.749 259.17 433.831 267.34 431.407 299.34C428.983 331.34 427.005 361.307 427.005 361.307L483.876 362.234" stroke="#241A14" stroke-width="0.5" stroke-miterlimit="10" stroke-linecap="round" stroke-linejoin="round"/>
<path d="M429.238 292.021C429.238 292.021 429.272 328.35 428.777 335.447" stroke="#241A14" stroke-width="0.5" stroke-miterlimit="10" stroke-linecap="round" stroke-linejoin="round"/>
<path d="M427.707 355.34H483.877" stroke="#241A14" stroke-width="0.5" stroke-miterlimit="10" stroke-linecap="round" stroke-linejoin="round"/>
<path d="M369.48 90.3741C369.48 91.8431 368.289 93.0331 366.821 93.0331C365.352 93.0331 364.162 91.8431 364.162 90.3741C364.162 88.9061 365.352 87.7151 366.821 87.7151C368.289 87.7151 369.48 88.9051 369.48 90.3741Z" fill="#D88C84"/>
<path d="M38.0309 181.665C38.0309 183.134 36.8409 184.324 35.3719 184.324C33.9029 184.324 32.7129 183.134 32.7129 181.665C32.7129 180.197 33.9039 179.006 35.3719 179.006C36.8399 179.007 38.0309 180.197 38.0309 181.665Z" fill="#D88C84"/>
<path d="M167.187 51.4282L169.062 55.5392C169.264 55.9822 169.604 56.3472 170.031 56.5812L173.37 58.4072L169.373 60.5932L167.187 65.3862L165.001 60.5932L161.004 58.4072L165.001 56.2212L167.187 51.4282Z" fill="#F5BB60"/>
<path d="M437.973 57.592L439.848 61.703C440.05 62.146 440.39 62.511 440.817 62.745L444.156 64.571L440.159 66.757L437.973 71.55L435.787 66.757L431.79 64.571L435.787 62.385L437.973 57.592Z" fill="#F5BB60"/>
<path d="M472.329 181.665L474.204 185.776C474.406 186.219 474.746 186.584 475.173 186.818L478.512 188.644L474.515 190.83L472.329 195.623L470.143 190.83L466.146 188.644L470.143 186.458L472.329 181.665Z" fill="#F5BB60"/>
<path d="M316.086 248.021L317.961 252.132C318.163 252.575 318.503 252.94 318.93 253.174L322.269 255L318.272 257.186L316.086 261.979L313.9 257.186L309.903 255L313.9 252.814L316.086 248.021Z" fill="#F5BB60"/>
<path d="M485.059 265.841L486.934 269.952C487.136 270.395 487.476 270.76 487.903 270.994L491.242 272.82L487.245 275.006L485.059 279.799L482.873 275.006L478.876 272.82L482.873 270.634L485.059 265.841Z" fill="#F5BB60"/>
<path d="M11.747 324.617L13.622 328.728C13.824 329.171 14.164 329.536 14.591 329.77L17.93 331.596L13.933 333.782L11.747 338.575L9.56096 333.782L5.56396 331.596L9.56096 329.41L11.747 324.617Z" fill="#F5BB60"/>
<path d="M39.7899 112.9L41.6649 117.011C41.8669 117.454 42.2069 117.819 42.6339 118.053L45.9729 119.879L41.9759 122.065L39.7899 126.858L37.6039 122.065L33.6069 119.879L37.6039 117.693L39.7899 112.9Z" fill="#F5BB60"/>
<path d="M296.329 28.1831L298.204 32.2941C298.406 32.7371 298.746 33.1021 299.173 33.3361L302.512 35.1621L298.515 37.3481L296.329 42.1411L294.143 37.3481L290.146 35.1621L294.143 32.9761L296.329 28.1831Z" fill="#F5BB60"/>
<path d="M88.9921 22.8581C88.9921 25.0091 87.2491 26.7521 85.0981 26.7521C82.9471 26.7521 81.2041 25.0081 81.2041 22.8581C81.2041 20.7071 82.9471 18.9641 85.0981 18.9641C87.2481 18.9631 88.9921 20.7071 88.9921 22.8581Z" fill="#F1C3B5"/>
<path d="M31.3512 51.428C31.3512 52.897 30.1602 54.087 28.6922 54.087C27.2232 54.087 26.0332 52.896 26.0332 51.428C26.0332 49.96 27.2242 48.769 28.6922 48.769C30.1612 48.769 31.3512 49.959 31.3512 51.428Z" fill="#F5BB60"/>
<path d="M229.307 29.44C229.307 30.909 228.116 32.099 226.648 32.099C225.179 32.099 223.989 30.909 223.989 29.44C223.989 27.971 225.18 26.781 226.648 26.781C228.116 26.781 229.307 27.971 229.307 29.44Z" fill="#D88C84"/>
<path d="M438.701 22.3411C438.701 23.8091 437.511 25.0001 436.042 25.0001C434.573 25.0001 433.383 23.8091 433.383 22.3411C433.383 20.8721 434.573 19.6821 436.042 19.6821C437.51 19.6821 438.701 20.8731 438.701 22.3411Z" fill="#F1C3B5"/>
<path d="M476.73 137.696C478.198 137.696 479.389 136.506 479.389 135.037C479.389 133.569 478.198 132.378 476.73 132.378C475.261 132.378 474.071 133.569 474.071 135.037C474.071 136.506 475.261 137.696 476.73 137.696Z" fill="#F1C3B5"/>
<path d="M317.633 131.756V287.039C318.804 296.099 311.806 303.453 303.157 303.453H52.1612C43.5112 303.453 36.5142 296.099 36.5142 287.039V131.756C36.5142 122.683 43.5122 115.342 52.1612 115.342H303.157C311.806 115.342 318.804 122.683 317.633 131.756Z" fill="#DCE9FF"/>
<path d="M315.291 129.414V284.697C315.291 293.757 308.293 301.111 299.644 301.111H48.648C39.998 301.111 33.001 293.757 33.001 284.697V129.414C33.001 120.341 39.999 113 48.648 113H299.644C308.293 113.001 315.291 120.341 315.291 129.414Z" fill="white"/>
<path d="M315.291 127.963V140.91H33V127.963C33 119.692 39.998 113.001 48.647 113.001H299.643C308.293 113.001 315.291 119.692 315.291 127.963Z" fill="#5873C1"/>
<path d="M264.584 126.955C264.584 129.988 262.125 132.447 259.092 132.447C256.059 132.447 253.6 129.988 253.6 126.955C253.6 123.922 256.059 121.463 259.092 121.463C262.126 121.464 264.584 123.922 264.584 126.955Z" fill="#F5BB60"/>
<path d="M282.157 126.955C282.157 129.988 279.698 132.447 276.665 132.447C273.632 132.447 271.173 129.988 271.173 126.955C271.173 123.922 273.632 121.463 276.665 121.463C279.699 121.464 282.157 123.922 282.157 126.955Z" fill="#FF7171"/>
<path d="M299.731 126.955C299.731 129.988 297.272 132.447 294.239 132.447C291.206 132.447 288.747 129.988 288.747 126.955C288.747 123.922 291.206 121.463 294.239 121.463C297.272 121.464 299.731 123.922 299.731 126.955Z" fill="#F1C3B5"/>
<path d="M127.04 132.447H50.3068C47.6558 132.447 45.4868 130.278 45.4868 127.627C45.4868 124.976 47.6558 122.807 50.3068 122.807H127.04C129.691 122.807 131.86 124.976 131.86 127.627C131.86 130.278 129.691 132.447 127.04 132.447Z" fill="white"/>
<path d="M271.929 154.671H80.2832V276.155H271.929V154.671Z" fill="#E5D0C3"/>
<path d="M269.98 152.723H78.334V274.207H269.98V152.723Z" fill="#FFF2E9"/>
<path d="M265.432 157.626H82.8809V271.314H265.432V157.626Z" stroke="#5873C1" stroke-width="0.6496" stroke-miterlimit="10"/>
<path d="M233.447 254.167L217.676 276.281L225.785 274.883L228.669 281.948L238.829 257.978L233.447 254.167Z" fill="#FF7171"/>
<path d="M246.082 254.167L261.852 276.281L253.744 274.883L250.86 281.948L240.7 257.978L246.082 254.167Z" fill="#FF7171"/>
<path d="M243.245 231.639C243.634 233.311 245.757 233.835 246.879 232.535C248.331 230.852 251.059 232.284 250.499 234.435C250.066 236.096 251.703 237.546 253.3 236.917C255.368 236.102 257.118 238.638 255.623 240.282C254.468 241.552 255.243 243.597 256.95 243.781C259.16 244.02 259.531 247.079 257.443 247.84C255.83 248.428 255.566 250.598 256.992 251.555C258.838 252.793 257.745 255.675 255.542 255.378C253.84 255.149 252.598 256.948 253.416 258.458C254.475 260.412 252.168 262.456 250.355 261.169C248.955 260.175 247.019 261.191 247.041 262.908C247.07 265.13 244.078 265.868 243.071 263.887C242.293 262.356 240.106 262.356 239.329 263.887C238.322 265.868 235.33 265.131 235.359 262.908C235.381 261.191 233.445 260.175 232.045 261.169C230.233 262.455 227.926 260.412 228.985 258.458C229.803 256.948 228.561 255.149 226.859 255.378C224.657 255.675 223.564 252.793 225.409 251.555C226.835 250.598 226.571 248.428 224.958 247.84C222.87 247.079 223.241 244.02 225.451 243.781C227.158 243.596 227.933 241.552 226.778 240.282C225.283 238.638 227.033 236.102 229.101 236.917C230.698 237.547 232.335 236.097 231.902 234.435C231.342 232.284 234.071 230.852 235.522 232.535C236.644 233.835 238.767 233.312 239.156 231.639C239.66 229.475 242.741 229.475 243.245 231.639Z" fill="#F5BB60"/>
<path d="M251.93 251.011C253.321 245.089 249.648 239.16 243.726 237.768C237.804 236.377 231.875 240.05 230.484 245.972C229.093 251.895 232.766 257.823 238.688 259.215C244.61 260.606 250.539 256.933 251.93 251.011Z" stroke="white" stroke-width="0.8804" stroke-miterlimit="10"/>
<path d="M129.404 165.364V177H127.995V165.364H129.404ZM141.457 165.364V177H140.093L133.752 167.864H133.638V177H132.229V165.364H133.593L139.957 174.523H140.07V165.364H141.457ZM143.64 166.614V165.364H152.367V166.614H148.708V177H147.299V166.614H143.64ZM154.542 177V165.364H161.565V166.614H155.951V170.545H161.201V171.795H155.951V175.75H161.656V177H154.542ZM164.104 177V165.364H168.036C168.945 165.364 169.692 165.519 170.275 165.83C170.858 166.136 171.29 166.559 171.57 167.097C171.851 167.634 171.991 168.246 171.991 168.932C171.991 169.617 171.851 170.225 171.57 170.756C171.29 171.286 170.86 171.703 170.281 172.006C169.701 172.305 168.96 172.455 168.059 172.455H164.877V171.182H168.013C168.635 171.182 169.135 171.091 169.513 170.909C169.896 170.727 170.173 170.47 170.343 170.136C170.517 169.799 170.604 169.398 170.604 168.932C170.604 168.466 170.517 168.059 170.343 167.71C170.169 167.362 169.89 167.093 169.508 166.903C169.125 166.71 168.62 166.614 167.991 166.614H165.513V177H164.104ZM169.582 171.773L172.445 177H170.809L167.991 171.773H169.582ZM183.566 165.364V177H182.202L175.862 167.864H175.748V177H174.339V165.364H175.702L182.066 174.523H182.18V165.364H183.566ZM192.749 168.273C192.681 167.697 192.405 167.25 191.92 166.932C191.435 166.614 190.84 166.455 190.136 166.455C189.621 166.455 189.17 166.538 188.783 166.705C188.401 166.871 188.102 167.1 187.886 167.392C187.674 167.684 187.567 168.015 187.567 168.386C187.567 168.697 187.641 168.964 187.789 169.188C187.941 169.407 188.134 169.591 188.369 169.739C188.603 169.883 188.85 170.002 189.107 170.097C189.365 170.187 189.602 170.261 189.817 170.318L190.999 170.636C191.302 170.716 191.639 170.826 192.011 170.966C192.386 171.106 192.744 171.297 193.085 171.54C193.429 171.778 193.713 172.085 193.937 172.46C194.16 172.835 194.272 173.295 194.272 173.841C194.272 174.47 194.107 175.038 193.778 175.545C193.452 176.053 192.975 176.456 192.346 176.756C191.721 177.055 190.961 177.205 190.067 177.205C189.234 177.205 188.513 177.07 187.903 176.801C187.297 176.532 186.819 176.157 186.471 175.676C186.126 175.195 185.931 174.636 185.886 174H187.34C187.378 174.439 187.526 174.803 187.783 175.091C188.045 175.375 188.374 175.587 188.772 175.727C189.174 175.864 189.605 175.932 190.067 175.932C190.605 175.932 191.088 175.845 191.516 175.67C191.944 175.492 192.283 175.246 192.533 174.932C192.783 174.614 192.908 174.242 192.908 173.818C192.908 173.432 192.8 173.117 192.585 172.875C192.369 172.633 192.085 172.436 191.732 172.284C191.38 172.133 190.999 172 190.59 171.886L189.158 171.477C188.249 171.216 187.53 170.843 186.999 170.358C186.469 169.873 186.204 169.239 186.204 168.455C186.204 167.803 186.38 167.235 186.732 166.75C187.088 166.261 187.566 165.883 188.164 165.614C188.766 165.341 189.439 165.205 190.181 165.205C190.931 165.205 191.598 165.339 192.181 165.608C192.764 165.873 193.227 166.237 193.567 166.699C193.912 167.161 194.094 167.686 194.113 168.273H192.749ZM196.589 177V165.364H197.998V170.545H204.202V165.364H205.612V177H204.202V171.795H197.998V177H196.589ZM209.842 165.364V177H208.433V165.364H209.842ZM212.667 177V165.364H216.599C217.512 165.364 218.258 165.528 218.837 165.858C219.421 166.184 219.853 166.625 220.133 167.182C220.413 167.739 220.553 168.36 220.553 169.045C220.553 169.731 220.413 170.354 220.133 170.915C219.856 171.475 219.428 171.922 218.849 172.256C218.269 172.585 217.527 172.75 216.621 172.75H213.803V171.5H216.576C217.201 171.5 217.703 171.392 218.082 171.176C218.46 170.96 218.735 170.669 218.906 170.301C219.08 169.93 219.167 169.511 219.167 169.045C219.167 168.58 219.08 168.163 218.906 167.795C218.735 167.428 218.459 167.14 218.076 166.932C217.693 166.72 217.186 166.614 216.553 166.614H214.076V177H212.667ZM125.077 188H123.668C123.585 187.595 123.439 187.239 123.231 186.932C123.026 186.625 122.776 186.367 122.481 186.159C122.189 185.947 121.865 185.788 121.509 185.682C121.153 185.576 120.782 185.523 120.396 185.523C119.691 185.523 119.053 185.701 118.481 186.057C117.913 186.413 117.46 186.938 117.123 187.631C116.79 188.324 116.623 189.174 116.623 190.182C116.623 191.189 116.79 192.04 117.123 192.733C117.46 193.426 117.913 193.951 118.481 194.307C119.053 194.663 119.691 194.841 120.396 194.841C120.782 194.841 121.153 194.788 121.509 194.682C121.865 194.576 122.189 194.419 122.481 194.21C122.776 193.998 123.026 193.739 123.231 193.432C123.439 193.121 123.585 192.765 123.668 192.364H125.077C124.971 192.958 124.778 193.491 124.498 193.96C124.218 194.43 123.869 194.83 123.452 195.159C123.036 195.485 122.568 195.733 122.049 195.903C121.534 196.074 120.983 196.159 120.396 196.159C119.403 196.159 118.521 195.917 117.748 195.432C116.975 194.947 116.367 194.258 115.924 193.364C115.481 192.47 115.259 191.409 115.259 190.182C115.259 188.955 115.481 187.894 115.924 187C116.367 186.106 116.975 185.417 117.748 184.932C118.521 184.447 119.403 184.205 120.396 184.205C120.983 184.205 121.534 184.29 122.049 184.46C122.568 184.631 123.036 184.881 123.452 185.21C123.869 185.536 124.218 185.934 124.498 186.403C124.778 186.869 124.971 187.402 125.077 188ZM127.354 196V184.364H134.377V185.614H128.763V189.545H134.013V190.795H128.763V194.75H134.468V196H127.354ZM136.917 196V184.364H140.849C141.758 184.364 142.504 184.519 143.087 184.83C143.671 185.136 144.103 185.559 144.383 186.097C144.663 186.634 144.803 187.246 144.803 187.932C144.803 188.617 144.663 189.225 144.383 189.756C144.103 190.286 143.673 190.703 143.093 191.006C142.513 191.305 141.773 191.455 140.871 191.455H137.69V190.182H140.826C141.447 190.182 141.947 190.091 142.326 189.909C142.709 189.727 142.985 189.47 143.156 189.136C143.33 188.799 143.417 188.398 143.417 187.932C143.417 187.466 143.33 187.059 143.156 186.71C142.981 186.362 142.703 186.093 142.32 185.903C141.938 185.71 141.432 185.614 140.803 185.614H138.326V196H136.917ZM142.394 190.773L145.258 196H143.621L140.803 190.773H142.394ZM146.515 185.614V184.364H155.242V185.614H151.583V196H150.174V185.614H146.515ZM158.826 184.364V196H157.417V184.364H158.826ZM161.651 196V184.364H168.629V185.614H163.06V189.545H168.106V190.795H163.06V196H161.651ZM172.451 184.364V196H171.042V184.364H172.451ZM184.64 188H183.231C183.147 187.595 183.002 187.239 182.793 186.932C182.589 186.625 182.339 186.367 182.043 186.159C181.752 185.947 181.428 185.788 181.072 185.682C180.716 185.576 180.344 185.523 179.958 185.523C179.254 185.523 178.615 185.701 178.043 186.057C177.475 186.413 177.022 186.938 176.685 187.631C176.352 188.324 176.185 189.174 176.185 190.182C176.185 191.189 176.352 192.04 176.685 192.733C177.022 193.426 177.475 193.951 178.043 194.307C178.615 194.663 179.254 194.841 179.958 194.841C180.344 194.841 180.716 194.788 181.072 194.682C181.428 194.576 181.752 194.419 182.043 194.21C182.339 193.998 182.589 193.739 182.793 193.432C183.002 193.121 183.147 192.765 183.231 192.364H184.64C184.534 192.958 184.341 193.491 184.06 193.96C183.78 194.43 183.432 194.83 183.015 195.159C182.598 195.485 182.13 195.733 181.612 195.903C181.096 196.074 180.545 196.159 179.958 196.159C178.966 196.159 178.083 195.917 177.31 195.432C176.538 194.947 175.93 194.258 175.487 193.364C175.043 192.47 174.822 191.409 174.822 190.182C174.822 188.955 175.043 187.894 175.487 187C175.93 186.106 176.538 185.417 177.31 184.932C178.083 184.447 178.966 184.205 179.958 184.205C180.545 184.205 181.096 184.29 181.612 184.46C182.13 184.631 182.598 184.881 183.015 185.21C183.432 185.536 183.78 185.934 184.06 186.403C184.341 186.869 184.534 187.402 184.64 188ZM187.394 196H185.917L190.19 184.364H191.644L195.917 196H194.44L190.962 186.205H190.871L187.394 196ZM187.94 191.455H193.894V192.705H187.94V191.455ZM195.734 185.614V184.364H204.461V185.614H200.802V196H199.393V185.614H195.734ZM208.045 184.364V196H206.636V184.364H208.045ZM220.688 190.182C220.688 191.409 220.467 192.47 220.023 193.364C219.58 194.258 218.972 194.947 218.2 195.432C217.427 195.917 216.544 196.159 215.552 196.159C214.559 196.159 213.677 195.917 212.904 195.432C212.131 194.947 211.523 194.258 211.08 193.364C210.637 192.47 210.415 191.409 210.415 190.182C210.415 188.955 210.637 187.894 211.08 187C211.523 186.106 212.131 185.417 212.904 184.932C213.677 184.447 214.559 184.205 215.552 184.205C216.544 184.205 217.427 184.447 218.2 184.932C218.972 185.417 219.58 186.106 220.023 187C220.467 187.894 220.688 188.955 220.688 190.182ZM219.325 190.182C219.325 189.174 219.156 188.324 218.819 187.631C218.486 186.938 218.033 186.413 217.461 186.057C216.893 185.701 216.256 185.523 215.552 185.523C214.847 185.523 214.209 185.701 213.637 186.057C213.069 186.413 212.616 186.938 212.279 187.631C211.946 188.324 211.779 189.174 211.779 190.182C211.779 191.189 211.946 192.04 212.279 192.733C212.616 193.426 213.069 193.951 213.637 194.307C214.209 194.663 214.847 194.841 215.552 194.841C216.256 194.841 216.893 194.663 217.461 194.307C218.033 193.951 218.486 193.426 218.819 192.733C219.156 192.04 219.325 191.189 219.325 190.182ZM232.285 184.364V196H230.921L224.58 186.864H224.467V196H223.058V184.364H224.421L230.785 193.523H230.898V184.364H232.285Z" fill="#D88C84"/>
<path d="M152.025 257.108H108.585C108.383 257.108 108.217 256.942 108.217 256.74C108.217 256.538 108.383 256.372 108.585 256.372H152.025C152.227 256.372 152.393 256.538 152.393 256.74C152.393 256.942 152.228 257.108 152.025 257.108Z" fill="#5873C1"/>
<path d="M217.964 257.108H174.524C174.322 257.108 174.156 256.942 174.156 256.74C174.156 256.538 174.322 256.372 174.524 256.372H217.964C218.166 256.372 218.332 256.538 218.332 256.74C218.332 256.942 218.167 257.108 217.964 257.108Z" fill="#5873C1"/>
<path d="M105.935 214.201H246.862" stroke="#5873C1" stroke-width="1.1428" stroke-miterlimit="10" stroke-linecap="round" stroke-linejoin="round"/>
<path d="M141.167 204.339H211.631" stroke="#5873C1" stroke-width="1.1428" stroke-miterlimit="10" stroke-linecap="round" stroke-linejoin="round"/>
<path d="M105.935 219.846H246.862" stroke="#5873C1" stroke-width="1.1428" stroke-miterlimit="10" stroke-linecap="round" stroke-linejoin="round"/>
<path d="M105.935 225.49H246.862" stroke="#5873C1" stroke-width="1.1428" stroke-miterlimit="10" stroke-linecap="round" stroke-linejoin="round"/>
<path d="M222.482 292.729H127.779C124.811 292.729 122.383 290.301 122.383 287.333C122.383 284.365 124.811 281.937 127.779 281.937H222.482C225.45 281.937 227.878 284.365 227.878 287.333C227.879 290.301 225.45 292.729 222.482 292.729Z" fill="#5873C1"/>
<path opacity="0.31" d="M91.0213 141.941C91.1773 142.404 90.6563 142.998 89.8563 143.269C89.0563 143.54 88.2803 143.384 88.1243 142.921C87.9683 142.458 88.4893 141.864 89.2893 141.593C90.0893 141.322 90.8653 141.478 91.0213 141.941Z" fill="#000061"/>
<path d="M89.5952 142.068C88.4562 139.87 85.9472 138.558 83.4712 138.54C80.9952 138.523 78.6012 139.678 76.8052 141.382C75.0092 143.086 73.7672 145.304 72.8842 147.617C70.8872 152.848 70.6422 158.56 70.4492 164.155C70.1522 172.778 69.9282 181.451 71.1042 189.999" stroke="#F5BB60" stroke-width="0.5477" stroke-miterlimit="10" stroke-linecap="round" stroke-linejoin="round"/>
<path d="M70.6471 185.949C70.5681 185.901 68.1441 189.022 68.6871 193.73L73.6751 193.217C73.6751 193.217 74.5181 188.283 70.6471 185.949Z" fill="#F5BB60"/>
<path d="M553 347H0V500H553V347Z" fill="#9199E2"/>
</g>
<defs>
<linearGradient id="paint0_linear_53_2725" x1="433.23" y1="229.539" x2="401.443" y2="188.178" gradientUnits="userSpaceOnUse">
<stop stop-color="#F1C3B5" stop-opacity="0"/>
<stop offset="1" stop-color="#FF7171" stop-opacity="0.3"/>
</linearGradient>
<linearGradient id="paint1_linear_53_2725" x1="386.835" y1="226.348" x2="359.104" y2="190.264" gradientUnits="userSpaceOnUse">
<stop stop-color="#F1C3B5" stop-opacity="0"/>
<stop offset="1" stop-color="#FF7171" stop-opacity="0.3"/>
</linearGradient>
<clipPath id="clip0_53_2725">
<rect width="500" height="500" fill="white"/>
</clipPath>
</defs>
</svg>
