<svg width="2798" height="1609" viewBox="0 0 2798 1609" fill="none" xmlns="http://www.w3.org/2000/svg">
<path d="M205.515 1604.87C205.515 1604.87 -63.335 1175.67 137.575 750.633C326.639 350.656 641.945 562.464 994.548 244.77C1529.86 -237.55 2591.91 36.7211 2372.39 702.703C2258.62 1047.88 2836.66 1254.65 2643.24 1605.61L205.515 1604.87Z" fill="#EBF3FA"/>
<path d="M2078.45 1028.08H1768.74C1764.63 1028.08 1761.28 1024.72 1761.28 1020.62V996.844C1761.28 992.742 1764.63 989.386 1768.74 989.386H2078.45C2082.55 989.386 2085.9 992.742 2085.9 996.844V1020.62C2085.9 1024.72 2082.55 1028.08 2078.45 1028.08Z" fill="#D9E7FC"/>
<path d="M1839.95 1028.07L1836.09 1050.71L1780.27 1378.44C1780.11 1379.58 1778.85 1380.44 1777.35 1380.44C1774.48 1380.44 1772.25 1378.54 1772.56 1376.35L1816.83 1040.75L1818.51 1028.07H1839.95Z" fill="#D9E7FC"/>
<path d="M1839.95 1028.07L1836.09 1050.71C1833.44 1041.7 1816.83 1040.75 1816.83 1040.75L1818.51 1028.07H1839.95Z" fill="#BFD3EF"/>
<path d="M2069.83 1606.46C2068.33 1606.46 2067.07 1605.04 2066.92 1603.16L2011.09 1065.23L2008.69 1042.05L2007.24 1028.07H2028.68L2030.35 1048.88L2031.67 1065.21L2074.63 1599.74C2074.93 1603.33 2072.7 1606.46 2069.83 1606.46Z" fill="#D9E7FC"/>
<path d="M2031.67 1065.21C2026.21 1047.5 2008.7 1042.07 2008.7 1042.07C2008.7 1042.07 2008.7 1042.06 2008.69 1042.05L2007.24 1028.07H2028.68L2030.35 1048.88L2031.67 1065.21Z" fill="#BFD3EF"/>
<path opacity="0.5" d="M1796.12 829.479C1796.12 829.479 1904.83 668.559 2045.34 611.457C2064.02 603.868 2081.91 624.026 2072.31 641.751C2072.15 642.046 2071.99 642.344 2071.82 642.644C2054.94 672.644 1890.17 751.03 1796.12 829.479Z" fill="#DFEBFD"/>
<path opacity="0.5" d="M1760.18 873.068C1760.18 873.068 1958.02 703.823 2156.33 686.006C2168.42 684.92 2179.69 693.371 2181.23 705.415C2182.23 713.259 2179.36 723.232 2167.61 735.068C2136.3 766.629 1904.23 807.674 1760.18 873.068Z" fill="#DFEBFD"/>
<path d="M1089.75 599.706C1089.75 599.706 1012.99 509.931 1002.25 418.308C1000.82 406.132 1015.53 398.904 1024.37 407.399C1024.52 407.541 1024.67 407.685 1024.82 407.833C1039.67 422.583 1058.97 531.867 1089.75 599.706Z" fill="#DFEBFD"/>
<path d="M1109.49 627.83C1109.49 627.83 1042.27 484.452 1063.91 365.299C1065.23 358.033 1072.01 352.793 1079.32 353.842C1084.08 354.526 1089.46 357.822 1094.5 366.622C1107.94 390.088 1094.46 532.794 1109.49 627.83Z" fill="#DFEBFD"/>
<path d="M1436.78 247.464C1402.87 210.687 1337.59 261.717 1337.59 261.717C1337.59 261.717 1327.57 362.216 1314.22 371.437C1300.88 380.658 1306.01 283.84 1306.01 283.84C1276.96 295.573 1224.15 366.192 1224.15 366.192C1224.15 366.192 1274.16 451.291 1258.96 456.944C1243.76 462.596 1218.52 379.333 1218.52 379.333C1195.94 401.306 1187.23 445.543 1187.23 445.543C1182.5 512.66 1268.93 515.266 1268.93 515.266C1268.93 515.266 1285.63 545.132 1285.02 589.683L1285.02 589.684C1285.02 589.684 1284.14 598.311 1285.53 611.468L1292.83 607.666C1292.4 605.399 1292.08 603.166 1291.86 600.971C1291.85 600.957 1291.85 600.945 1291.85 600.931C1291.85 600.899 1291.85 600.868 1291.84 600.836C1291.76 599.448 1291.64 597.47 1291.52 595.049C1291.52 595.046 1291.52 595.043 1291.52 595.04C1291.51 595.035 1291.52 595.033 1291.52 595.028C1291.47 589.503 1291.3 585.495 1291.04 582.671C1291.04 582.662 1291.03 582.653 1291.03 582.646C1290.57 565.468 1290.9 542.607 1295.36 535.52C1295.36 535.52 1293.97 534.805 1292.06 532.987C1293.11 533.795 1294.21 534.636 1295.36 535.52C1321.8 555.775 1386.57 527.699 1417.64 502.435C1448.71 477.171 1428.43 475.26 1401.4 469.094C1374.37 462.929 1337.31 487.578 1322.46 487.376C1307.61 487.174 1321.3 472.098 1345.43 461.797C1369.55 451.496 1393.23 468.648 1432.56 452.695C1471.88 436.741 1463.71 351.393 1463.71 351.393C1442.02 372.901 1388.2 382.798 1381.77 374.807C1375.33 366.816 1444.49 331.918 1453.8 323.664C1463.11 315.412 1470.69 284.242 1436.78 247.464Z" fill="#DFEBFD"/>
<path d="M1817.57 297.395C1767.43 243.013 1670.89 318.471 1670.89 318.471C1670.89 318.471 1656.08 467.078 1636.34 480.712C1616.61 494.347 1624.2 351.184 1624.2 351.184C1581.25 368.533 1503.16 472.956 1503.16 472.956C1503.16 472.956 1577.11 598.791 1554.63 607.15C1532.15 615.508 1494.83 492.388 1494.83 492.388C1461.45 524.879 1448.57 590.292 1448.57 590.292C1441.57 689.537 1569.37 693.391 1569.37 693.391C1569.37 693.391 1594.06 737.553 1593.17 803.431L1593.16 803.433C1593.16 803.433 1591.86 816.188 1593.92 835.645L1604.71 830.023C1604.08 826.671 1603.6 823.369 1603.27 820.123C1603.26 820.102 1603.26 820.085 1603.27 820.064C1603.26 820.017 1603.26 819.97 1603.25 819.923C1603.12 817.871 1602.95 814.945 1602.77 811.366C1602.77 811.362 1602.77 811.357 1602.77 811.352C1602.76 811.345 1602.77 811.342 1602.77 811.334C1602.7 803.165 1602.45 797.238 1602.06 793.063C1602.06 793.049 1602.06 793.037 1602.05 793.025C1601.38 767.625 1601.85 733.821 1608.46 723.341C1608.46 723.341 1606.39 722.283 1603.57 719.596C1605.13 720.79 1606.76 722.035 1608.46 723.341C1647.55 753.292 1743.32 711.776 1789.27 674.419C1835.21 637.062 1805.23 634.236 1765.26 625.119C1725.28 616.002 1670.48 652.451 1648.52 652.153C1626.56 651.854 1646.81 629.562 1682.48 614.33C1718.16 599.098 1753.17 624.46 1811.32 600.869C1869.48 577.279 1857.39 451.076 1857.39 451.076C1825.32 482.88 1745.73 497.514 1736.22 485.697C1726.71 473.881 1828.97 422.277 1842.74 410.073C1856.5 397.868 1867.71 351.776 1817.57 297.395Z" fill="#DFEBFD"/>
<path d="M401.905 691.44C401.824 608.654 538.496 597.373 538.496 597.373C538.496 597.373 663.537 708.291 690.113 704.515C716.689 700.74 601.723 588.808 601.723 588.808C650.212 570.449 793.716 596.989 793.716 596.989C793.716 596.989 828.487 756.602 853.316 746.401C878.145 736.2 815.318 606.642 815.318 606.642C867.441 607.997 927.708 651.993 927.708 651.993C1008.83 728.272 906.69 828.499 906.69 828.499C906.69 828.499 919.933 883.554 970.701 937.032L970.703 937.033C970.703 937.033 981.461 946.531 994.546 964.088L981.407 967.66C979.376 964.429 977.267 961.346 975.069 958.431C975.062 958.406 975.049 958.391 975.027 958.379C974.995 958.336 974.963 958.295 974.931 958.253C973.479 956.467 971.4 953.931 968.831 950.849C968.827 950.846 968.824 950.842 968.821 950.838C968.819 950.829 968.81 950.831 968.808 950.823C962.658 944.056 958.368 938.989 955.513 935.264C955.503 935.252 955.495 935.241 955.49 935.228C936.756 913.832 910.691 886.404 897.302 882.805C897.302 882.805 898.2 880.365 898.476 876.014C898.101 878.18 897.711 880.438 897.302 882.805C887.915 937.113 777.649 975.717 711.505 979.9C645.361 984.083 667.865 958.987 693.803 921.135C719.741 883.283 792.478 871.626 810.305 854.703C828.132 837.78 794.552 834.834 753.659 849.402C712.765 863.97 703.238 911.416 637.515 936.185C571.792 960.955 485.883 848.023 485.883 848.023C536.4 849.815 612.946 801.401 611.791 784.463C610.636 767.525 487.378 802.762 466.792 803.184C446.204 803.608 401.986 774.226 401.905 691.44Z" fill="#DFEBFD"/>
<path d="M1905.28 1038.25C1905.28 1072.86 1902.16 1106.75 1896.16 1139.64C1848.43 1402.08 1618.7 1601.06 1342.47 1601.06C1112.73 1601.06 915.161 1463.43 827.697 1266.12C816.164 1240.12 806.547 1213.07 799.03 1185.17C786.385 1138.34 779.651 1089.08 779.651 1038.25C779.651 996.681 784.161 956.171 792.708 917.176C816.093 810.507 869.731 715.176 944.18 640.614C965.289 619.453 988.097 599.961 1012.37 582.363C1105.09 515.092 1219.14 475.426 1342.47 475.426C1356.79 475.426 1370.98 475.962 1385.01 477.022C1404.81 478.505 1424.33 481.007 1443.51 484.477C1574.52 508.223 1689.75 577.327 1772.33 674.933C1788.98 694.611 1804.3 715.453 1818.15 737.313C1873.34 824.356 1905.28 927.575 1905.28 1038.25Z" fill="#699FF0"/>
<path d="M1905.27 1038.25C1905.27 1072.86 1902.15 1106.75 1896.16 1139.64C1889.97 1173.66 1880.72 1206.61 1868.71 1238.2C1788.08 1450.33 1582.89 1601.07 1342.47 1601.07C1246.63 1601.07 1156.4 1577.12 1077.42 1534.88C1070.15 1530.98 1062.97 1526.95 1055.89 1522.75C987.506 1482.22 928.432 1427.61 882.691 1362.91C861.314 1332.71 842.851 1300.32 827.694 1266.12C816.161 1240.12 806.544 1213.07 799.027 1185.17C862.602 1200.37 962.968 1216.63 1083.27 1208.98C1104.16 1207.66 1125.65 1205.62 1147.67 1202.71C1225.15 1192.51 1309.01 1171.74 1395.37 1134.71C1600.18 1046.88 1737.97 871.039 1818.15 737.32C1873.33 824.361 1905.27 927.58 1905.27 1038.25Z" fill="#4888E5"/>
<path d="M1905.28 1038.25C1905.28 1072.86 1902.16 1106.75 1896.17 1139.64C1873.25 1136.32 1843.42 1133.08 1825.01 1135.24C1791.83 1139.15 1758.66 1207.45 1690.35 1210.14C1622.04 1212.82 1538.12 1160.62 1448.35 1195.74C1358.57 1230.87 1311.73 1193.79 1296.12 1168.42C1280.51 1143.05 1335.15 1084.5 1330.2 1059.13C1325.25 1033.76 1337.1 947.887 1413.22 947.887C1489.33 947.887 1520.85 906.287 1534.22 891.29C1572.55 848.295 1602.52 887.387 1633.75 854.209C1664.98 821.032 1610.33 762.483 1633.75 723.45C1657.17 684.418 1772.32 674.932 1772.32 674.932C1855.27 772.973 1905.28 899.77 1905.28 1038.25Z" fill="#A8D29F"/>
<path d="M1075.58 942.589C1048.26 981.065 1085.34 1061.08 1061.92 1102.07C1038.5 1143.05 993.617 1135.24 960.439 1154.76C931.633 1171.7 920.089 1241.6 827.699 1266.12C796.805 1196.47 779.65 1119.36 779.65 1038.25C779.65 996.678 784.158 956.172 792.706 917.179C811.559 898.141 837.389 881.044 872.615 871.774C983.858 842.5 986.621 760.624 1031.52 759.062C1140.86 755.259 1102.91 904.103 1075.58 942.589Z" fill="#A8D29F"/>
<path d="M1495.19 730.281C1495.19 730.281 1426.88 716.619 1389.8 740.039C1352.72 763.458 1277.58 805.418 1287.34 829.814C1297.09 854.209 1368.33 872.75 1397.6 871.773C1426.88 870.797 1406.95 812.923 1548.85 829.814C1584.82 834.096 1585.34 755.042 1495.19 730.281Z" fill="#A8D29F"/>
<path d="M1443.51 484.477C1408.9 545.056 1345.56 621.78 1238.61 649.5C1109.55 682.935 999.774 658.777 944.18 640.613C965.289 619.452 988.097 599.96 1012.37 582.362C1105.09 515.091 1219.14 475.425 1342.47 475.425C1356.79 475.425 1370.98 475.961 1385.01 477.021C1404.81 478.505 1424.33 481.007 1443.51 484.477Z" fill="#7DB2FF"/>
<path d="M1868.71 1238.2C1788.08 1450.33 1582.89 1601.07 1342.47 1601.07C1246.63 1601.07 1156.4 1577.12 1077.42 1534.88C1070.15 1530.98 1062.97 1526.95 1055.89 1522.75C1201.16 1512.15 1563.65 1462.52 1868.71 1238.2Z" fill="#3B7FD1"/>
<path d="M1170.14 1399.97C1140.28 1421.75 1133.16 1488.68 1114.06 1497.95C1104.48 1502.6 1089.73 1519.36 1077.43 1534.87C999.877 1493.41 933.172 1434.3 882.695 1362.91C916.48 1339.46 979.829 1299.86 1023.78 1298.78C1023.78 1298.78 1045.74 1298.52 1062.02 1253.9C1068.44 1236.32 1075.31 1220.72 1083.27 1208.98C1095.53 1190.92 1110.34 1181.99 1129.98 1189.03C1138.41 1192.05 1143.7 1196.76 1147.67 1202.71C1159.04 1219.64 1159.75 1246.52 1191.77 1272.44C1235.01 1307.45 1200 1378.19 1170.14 1399.97Z" fill="#A8D29F"/>
<path d="M1597.32 643.714C1597.32 643.714 1591.44 537.936 1461.32 519.542C1461.32 519.542 1456.52 643.714 1597.32 643.714Z" fill="#A8D29F"/>
<path d="M1591.44 642.987C1591.44 642.987 1695.79 662.705 1738.02 538.263C1738.02 538.263 1617.58 504.636 1591.44 642.987Z" fill="#A8D29F"/>
<path d="M1592.88 598.862C1592.88 598.862 1639.18 561.378 1601.27 498.151C1601.27 498.151 1543.18 537.471 1592.88 598.862Z" fill="#A8D29F"/>
<path d="M1591.44 642.987C1591.44 642.987 1575.8 710.842 1578.52 734.755H1591.44C1591.44 734.755 1586.45 671.601 1598.71 639.718L1591.44 642.987Z" fill="#A8D29F"/>
<path d="M1735.52 809.391C1735.52 809.391 1732.73 759.338 1671.16 750.634C1671.16 750.634 1668.89 809.391 1735.52 809.391Z" fill="#82B378"/>
<path d="M1732.73 809.047C1732.73 809.047 1782.11 818.378 1802.09 759.492C1802.09 759.492 1745.11 743.58 1732.73 809.047Z" fill="#82B378"/>
<path d="M1733.42 788.167C1733.42 788.167 1755.32 770.43 1737.39 740.511C1737.39 740.511 1709.9 759.118 1733.42 788.167Z" fill="#82B378"/>
<path d="M1732.73 809.047C1732.73 809.047 1725.33 841.155 1726.62 852.471H1732.73C1732.73 852.471 1730.37 822.587 1736.18 807.5L1732.73 809.047Z" fill="#82B378"/>
<path d="M1521.18 689.533C1521.18 689.533 1519.43 658.104 1480.77 652.639C1480.77 652.639 1479.34 689.533 1521.18 689.533Z" fill="#A8D29F"/>
<path d="M1519.43 689.317C1519.43 689.317 1550.43 695.175 1562.98 658.201C1562.98 658.201 1527.2 648.21 1519.43 689.317Z" fill="#A8D29F"/>
<path d="M1519.86 676.206C1519.86 676.206 1533.61 665.069 1522.35 646.283C1522.35 646.283 1505.09 657.966 1519.86 676.206Z" fill="#A8D29F"/>
<path d="M1519.43 689.317C1519.43 689.317 1514.78 709.478 1515.59 716.583H1519.43C1519.43 716.583 1517.95 697.818 1521.59 688.345L1519.43 689.317Z" fill="#A8D29F"/>
<path d="M1828.32 617.161C1828.32 617.161 1818.31 615.207 1816.01 617.161C1813.72 619.115 1802.86 630.155 1805.19 633.778C1807.51 637.402 1818.67 630.778 1820.99 630.153C1823.3 629.528 1829.79 626.995 1829.79 626.995L1828.32 617.161Z" fill="#FFB27D"/>
<path d="M1934.78 971.356L1945.52 975.355C1945.52 975.355 1992.17 910.659 1997.91 853.738C1998.94 843.576 1998.59 833.73 1996.38 824.638C1996.38 824.638 1996.83 822.034 1997.63 817.431C1998 815.283 1998.45 812.697 1998.97 809.733C2000.49 801.044 2002.57 789.155 2004.96 775.617C2010.45 744.465 2017.56 704.641 2023.08 675.365L2020.19 674.435L1988.88 664.335L1982.41 643.783L1959.09 637.646C1959.09 637.646 1953.88 647.834 1949.23 695.961C1948.37 702.274 1947.59 709.236 1947 716.785C1945.19 739.826 1945.06 768.41 1949.22 801.088C1950.29 809.453 1951.64 818.089 1953.32 826.962C1954.54 833.467 1954.73 842.333 1954.21 852.511C1951.86 899.042 1934.78 971.356 1934.78 971.356Z" fill="#35488B"/>
<path d="M1947 716.785L1997.63 817.431C1998 815.283 1998.45 812.697 1998.97 809.733C2000.49 801.044 2002.57 789.155 2004.96 775.617C2010.45 744.465 2017.56 704.641 2023.08 675.365L2020.19 674.435L1988.88 664.335L1982.41 643.783L1959.09 637.646C1959.09 637.646 1953.88 647.834 1949.23 695.961C1948.37 702.273 1947.59 709.235 1947 716.785Z" fill="#2C3A64"/>
<path d="M1969.27 650.562L1970.45 640.512C1990.08 645.727 2042.54 625.939 2042.54 625.939C2042.54 625.939 2061.56 642.659 2059.07 682.738C2057.85 702.3 2055.62 785.426 2053.29 810.025C2052.45 818.94 2051.72 825.285 2051.42 827.819C2051.41 827.831 2051.41 827.837 2051.41 827.843C2051.32 828.616 2051.59 829.346 2051.98 830.021C2055.4 835.832 2058.24 841.882 2060.56 848.072C2083.39 908.896 2057.05 983.801 2057.05 983.801L2050.21 981.046C2050.21 981.046 2035.22 897.686 2023.04 860.858C2020.98 854.612 2018.99 849.704 2017.18 846.77C2011.88 838.223 2006.97 824.258 2002.51 807.648C1994.08 776.246 1987.29 735.394 1982.78 703.862C1982.15 703.893 1969.27 650.562 1969.27 650.562Z" fill="#35488B"/>
<path d="M1828.32 617.161L1829.79 626.996C1829.79 626.996 1830.44 626.996 1831.58 626.915C1835.15 626.671 1843.85 626.183 1853.68 625.126C1868.47 623.664 1886.03 621.063 1893.02 616.756C1903.66 610.255 1921.14 590.342 1932.52 570.43C1932.84 569.943 1933.09 569.456 1933.33 568.968C1939.26 558.402 1943.41 547.918 1943.73 539.548C1943.97 534.427 1943.41 530.039 1942.35 526.219C1940.97 521.18 1938.69 517.198 1936.33 514.191C1936.01 513.703 1935.69 513.216 1935.2 512.809C1931.3 508.177 1927.48 506.227 1927.48 506.227C1925.53 505.413 1923.41 506.39 1921.22 508.746V508.827C1919.43 510.697 1917.48 513.541 1915.61 517.117C1915.53 517.198 1915.45 517.28 1915.45 517.361C1915.04 518.092 1914.63 518.905 1914.15 519.799C1913.98 519.962 1913.9 520.206 1913.82 520.368C1912.93 522.237 1912.03 524.188 1911.14 526.22C1901.14 548.001 1890.5 580.998 1881.64 590.831C1877.82 595.058 1860.34 603.348 1846.45 609.524C1836.45 613.911 1828.32 617.161 1828.32 617.161Z" fill="#FFB27D"/>
<path d="M1931.77 528.661C1937.93 531.519 1945.37 533.466 1954.38 533.957C1988.13 535.807 1995.8 506.215 1997.19 486.576C1992.32 484.813 1988.06 484.98 1985.61 485.112C1983.21 485.243 1980.72 485.489 1978.66 485.743C1974.53 483.586 1967.11 473.108 1962.82 455.581L1961.37 456.256L1937.01 467.707C1937.01 467.707 1939.6 475.633 1941.51 483.217C1943 489.153 1944.07 494.887 1943.17 496.491C1941.25 497.272 1940.1 497.762 1940.1 497.762C1940.1 497.762 1940.1 497.771 1940.1 497.788C1939.85 498.412 1934.55 511.906 1931.77 528.661Z" fill="#FFB27D"/>
<path d="M1923.32 550.809C1923.58 551.484 1923.86 552.142 1924.16 552.817C1932.71 571.23 1948.54 647.501 1948.54 647.501C1946.29 661.214 2051.6 644.809 2051.87 632.324C2055.58 619.084 2038.71 597.814 2029.19 587.143C2028 585.801 2026.93 584.363 2026 582.847C2023.65 579.042 2022.16 574.745 2021.69 570.256C2019.82 552.557 2020.53 535.969 2020.38 525.883L2020.37 525.882C2018.52 524.506 2016.72 523.234 2015.04 522.024C2012.48 520.156 2010.22 518.412 2008.56 516.641C2006.72 514.712 2005.58 512.739 2005.44 510.512C2005.35 508.828 2005.4 507.101 2005.57 505.374C2005.65 504.559 2005.76 503.743 2005.88 502.928C2007.2 494.362 2010.77 486.594 2010.77 486.594C2001.72 482.929 1985.61 485.112 1985.61 485.112C1985.61 485.112 1985.63 486.006 1985.64 487.47C1985.69 493.353 1985.64 508.46 1983.75 511.319C1981.39 514.879 1938.25 530.477 1935.97 525.646C1933.72 520.894 1939.87 498.632 1940.1 497.791C1940.11 497.773 1940.11 497.765 1940.11 497.765C1925.66 503.438 1920.49 508.199 1920.49 508.199C1929.2 513.844 1916.59 532.949 1923.32 550.809Z" fill="#F99746"/>
<path d="M1952.39 391.71C1952.44 390.247 1953.57 374.477 1977.59 373.653C1977.59 373.653 1965.78 375.061 1963.74 380.254C1963.74 380.254 1971.78 373.838 1978.33 375.902C1984.88 377.966 1988.73 389.441 1988.77 393.215C1988.81 396.99 1985.17 409.157 1981.01 410.191C1979.44 410.583 1977.62 410.478 1975.98 410.197C1977.08 411.924 1978.16 413.829 1979.2 415.956C1988.79 435.631 1978.9 454.86 1970.79 452.736C1965.58 451.374 1964.11 460.254 1964.11 460.254L1913.55 419.322C1913.55 419.322 1932.12 380.896 1952.39 391.71Z" fill="#2C3A64"/>
<path d="M1937.01 467.712C1937.01 467.712 1939.6 475.63 1941.51 483.222C1955.74 479.25 1960.07 464.284 1961.37 456.261L1937.01 467.712Z" fill="#ED985F"/>
<path d="M1934.01 476.097C1934.01 476.097 1968.07 468.214 1962.84 447.077C1957.6 425.941 1958.47 410.688 1936.5 414.827C1914.53 418.967 1912.32 428.075 1912.35 435.555C1912.39 443.035 1925.02 477.602 1934.01 476.097Z" fill="#FFB27D"/>
<path d="M1910.44 423.555C1914.1 415.894 1918.41 416.302 1921.11 417.661C1937.11 402.853 1952.81 414.951 1952.81 414.951C1958.85 429.548 1971.95 435.513 1971.95 435.513C1971.95 435.513 1966.71 440.871 1951.55 440.753C1946.92 440.717 1942.26 438.59 1938.02 435.659C1946.2 443.893 1955.78 448.905 1955.78 448.905C1936.8 445.272 1924.06 423.293 1922.76 420.958C1921.15 423.333 1918.07 428.389 1917.82 432.658C1917.46 438.46 1919.46 449.726 1916.14 450.153C1916.14 450.153 1904.95 435.044 1910.44 423.555Z" fill="#2C3A64"/>
<path d="M1920.49 508.193C1920.49 508.193 1912.28 522.5 1911.06 526.181C1911.06 526.181 1921.69 525.772 1925.99 533.953C1925.99 533.953 1927.02 510.122 1920.49 508.193Z" fill="#F99746"/>
<path d="M1976.89 621.873C1997.67 621.654 2015.25 600.085 2026 582.847C2023.65 579.042 2022.16 574.745 2021.69 570.256C2019.82 552.557 2020.53 535.969 2020.37 525.883L2020.37 525.882C2018.52 524.506 2016.72 523.234 2015.04 522.024C2012.48 520.156 2010.22 518.412 2008.56 516.641C1991.54 545.39 1948.73 622.17 1976.89 621.873Z" fill="#ED7D2B"/>
<path d="M1898.38 633.172L1901.23 643.574C1901.23 643.574 1904.8 642.924 1910.49 641.867C1912.2 641.542 1913.18 641.299 1913.18 641.299C1917.73 640.406 1923.17 639.186 1929.1 637.885H1929.19C1939.35 635.447 1950.72 632.522 1960.31 629.269C1967.06 626.913 1972.91 624.394 1976.89 621.874C1977.3 621.63 1977.62 621.386 1978.03 621.061C1987.54 614.154 1998.84 593.836 2007.61 572.054C2008.83 569.047 2009.97 566.04 2011.11 563.114C2015.17 552.222 2018.42 541.495 2020.38 532.23C2021.59 526.704 2022.41 521.664 2022.57 517.519C2022.65 516.057 2022.73 514.676 2022.65 513.374C2022.49 489.806 2010.78 486.555 2010.78 486.555C2010.54 486.474 2010.3 486.392 2009.97 486.312C2007.94 485.987 2005.83 487.368 2003.63 490.05C2000.87 493.382 1997.94 498.827 1994.94 505.41C1990.3 515.894 1985.43 529.467 1980.88 542.959C1978.36 550.354 1975.92 557.751 1973.48 564.577C1972.1 568.722 1970.72 572.623 1969.42 576.2C1966.9 583.027 1964.62 588.553 1962.59 592.048C1961.29 594.323 1957.55 597.493 1952.59 601.069C1943.98 607.327 1931.38 614.886 1920.41 621.062C1915.86 623.664 1911.55 626.02 1907.97 627.971C1902.2 631.14 1898.38 633.172 1898.38 633.172Z" fill="#FFB27D"/>
<path d="M1994.96 505.444C2010.61 501.131 2022.68 513.347 2022.68 513.347C2022.48 489.816 2010.77 486.594 2010.77 486.594C2006.06 484.644 2000.6 492.805 1994.96 505.444Z" fill="#F99746"/>
<path d="M2017.31 989.386H2071.4C2071.4 989.386 2072.7 981.143 2069.87 974.889C2067.17 968.887 2062.93 966.16 2063.94 958.899C2060.5 962.437 2054.9 966.4 2047.08 965.348C2046.12 966.902 2040.9 975.215 2037.7 977.514C2034.16 980.054 2018.4 979.148 2017.31 989.386Z" fill="#233862"/>
<path d="M1901.17 989.386H1955.26C1955.26 989.386 1957.28 980.759 1953.73 974.889C1950.59 969.695 1951.8 966.735 1954.12 962.438C1951.67 963.441 1948.5 964.354 1945.01 964.154C1942.32 963.999 1939.47 962.776 1936.97 961.325C1934.64 963.979 1924.67 975.276 1921.56 977.514C1918.02 980.054 1902.26 979.148 1901.17 989.386Z" fill="#233862"/>
<path d="M1895.17 681.369L1882.31 650.013C1880.64 645.923 1876.15 643.799 1871.98 644.948C1867.72 636.942 1861.86 630.436 1855.21 625.87C1848.2 621.047 1840.34 618.389 1832.58 618.423C1828.48 618.44 1824.4 619.215 1820.5 620.814C1802.22 628.303 1794.03 651.395 1800.74 674.071L1799.74 674.479C1799.74 674.479 1796.61 674.262 1791.37 674.262C1774.82 674.262 1737.19 676.461 1710.79 694.797C1710.79 694.797 1709.13 696.563 1709.07 699.262C1709.03 700.154 1709.18 701.153 1709.63 702.22C1709.63 702.22 1752 674.779 1791.2 702.978C1793.61 704.703 1795.94 706.302 1798.21 707.785L1801.73 716.366C1807.56 730.595 1823.96 737.459 1838.19 731.628L1874.09 716.916L1881.57 713.851C1894.24 708.661 1900.36 694.04 1895.17 681.369ZM1825.57 655.953L1810.95 661.951C1806.98 663.576 1804.89 667.899 1805.91 671.956L1804.34 672.598C1798.4 651.938 1805.65 631.103 1821.97 624.414C1824.26 623.473 1826.62 622.856 1829 622.556C1836.52 621.565 1844.35 623.589 1851.39 627.979C1858.08 632.144 1864.04 638.451 1868.34 646.365L1866.18 647.248C1864.07 643.649 1859.55 642.033 1855.58 643.658L1840.95 649.656C1839.81 646.866 1837.09 645.174 1834.24 645.174C1833.34 645.174 1832.42 645.349 1831.54 645.707L1829.51 646.54C1825.84 648.047 1824.06 652.279 1825.57 655.953Z" fill="#C94C43"/>
<path d="M1798.21 707.786C1795.94 706.303 1793.61 704.704 1791.2 702.979C1752 674.78 1709.62 702.221 1709.62 702.221C1709.18 701.155 1709.03 700.155 1709.07 699.263C1715 695.356 1737.23 682.36 1764.78 686.8C1797.06 692.008 1802.9 696.498 1798.21 707.786Z" fill="#B23B38"/>
<path d="M1881.57 713.851L1874.09 716.916C1885.3 710.793 1871.41 684.927 1863.29 667.849C1855.17 650.771 1842.88 658.577 1842.88 658.577C1840.07 652.854 1834.03 653.162 1834.03 653.162C1833.72 647.647 1829.51 646.539 1829.51 646.539L1831.53 645.706C1832.42 645.348 1833.34 645.173 1834.24 645.173C1837.09 645.173 1839.81 646.864 1840.95 649.655L1855.58 643.657C1859.55 642.033 1864.07 643.649 1866.18 647.247L1868.34 646.364C1864.04 638.45 1858.08 632.143 1851.39 627.978C1844.35 623.588 1836.52 621.564 1829 622.555C1830.18 621.605 1831.44 620.281 1832.58 618.423C1840.34 618.389 1848.2 621.047 1855.21 625.87C1861.86 630.435 1867.72 636.941 1871.98 644.948C1876.15 643.798 1880.64 645.923 1882.31 650.013L1895.16 681.369C1900.36 694.04 1894.24 708.661 1881.57 713.851Z" fill="#B23B38"/>
<path d="M1864.74 643.25C1869.94 645.443 1877.25 653.083 1888.96 648.452C1897.33 645.2 1906.18 642.925 1910.49 641.868C1912.2 641.543 1913.17 641.3 1913.17 641.3L1908.54 627.808C1908.54 627.808 1908.38 627.89 1907.97 627.971C1904.97 628.62 1889.69 631.872 1882.53 630.247C1874.49 628.378 1861 638.049 1861 638.049C1861 638.049 1859.53 641.137 1864.74 643.25Z" fill="#FFB27D"/>
<path d="M1717.9 724.869C1717.9 719.988 1709.06 704.922 1709.06 704.922C1709.06 704.922 1700.22 719.988 1700.22 724.869C1700.22 729.75 1704.18 733.707 1709.06 733.707C1713.94 733.707 1717.9 729.75 1717.9 724.869Z" fill="white"/>
<path d="M2409.48 1553.59C2409.48 1553.59 2419.72 1563.07 2417.72 1569.82C2415.72 1576.56 2406.48 1581.05 2405.23 1589.29C2403.99 1597.53 2398.99 1602.03 2394.5 1602.03C2390 1602.03 2373.07 1602.03 2373.07 1602.03C2373.07 1602.03 2369.76 1596.23 2377.75 1594.48C2385.74 1592.73 2388.76 1583.05 2388.26 1574.06C2387.76 1565.07 2389 1553.08 2389 1553.08L2405.98 1549.09L2409.48 1553.59Z" fill="#2C3A64"/>
<path d="M2283.88 1579.46C2283.88 1579.46 2286.38 1599.43 2281.88 1601.68C2277.39 1603.93 2223.7 1603.18 2223.7 1603.18C2223.7 1603.18 2223.7 1596.44 2232.94 1594.94C2242.18 1593.44 2258.41 1587.95 2261.16 1575.71C2263.91 1563.48 2283.88 1579.46 2283.88 1579.46Z" fill="#2C3A64"/>
<path d="M2235.32 1274.42C2235.32 1274.42 2238.35 1312.27 2241.92 1357.77C2246.77 1419.58 2252.59 1495.5 2253.17 1509.89C2254.17 1534.86 2258.17 1574.81 2258.17 1574.81C2258.17 1574.81 2267.65 1584.3 2286.63 1580.3C2286.63 1580.3 2303.55 1523.27 2308.38 1462.93C2308.45 1461.94 2308.53 1460.95 2308.6 1459.95C2313.1 1398.52 2320.09 1269.18 2320.09 1269.18L2235.32 1274.42Z" fill="#35488B"/>
<path d="M2235.32 1274.42C2235.32 1274.42 2238.35 1312.27 2241.92 1357.77L2308.38 1462.93C2308.45 1461.94 2308.53 1460.95 2308.6 1459.95C2313.1 1398.52 2320.09 1269.18 2320.09 1269.18L2235.32 1274.42Z" fill="#2C3A64"/>
<path d="M2249.17 1278.92C2249.17 1278.92 2303.86 1416 2339.81 1480.42C2375.77 1544.85 2387.01 1562.82 2387.01 1562.82C2387.01 1562.82 2407.61 1554.58 2409.48 1548.97C2409.48 1548.97 2395.73 1424.6 2371.65 1394.28C2358.05 1377.15 2342.06 1325.73 2341.31 1307.76C2340.56 1289.78 2336.44 1254.2 2336.44 1254.2L2249.17 1278.92Z" fill="#35488B"/>
<path d="M2141.86 1259.94C2141.86 1259.94 2122.56 1269.21 2119.96 1271.58C2117.36 1273.96 2110.95 1285.63 2111.45 1286.51C2111.94 1287.39 2112.9 1287.66 2114.65 1286.45C2116.4 1285.24 2121.31 1280.19 2121.49 1281.13C2121.67 1282.07 2108.38 1297.69 2110.73 1301C2113.08 1304.31 2126.4 1303.33 2134 1297.92C2141.6 1292.52 2149.19 1272.64 2150.33 1271.56C2160.03 1262.35 2141.86 1259.94 2141.86 1259.94Z" fill="#FFB27D"/>
<path d="M2140.99 1269.87C2135.63 1265.21 2135.49 1264.03 2135.49 1264.03C2135.49 1264.03 2169.71 1204.86 2172.67 1199.17C2175.64 1193.48 2193.98 1104.61 2193.98 1104.61L2257.38 1086.23C2257.38 1086.23 2212.72 1201.7 2204.92 1215.97C2192.03 1239.56 2149.96 1274.27 2149.96 1274.27C2149.96 1274.27 2145.2 1273.53 2140.99 1269.87Z" fill="#ED7D2B"/>
<path d="M2225.08 1063.1C2225.08 1063.1 2202.77 1102.36 2180.96 1107.49C2180.96 1107.49 2181.87 1094.3 2187.18 1085.28C2185.01 1082.71 2183.1 1080.36 2181.45 1078.25C2175.96 1071.21 2173.34 1066.91 2173.34 1066.91L2180.75 1047.01L2185.77 1033.51C2188.18 1037.89 2190.84 1041.63 2193.61 1044.82C2207.91 1061.25 2225.08 1063.1 2225.08 1063.1Z" fill="#FFB27D"/>
<path d="M2193.61 1044.82C2193.61 1044.82 2196.28 1064.49 2181.44 1078.25C2175.95 1071.21 2173.34 1066.91 2173.34 1066.91L2180.74 1047.01C2188.68 1044.59 2193.61 1044.82 2193.61 1044.82Z" fill="#ED975D"/>
<path d="M2167.47 1069.81C2167.47 1069.81 2200.8 1056.81 2192.39 1036.18C2183.98 1015.54 2182.61 999.966 2160.97 1007.39C2139.33 1014.82 2138.43 1024.37 2139.57 1031.94C2140.7 1039.51 2158.58 1072.66 2167.47 1069.81Z" fill="#FFB27D"/>
<path d="M2339.67 1264.56C2326.23 1283.89 2225.68 1309.72 2226.88 1296.34C2227.33 1291.22 2227.95 1282.19 2226.86 1269.95C2226.61 1267.08 2226.25 1264.04 2225.8 1260.83C2223.23 1243.24 2217.17 1220.64 2203.64 1194.46C2202.62 1192.49 2201.57 1190.52 2200.47 1188.52C2194.89 1178.38 2190.15 1167.68 2186.53 1157.2C2179.56 1137.06 2176.75 1117.8 2180.27 1105.21C2180.29 1105.15 2180.3 1105.09 2180.33 1105.04C2201.34 1095.32 2209.48 1057.63 2209.48 1057.63C2209.48 1057.63 2281.18 1070.5 2321.36 1166.07C2321.36 1166.07 2325.21 1176.57 2329.62 1190.81C2334.97 1208.09 2341.14 1230.86 2342.21 1247.11C2342.73 1254.82 2342.09 1261.07 2339.67 1264.56Z" fill="#F99746"/>
<path d="M2197.17 997.844C2197.41 997.383 2198.09 996.89 2199.74 996.384C2199.74 996.384 2198.19 995.863 2196.39 996.259C2195.45 993.975 2193.17 990.086 2188.91 990.056C2188.91 990.056 2191.35 990.693 2192.26 993.143C2186.41 989.437 2175.57 988.361 2148.51 997.373C2112.85 1009.25 2130.67 1029.95 2136.07 1031.61C2141.48 1033.27 2151.43 1022.62 2160.38 1021.17C2169.33 1019.71 2174.17 1032.18 2177.58 1033.21C2180.99 1034.25 2179.05 1031.41 2182.62 1028.57C2186.2 1025.73 2188.25 1032.41 2188.17 1037.1C2188.09 1041.8 2195.06 1046.25 2195.06 1046.25C2195.06 1046.25 2195.06 1046.25 2199.15 1038.75C2203.23 1031.26 2202.12 1004.05 2198.22 999.156C2197.87 998.724 2197.53 998.284 2197.17 997.844Z" fill="#2B478B"/>
<path d="M2342.21 1247.11C2255.69 1221.01 2241.92 1117.85 2241.92 1117.85C2241.92 1117.85 2291.19 1155.5 2329.62 1190.81C2334.97 1208.09 2341.14 1230.86 2342.21 1247.11Z" fill="#ED7D2B"/>
<path d="M2365.93 1250.49C2365.93 1250.49 2363.98 1266.86 2364.45 1269.53C2364.92 1272.21 2368.04 1280.15 2368.82 1280.2C2369.59 1280.24 2371.94 1280.33 2371.88 1278.7C2371.82 1277.06 2370.75 1275.53 2371.44 1275.8C2372.12 1276.07 2372.32 1282.25 2375.44 1282.09C2378.56 1281.93 2387.75 1278.47 2387.37 1271.29C2387 1264.12 2377.22 1250.97 2376.98 1249.78C2375 1239.68 2365.93 1250.49 2365.93 1250.49Z" fill="#FFB27D"/>
<path d="M2371.11 1253.26C2364.25 1256.4 2361.7 1253.19 2361.7 1253.19C2361.7 1253.19 2321.72 1186.43 2317.51 1181.06C2313.29 1175.69 2239.48 1144.01 2239.48 1144.01C2239.48 1144.01 2209.44 1132.53 2208.26 1114.31C2207.23 1098.47 2216.21 1088.75 2226.06 1082.88C2237.79 1075.89 2252.63 1076.91 2263.42 1085.29C2287.63 1104.1 2335.63 1141.92 2343.36 1152.18C2360.55 1175 2379.6 1246.56 2379.6 1246.56C2379.6 1246.56 2376.51 1250.79 2371.11 1253.26Z" fill="#F99746"/>
<path d="M2199.24 1298.53L2181.24 1316.51L2180.99 1316.36L2153.99 1299.41C2153.99 1299.41 2167.96 1303.93 2169.85 1303.4C2171.63 1302.9 2191.16 1296.19 2195.76 1296.75C2196.04 1296.79 2196.27 1296.85 2196.43 1296.94C2199.24 1298.53 2199.24 1298.53 2199.24 1298.53Z" fill="#4A75CB"/>
<path d="M2180.43 1321.39C2179.71 1321.24 2177.57 1320.73 2174.65 1319.98C2166.26 1317.84 2151.48 1313.72 2145.64 1310.34C2140.4 1307.31 2112.73 1291.22 2093.67 1279.92C2101.27 1275.85 2108.77 1275.28 2115.06 1276.07C2137.32 1289.13 2166.4 1306.29 2169.96 1308.79C2175.81 1312.91 2183.79 1317.89 2183.79 1317.89C2183.79 1317.89 2183.76 1318.11 2183.67 1318.45C2183.4 1319.56 2182.57 1321.85 2180.43 1321.39Z" fill="#E58638"/>
<path d="M2180.43 1321.39C2179.71 1321.24 2177.57 1320.73 2174.65 1319.98C2166.26 1317.84 2151.48 1313.72 2145.64 1310.34C2140.4 1307.31 2112.73 1291.22 2093.67 1279.92C2084.1 1274.25 2076.69 1269.78 2075.39 1268.78C2071.5 1265.79 2064.01 1258.31 2065.86 1256.9C2067.7 1255.49 2071.29 1256.91 2072.64 1256.7C2072.66 1256.7 2072.68 1256.7 2072.7 1256.69C2073.01 1256.64 2073.54 1256.56 2074.26 1256.52C2076.83 1256.37 2081.93 1256.72 2089.19 1260.91C2089.19 1260.91 2100.71 1267.64 2115.07 1276.07C2137.32 1289.13 2166.4 1306.29 2169.96 1308.79C2175.81 1312.91 2183.79 1317.89 2183.79 1317.89C2183.79 1317.89 2183.76 1318.11 2183.68 1318.45C2183.4 1319.56 2182.57 1321.85 2180.43 1321.39Z" fill="#739AF0"/>
<path d="M2180.43 1321.39C2179.71 1321.24 2177.57 1320.73 2174.65 1319.98C2175.03 1316.66 2172.7 1314.01 2172.7 1314.01L2183.68 1318.45C2183.4 1319.56 2182.57 1321.85 2180.43 1321.39Z" fill="#4A75CB"/>
<g opacity="0.5">
<path d="M2156.66 1307.26C2156.49 1307.16 2156.43 1306.94 2156.53 1306.77L2156.73 1306.44C2156.83 1306.27 2157.05 1306.21 2157.22 1306.31C2157.39 1306.41 2157.45 1306.63 2157.35 1306.8L2157.15 1307.13C2157.05 1307.3 2156.83 1307.36 2156.66 1307.26Z" fill="#4A75CB"/>
<path d="M2155.06 1306.31C2154.88 1306.21 2154.83 1305.99 2154.93 1305.82L2155.12 1305.49C2155.22 1305.32 2155.45 1305.26 2155.62 1305.36C2155.79 1305.46 2155.85 1305.69 2155.74 1305.86L2155.55 1306.19C2155.45 1306.36 2155.23 1306.41 2155.06 1306.31Z" fill="#4A75CB"/>
<path d="M2153.45 1305.36C2153.28 1305.26 2153.22 1305.04 2153.32 1304.87L2153.52 1304.54C2153.62 1304.37 2153.84 1304.31 2154.01 1304.41C2154.18 1304.51 2154.24 1304.74 2154.14 1304.91L2153.95 1305.24C2153.85 1305.41 2153.62 1305.47 2153.45 1305.36Z" fill="#4A75CB"/>
<path d="M2151.85 1304.42C2151.68 1304.32 2151.62 1304.09 2151.72 1303.92L2151.92 1303.59C2152.02 1303.42 2152.24 1303.36 2152.41 1303.47C2152.58 1303.57 2152.64 1303.79 2152.54 1303.96L2152.34 1304.29C2152.24 1304.46 2152.02 1304.52 2151.85 1304.42Z" fill="#4A75CB"/>
<path d="M2150.25 1303.47C2150.08 1303.37 2150.02 1303.15 2150.12 1302.97L2150.31 1302.65C2150.41 1302.47 2150.64 1302.42 2150.81 1302.52C2150.98 1302.62 2151.04 1302.84 2150.94 1303.01L2150.74 1303.34C2150.64 1303.51 2150.42 1303.57 2150.25 1303.47Z" fill="#4A75CB"/>
<path d="M2148.64 1302.52C2148.47 1302.42 2148.41 1302.2 2148.52 1302.03L2148.71 1301.7C2148.81 1301.53 2149.03 1301.47 2149.2 1301.57C2149.38 1301.67 2149.43 1301.89 2149.33 1302.07L2149.14 1302.39C2149.04 1302.56 2148.81 1302.62 2148.64 1302.52Z" fill="#4A75CB"/>
<path d="M2147.04 1301.57C2146.87 1301.47 2146.81 1301.25 2146.91 1301.08L2147.11 1300.75C2147.21 1300.58 2147.43 1300.52 2147.6 1300.62C2147.77 1300.72 2147.83 1300.95 2147.73 1301.12L2147.53 1301.45C2147.43 1301.62 2147.21 1301.67 2147.04 1301.57Z" fill="#4A75CB"/>
<path d="M2145.44 1300.63C2145.27 1300.52 2145.21 1300.3 2145.31 1300.13L2145.5 1299.8C2145.61 1299.63 2145.83 1299.57 2146 1299.68C2146.17 1299.78 2146.23 1300 2146.13 1300.17L2145.93 1300.5C2145.83 1300.67 2145.61 1300.73 2145.44 1300.63Z" fill="#4A75CB"/>
<path d="M2143.83 1299.68C2143.66 1299.58 2143.6 1299.36 2143.71 1299.18L2143.9 1298.86C2144 1298.68 2144.22 1298.63 2144.39 1298.73C2144.57 1298.83 2144.62 1299.05 2144.52 1299.22L2144.33 1299.55C2144.23 1299.72 2144 1299.78 2143.83 1299.68Z" fill="#4A75CB"/>
<path d="M2124.94 1288.51C2124.77 1288.41 2124.71 1288.19 2124.81 1288.02L2125.01 1287.69C2125.11 1287.52 2125.33 1287.46 2125.5 1287.56C2125.67 1287.66 2125.73 1287.89 2125.63 1288.06L2125.44 1288.39C2125.34 1288.56 2125.11 1288.61 2124.94 1288.51Z" fill="#4A75CB"/>
<path d="M2123.34 1287.56C2123.17 1287.46 2123.11 1287.24 2123.21 1287.07L2123.41 1286.74C2123.51 1286.57 2123.73 1286.51 2123.9 1286.61C2124.07 1286.71 2124.13 1286.94 2124.03 1287.11L2123.83 1287.44C2123.73 1287.61 2123.51 1287.67 2123.34 1287.56Z" fill="#4A75CB"/>
<path d="M2121.74 1286.62C2121.57 1286.51 2121.51 1286.29 2121.61 1286.12L2121.8 1285.79C2121.9 1285.62 2122.13 1285.56 2122.3 1285.67C2122.47 1285.77 2122.53 1285.99 2122.42 1286.16L2122.23 1286.49C2122.13 1286.66 2121.91 1286.72 2121.74 1286.62Z" fill="#4A75CB"/>
<path d="M2120.13 1285.67C2119.96 1285.57 2119.9 1285.35 2120.01 1285.17L2120.2 1284.85C2120.3 1284.67 2120.52 1284.62 2120.69 1284.72C2120.87 1284.82 2120.92 1285.04 2120.82 1285.21L2120.63 1285.54C2120.53 1285.71 2120.3 1285.77 2120.13 1285.67Z" fill="#4A75CB"/>
<path d="M2118.53 1284.72C2118.36 1284.62 2118.3 1284.4 2118.4 1284.23L2118.6 1283.9C2118.7 1283.73 2118.92 1283.67 2119.09 1283.77C2119.26 1283.87 2119.32 1284.09 2119.22 1284.27L2119.02 1284.59C2118.92 1284.77 2118.7 1284.82 2118.53 1284.72Z" fill="#4A75CB"/>
<path d="M2116.93 1283.77C2116.76 1283.67 2116.7 1283.45 2116.8 1283.28L2116.99 1282.95C2117.1 1282.78 2117.32 1282.72 2117.49 1282.82C2117.66 1282.92 2117.72 1283.15 2117.61 1283.32L2117.42 1283.65C2117.32 1283.82 2117.1 1283.87 2116.93 1283.77Z" fill="#4A75CB"/>
<path d="M2115.32 1282.83C2115.15 1282.72 2115.09 1282.5 2115.2 1282.33L2115.39 1282C2115.49 1281.83 2115.71 1281.77 2115.88 1281.88C2116.06 1281.98 2116.11 1282.2 2116.01 1282.37L2115.82 1282.7C2115.72 1282.87 2115.49 1282.93 2115.32 1282.83Z" fill="#4A75CB"/>
<path d="M2113.72 1281.88C2113.55 1281.78 2113.49 1281.56 2113.59 1281.38L2113.79 1281.06C2113.89 1280.88 2114.11 1280.83 2114.28 1280.93C2114.45 1281.03 2114.51 1281.25 2114.41 1281.42L2114.21 1281.75C2114.11 1281.92 2113.89 1281.98 2113.72 1281.88Z" fill="#4A75CB"/>
<path d="M2112.12 1280.93C2111.95 1280.83 2111.89 1280.61 2111.99 1280.44L2112.18 1280.11C2112.28 1279.94 2112.51 1279.88 2112.68 1279.98C2112.85 1280.08 2112.91 1280.3 2112.81 1280.48L2112.61 1280.8C2112.51 1280.98 2112.29 1281.03 2112.12 1280.93Z" fill="#4A75CB"/>
<path d="M2105.91 1277.26C2105.74 1277.16 2105.68 1276.94 2105.79 1276.77L2105.98 1276.44C2106.08 1276.27 2106.3 1276.21 2106.47 1276.31C2106.65 1276.41 2106.7 1276.64 2106.6 1276.81L2106.41 1277.14C2106.31 1277.31 2106.08 1277.36 2105.91 1277.26Z" fill="#4A75CB"/>
<path d="M2109.05 1279.12C2108.88 1279.01 2108.82 1278.79 2108.92 1278.62L2109.11 1278.29C2109.22 1278.12 2109.44 1278.06 2109.61 1278.17C2109.78 1278.27 2109.84 1278.49 2109.74 1278.66L2109.54 1278.99C2109.44 1279.16 2109.22 1279.22 2109.05 1279.12Z" fill="#4A75CB"/>
<path d="M2104.31 1276.32C2104.14 1276.21 2104.08 1275.99 2104.18 1275.82L2104.38 1275.49C2104.48 1275.32 2104.7 1275.26 2104.87 1275.37C2105.04 1275.47 2105.1 1275.69 2105 1275.86L2104.8 1276.19C2104.7 1276.36 2104.48 1276.42 2104.31 1276.32Z" fill="#4A75CB"/>
<path d="M2102.71 1275.37C2102.54 1275.27 2102.48 1275.04 2102.58 1274.87L2102.77 1274.54C2102.87 1274.37 2103.1 1274.32 2103.27 1274.42C2103.44 1274.52 2103.5 1274.74 2103.4 1274.91L2103.2 1275.24C2103.1 1275.41 2102.88 1275.47 2102.71 1275.37Z" fill="#4A75CB"/>
<path d="M2101.1 1274.42C2100.93 1274.32 2100.87 1274.1 2100.98 1273.93L2101.17 1273.6C2101.27 1273.43 2101.49 1273.37 2101.67 1273.47C2101.84 1273.57 2101.89 1273.79 2101.79 1273.96L2101.6 1274.29C2101.5 1274.46 2101.27 1274.52 2101.1 1274.42Z" fill="#4A75CB"/>
<path d="M2099.5 1273.47C2099.33 1273.37 2099.27 1273.15 2099.37 1272.98L2099.57 1272.65C2099.67 1272.48 2099.89 1272.42 2100.06 1272.52C2100.23 1272.62 2100.29 1272.85 2100.19 1273.02L2099.99 1273.35C2099.89 1273.52 2099.67 1273.57 2099.5 1273.47Z" fill="#4A75CB"/>
<path d="M2097.9 1272.52C2097.73 1272.42 2097.67 1272.2 2097.77 1272.03L2097.96 1271.7C2098.06 1271.53 2098.29 1271.47 2098.46 1271.57C2098.63 1271.68 2098.69 1271.9 2098.58 1272.07L2098.39 1272.4C2098.29 1272.57 2098.07 1272.63 2097.9 1272.52Z" fill="#4A75CB"/>
<path d="M2096.29 1271.58C2096.12 1271.48 2096.07 1271.25 2096.17 1271.08L2096.36 1270.75C2096.46 1270.58 2096.68 1270.53 2096.86 1270.63C2097.03 1270.73 2097.08 1270.95 2096.98 1271.12L2096.79 1271.45C2096.69 1271.62 2096.46 1271.68 2096.29 1271.58Z" fill="#4A75CB"/>
<path d="M2094.69 1270.63C2094.52 1270.53 2094.46 1270.31 2094.56 1270.14L2094.76 1269.81C2094.86 1269.64 2095.08 1269.58 2095.25 1269.68C2095.42 1269.78 2095.48 1270 2095.38 1270.17L2095.18 1270.5C2095.08 1270.67 2094.86 1270.73 2094.69 1270.63Z" fill="#4A75CB"/>
<path d="M2093.09 1269.68C2092.92 1269.58 2092.86 1269.36 2092.96 1269.19L2093.15 1268.86C2093.26 1268.69 2093.48 1268.63 2093.65 1268.73C2093.82 1268.83 2093.88 1269.06 2093.78 1269.23L2093.58 1269.56C2093.48 1269.73 2093.26 1269.78 2093.09 1269.68Z" fill="#4A75CB"/>
<path d="M2091.52 1268.75C2091.35 1268.65 2091.29 1268.43 2091.39 1268.26L2091.58 1267.93C2091.69 1267.76 2091.91 1267.7 2092.08 1267.8C2092.25 1267.9 2092.31 1268.13 2092.21 1268.3L2092.01 1268.63C2091.91 1268.8 2091.69 1268.85 2091.52 1268.75Z" fill="#4A75CB"/>
<path d="M2089.91 1267.81C2089.74 1267.7 2089.68 1267.48 2089.79 1267.31L2089.98 1266.98C2090.08 1266.81 2090.3 1266.75 2090.47 1266.86C2090.65 1266.96 2090.7 1267.18 2090.6 1267.35L2090.41 1267.68C2090.31 1267.85 2090.08 1267.91 2089.91 1267.81Z" fill="#4A75CB"/>
<path d="M2088.31 1266.86C2088.14 1266.76 2088.08 1266.53 2088.18 1266.36L2088.38 1266.03C2088.48 1265.86 2088.7 1265.81 2088.87 1265.91C2089.04 1266.01 2089.1 1266.23 2089 1266.4L2088.8 1266.73C2088.7 1266.9 2088.48 1266.96 2088.31 1266.86Z" fill="#4A75CB"/>
<path d="M2075.99 1258.59C2075.84 1258.78 2075.58 1258.85 2075.37 1258.77C2075.31 1258.75 2075.26 1258.72 2075.21 1258.68L2072.7 1256.69C2073.01 1256.65 2073.54 1256.56 2074.26 1256.52L2075.9 1257.82C2076.13 1258.01 2076.18 1258.36 2075.99 1258.59Z" fill="#4A75CB"/>
<path d="M2116.34 1285.32L2115.85 1285.03C2115.53 1284.84 2115.42 1284.42 2115.61 1284.1L2116.81 1282.07C2117 1281.74 2117.42 1281.64 2117.74 1281.83L2118.23 1282.11C2118.55 1282.3 2118.66 1282.72 2118.47 1283.05L2117.27 1285.08C2117.08 1285.4 2116.66 1285.51 2116.34 1285.32Z" fill="#4A75CB"/>
<path d="M2119.52 1287.2L2119.03 1286.91C2118.71 1286.72 2118.6 1286.3 2118.79 1285.98L2120 1283.95C2120.18 1283.63 2120.6 1283.52 2120.93 1283.71L2121.41 1284C2121.73 1284.19 2121.84 1284.61 2121.65 1284.93L2120.45 1286.96C2120.26 1287.28 2119.84 1287.39 2119.52 1287.2Z" fill="#4A75CB"/>
<path d="M2139.12 1296.89C2138.95 1296.79 2138.89 1296.57 2138.99 1296.4L2139.19 1296.07C2139.29 1295.9 2139.51 1295.84 2139.68 1295.94C2139.85 1296.04 2139.91 1296.27 2139.81 1296.44L2139.61 1296.77C2139.51 1296.94 2139.29 1296.99 2139.12 1296.89Z" fill="#4A75CB"/>
<path d="M2137.52 1295.94C2137.35 1295.84 2137.29 1295.62 2137.39 1295.45L2137.58 1295.12C2137.69 1294.95 2137.91 1294.89 2138.08 1294.99C2138.25 1295.1 2138.31 1295.32 2138.21 1295.49L2138.01 1295.82C2137.91 1295.99 2137.69 1296.05 2137.52 1295.94Z" fill="#4A75CB"/>
<path d="M2135.91 1295C2135.74 1294.9 2135.69 1294.67 2135.79 1294.5L2135.98 1294.17C2136.08 1294 2136.3 1293.95 2136.48 1294.05C2136.65 1294.15 2136.7 1294.37 2136.6 1294.54L2136.41 1294.87C2136.31 1295.04 2136.09 1295.1 2135.91 1295Z" fill="#4A75CB"/>
<path d="M2134.31 1294.05C2134.14 1293.95 2134.08 1293.73 2134.18 1293.56L2134.38 1293.23C2134.48 1293.06 2134.7 1293 2134.87 1293.1C2135.04 1293.2 2135.1 1293.42 2135 1293.59L2134.81 1293.92C2134.7 1294.09 2134.48 1294.15 2134.31 1294.05Z" fill="#4A75CB"/>
<path d="M2132.71 1293.1C2132.54 1293 2132.48 1292.78 2132.58 1292.61L2132.77 1292.28C2132.88 1292.11 2133.1 1292.05 2133.27 1292.15C2133.44 1292.25 2133.5 1292.48 2133.4 1292.65L2133.2 1292.98C2133.1 1293.15 2132.88 1293.2 2132.71 1293.1Z" fill="#4A75CB"/>
<path d="M2131.1 1292.15C2130.93 1292.05 2130.88 1291.83 2130.98 1291.66L2131.17 1291.33C2131.27 1291.16 2131.5 1291.1 2131.67 1291.2C2131.84 1291.31 2131.89 1291.53 2131.79 1291.7L2131.6 1292.03C2131.5 1292.2 2131.27 1292.26 2131.1 1292.15Z" fill="#4A75CB"/>
<path d="M2129.5 1291.21C2129.33 1291.11 2129.27 1290.88 2129.37 1290.71L2129.57 1290.38C2129.67 1290.21 2129.89 1290.15 2130.06 1290.26C2130.23 1290.36 2130.29 1290.58 2130.19 1290.75L2130 1291.08C2129.9 1291.25 2129.67 1291.31 2129.5 1291.21Z" fill="#4A75CB"/>
<path d="M2127.9 1290.26C2127.73 1290.16 2127.67 1289.94 2127.77 1289.76L2127.96 1289.44C2128.07 1289.26 2128.29 1289.21 2128.46 1289.31C2128.63 1289.41 2128.69 1289.63 2128.59 1289.8L2128.39 1290.13C2128.29 1290.3 2128.07 1290.36 2127.9 1290.26Z" fill="#4A75CB"/>
<path d="M2126.3 1289.31C2126.12 1289.21 2126.07 1288.99 2126.17 1288.82L2126.36 1288.49C2126.46 1288.32 2126.69 1288.26 2126.86 1288.36C2127.03 1288.46 2127.09 1288.68 2126.98 1288.86L2126.79 1289.18C2126.69 1289.35 2126.47 1289.41 2126.3 1289.31Z" fill="#4A75CB"/>
</g>
<path d="M2116.43 1293.8C2117.5 1294 2118.32 1292.84 2117.77 1291.89C2117.23 1290.94 2116.4 1289.84 2115.22 1289.16C2112.79 1287.76 2112.07 1292.2 2112.86 1292.7C2113.32 1292.99 2114.99 1293.54 2116.43 1293.8Z" fill="#2B478B"/>
<path d="M2116.19 1288.52L2113.21 1293.56C2113.21 1293.56 2110.24 1292.96 2106.18 1290.7C2103.7 1289.31 2102.21 1288.02 2101.42 1287.24C2100.92 1286.74 2100.71 1286.44 2100.71 1286.44L2103.83 1281.15C2104.13 1281.11 2104.51 1281.17 2104.94 1281.29C2108.49 1282.3 2115.78 1288.04 2115.78 1288.04L2116.19 1288.52Z" fill="#2B478B"/>
<path d="M2104.94 1281.29L2101.42 1287.24C2100.92 1286.74 2100.71 1286.44 2100.71 1286.44L2103.83 1281.15C2104.13 1281.11 2104.51 1281.17 2104.94 1281.29Z" fill="#4A75CB"/>
<path d="M2172.83 1313.12C2172.98 1313.07 2183.29 1315.39 2188.89 1319.5L2181.8 1319.39L2172.7 1314.01C2172.7 1314.01 2172.1 1313.39 2172.83 1313.12Z" fill="#2B478B"/>
<path d="M2151.8 1292.6C2151.8 1292.6 2145.42 1296.98 2144.32 1297.58C2143.21 1298.17 2141.43 1298.01 2141.43 1298.01L2141.42 1298.01L2130.45 1296.16C2130.45 1296.16 2118.76 1289.33 2116.24 1287.78C2116.02 1287.64 2115.86 1287.54 2115.8 1287.5C2115.07 1286.97 2114.82 1286.49 2115.07 1286.34C2115.32 1286.2 2134.55 1293.85 2136.67 1294.71C2136.69 1294.71 2136.71 1294.72 2136.74 1294.73C2138.81 1295.56 2139.22 1295.13 2139.22 1295.13L2149.82 1292.22C2149.97 1292.14 2150.18 1292.13 2150.39 1292.15C2151.03 1292.22 2151.8 1292.6 2151.8 1292.6Z" fill="#4A75CB"/>
<path d="M2150.39 1292.15C2147.49 1293.04 2139.48 1295.49 2138.78 1295.58C2138.03 1295.67 2120.54 1289.33 2116.25 1287.78C2116.02 1287.64 2115.86 1287.54 2115.8 1287.5C2115.07 1286.97 2114.82 1286.49 2115.07 1286.34C2115.32 1286.2 2134.55 1293.85 2136.67 1294.71C2138.8 1295.57 2139.22 1295.13 2139.22 1295.13L2149.82 1292.22C2149.97 1292.14 2150.18 1292.13 2150.39 1292.15Z" fill="#4A75CB"/>
<path d="M2151.8 1292.6C2151.8 1292.6 2145.42 1296.98 2144.32 1297.58C2143.21 1298.17 2141.43 1298.01 2141.43 1298.01L2141.42 1298.01C2139.34 1296.91 2137.74 1295.64 2136.73 1294.73C2138.8 1295.56 2139.22 1295.13 2139.22 1295.13L2149.82 1292.22C2149.97 1292.14 2150.17 1292.13 2150.39 1292.15C2151.03 1292.22 2151.8 1292.6 2151.8 1292.6Z" fill="#4A75CB"/>
<path d="M2181.49 1316.62L2153.99 1299.41C2153.99 1299.41 2168.19 1304.05 2170.1 1303.53C2171.9 1303.05 2191.64 1296.45 2196.31 1297.05C2191.01 1299.19 2178.57 1304.5 2177.71 1307.44C2176.89 1310.24 2179.91 1314.6 2181.49 1316.62Z" fill="#739AF0"/>
<path d="M1952.82 1309.3C1952.93 1303.52 1957.41 1293.65 1948.55 1284.28C1942.28 1277.55 1936.74 1269.99 1934.1 1266.29C1933.14 1264.79 1922.42 1273.61 1922.65 1273.97C1924.41 1276.58 1932.5 1289.89 1933.68 1297.31C1934.96 1305.68 1949.29 1314.84 1949.29 1314.84C1949.29 1314.84 1952.79 1315.05 1952.82 1309.3Z" fill="#F4A671"/>
<path d="M2020.13 1310.45C2006.03 1311.18 1996.4 1289.31 1990.46 1289.02C1989.48 1288.98 1987.63 1289.25 1985.25 1289.6C1991.1 1299.19 1995.57 1310.46 1998.04 1322.86C2006.5 1365.05 1988.69 1404.2 1958.27 1410.29C1928.69 1416.21 1898.07 1388.67 1888.65 1348.32C1888.38 1347.19 1888.14 1346.05 1887.91 1344.9C1885.44 1332.59 1885.22 1320.55 1886.88 1309.51C1886.88 1309.48 1886.89 1309.44 1886.9 1309.41C1885.62 1309.75 1884.63 1310.04 1884.05 1310.32C1878.68 1312.87 1878.21 1336.76 1864.91 1341.51C1851.62 1346.25 1842.66 1320.78 1858.49 1300.93C1868.14 1288.83 1885.25 1282.99 1897.12 1280.27C1899.6 1276.25 1902.43 1272.63 1905.6 1269.5C1905.71 1269.39 1905.83 1269.27 1905.95 1269.15C1897.22 1264.43 1890.58 1256.01 1888.48 1245.52C1887.77 1241.97 1887.64 1238.43 1888 1235.01C1887.97 1235.01 1887.95 1234.99 1887.92 1234.99C1881.91 1233.17 1877.08 1228.2 1875.76 1221.62C1873.87 1212.12 1880.03 1202.87 1889.53 1200.97C1896.41 1199.6 1903.15 1202.45 1907.08 1207.73C1909.72 1206.43 1912.57 1205.44 1915.6 1204.84C1918.28 1204.3 1920.95 1204.09 1923.57 1204.18C1925.23 1197.91 1930.31 1192.81 1937.1 1191.45C1946.6 1189.55 1955.84 1195.71 1957.75 1205.22C1958.99 1211.45 1956.77 1217.58 1952.41 1221.59C1954.2 1224.73 1955.53 1228.21 1956.28 1231.95C1958.26 1241.85 1955.8 1251.61 1950.27 1259.16C1955.24 1260.87 1960.05 1263.43 1964.62 1266.72C1976.53 1264.44 1996.01 1262.59 2010.44 1270.52C2032.69 1282.74 2034.22 1309.7 2020.13 1310.45Z" fill="#2B478B"/>
<path d="M1888.65 1348.32C1888.38 1347.19 1888.14 1346.05 1887.91 1344.9C1885.44 1332.59 1885.22 1320.55 1886.88 1309.51C1888.63 1307.47 1890.95 1305.96 1893.59 1307.21C1899.41 1309.97 1898.49 1337.85 1907.38 1344.29C1913.96 1349.06 1897.49 1349.11 1888.65 1348.32Z" fill="#233862"/>
<path d="M1922.45 1265.07C1919.11 1266.31 1911.98 1268.53 1905.59 1269.51C1905.71 1269.39 1905.82 1269.27 1905.95 1269.15C1897.22 1264.43 1890.58 1256.01 1888.48 1245.52C1887.77 1241.97 1887.63 1238.43 1888 1235.01C1887.97 1235.01 1887.95 1235 1887.92 1234.99C1888.27 1234.85 1888.71 1235.06 1889.29 1235.89C1891.51 1239.03 1903.5 1264.46 1922.45 1261.55C1922.45 1261.55 1927.4 1263.24 1922.45 1265.07Z" fill="#233862"/>
<path d="M1931.43 1206.39C1931.43 1206.39 1935.88 1198.12 1942.46 1200.26C1949.05 1202.41 1949.97 1211.91 1945.68 1214.51C1945.68 1214.51 1939.29 1208.6 1931.43 1206.39Z" fill="#233862"/>
<path d="M1900.48 1211.23C1900.48 1211.23 1890.98 1206.85 1886.69 1211.91C1882.4 1216.97 1890.98 1223.42 1890.98 1223.42C1890.98 1223.42 1895.12 1214.84 1900.48 1211.23Z" fill="#233862"/>
<path d="M1824.19 1364.29C1817.48 1358.25 1823 1344.01 1820.44 1341.2C1820.02 1340.74 1819.06 1340.03 1817.83 1339.11C1816.14 1346.09 1813.07 1353.21 1808.6 1359.93C1793.37 1382.83 1767.64 1392.49 1751.14 1381.51C1735.09 1370.83 1733.67 1344.56 1747.63 1322.06C1748.02 1321.43 1748.42 1320.8 1748.84 1320.18C1753.28 1313.5 1758.61 1307.95 1764.35 1303.71C1764.37 1303.69 1764.39 1303.68 1764.4 1303.67C1763.67 1303.24 1763.09 1302.93 1762.71 1302.79C1759.12 1301.52 1748.13 1312.12 1739.97 1308.26C1731.82 1304.41 1739.26 1288.84 1755.38 1287.01C1765.21 1285.89 1775.59 1290.97 1782.18 1295.11C1785.12 1294.4 1788.03 1294.05 1790.87 1294.06C1790.98 1294.06 1791.09 1294.06 1791.19 1294.06C1789.38 1287.99 1790.18 1281.18 1793.97 1275.49C1795.25 1273.56 1796.78 1271.9 1798.49 1270.52C1798.48 1270.51 1798.47 1270.49 1798.46 1270.47C1796.57 1266.94 1796.63 1262.51 1799 1258.94C1802.43 1253.79 1809.39 1252.38 1814.55 1255.82C1818.28 1258.3 1820.05 1262.63 1819.44 1266.79C1821.22 1267.4 1822.95 1268.24 1824.59 1269.33C1826.05 1270.3 1827.35 1271.41 1828.5 1272.64C1832.08 1270.55 1836.68 1270.54 1840.36 1272.99C1845.52 1276.42 1846.92 1283.38 1843.49 1288.53C1841.24 1291.92 1837.46 1293.68 1833.68 1293.53C1833.07 1295.76 1832.1 1297.93 1830.75 1299.96C1827.18 1305.34 1821.66 1308.64 1815.75 1309.56C1817.22 1312.57 1818.25 1315.9 1818.82 1319.45C1825.24 1323.8 1834.89 1331.76 1837.83 1341.86C1842.38 1357.43 1830.9 1370.31 1824.19 1364.29Z" fill="#EFCDAF"/>
<path d="M1747.63 1322.06C1748.02 1321.43 1748.42 1320.8 1748.84 1320.18C1753.28 1313.5 1758.61 1307.95 1764.35 1303.71C1766.06 1303.58 1767.79 1303.94 1768.42 1305.69C1769.81 1309.57 1756.8 1321.77 1757.92 1328.69C1758.75 1333.82 1751.27 1326.41 1747.63 1322.06Z" fill="#E2B99A"/>
<path d="M1800.5 1299.67C1798.43 1298.72 1794.2 1296.5 1790.87 1294.06C1790.98 1294.06 1791.09 1294.06 1791.19 1294.06C1789.38 1287.99 1790.18 1281.18 1793.96 1275.49C1795.24 1273.56 1796.78 1271.9 1798.49 1270.52C1798.48 1270.51 1798.47 1270.49 1798.46 1270.47C1798.68 1270.57 1798.79 1270.87 1798.68 1271.5C1798.27 1273.92 1792.2 1290.84 1802.09 1298.07C1802.09 1298.07 1803.56 1301.07 1800.5 1299.67Z" fill="#E2B99A"/>
<path d="M1831.05 1277.19C1831.05 1277.19 1836.8 1275.45 1838.81 1279.39C1840.82 1283.34 1836.95 1288.05 1833.83 1287.29C1833.83 1287.29 1833.61 1281.74 1831.05 1277.19Z" fill="#FFF3E9"/>
<path d="M1814.87 1265.4C1814.87 1265.4 1812.55 1259.13 1808.33 1259.48C1804.1 1259.83 1805.07 1266.62 1805.07 1266.62C1805.07 1266.62 1810.82 1264.61 1814.87 1265.4Z" fill="#FFF3E9"/>
<path d="M1682.25 1360.82C1682.25 1360.82 1667.86 1342.26 1667.76 1327.11C1667.66 1311.97 1668.1 1306.94 1670.63 1307.62C1673.16 1308.31 1684.53 1316.75 1688.62 1325.16C1692.7 1333.57 1699.89 1355.58 1700.03 1358.57C1700.18 1361.57 1682.25 1360.82 1682.25 1360.82Z" fill="#AFCDFB"/>
<path d="M1683.04 1354.9C1683.04 1354.9 1673.84 1342.08 1673.49 1331.83C1673.14 1321.59 1673.32 1318.2 1674.88 1318.71C1676.45 1319.22 1683.6 1325.15 1686.27 1330.91C1688.94 1336.67 1693.77 1351.69 1693.92 1353.72C1694.07 1355.74 1683.04 1354.9 1683.04 1354.9Z" fill="#E57970"/>
<path d="M1705.48 1353.07C1705.48 1353.07 1698.58 1327.94 1701.3 1321.09C1704.03 1314.25 1718.17 1318.82 1719.77 1323.65C1721.37 1328.47 1720.39 1348.84 1720.39 1348.84L1705.48 1353.07Z" fill="#AFCDFB"/>
<path d="M1707.31 1324.17C1707.31 1324.17 1706.31 1344.09 1709.8 1351.85L1716.5 1349.95C1716.5 1349.95 1717.53 1327.7 1716.64 1326.2C1715.75 1324.7 1707.31 1324.17 1707.31 1324.17Z" fill="#E57970"/>
<path d="M1700.91 1322.52C1700.91 1322.52 1724.12 1337.88 1726 1336.26C1727.87 1334.64 1720.81 1319.05 1718.07 1317.65C1715.34 1316.25 1700.74 1313.37 1700.91 1322.52Z" fill="#AFCDFB"/>
<path d="M1658.22 1603.29H1974.65V1342.38H1658.22V1603.29Z" fill="#D3671E"/>
<path d="M2132.86 1342.38H1816.43V1603.3H2132.86V1342.38Z" fill="#F99746"/>
<path opacity="0.4" d="M2132.86 1342.38V1425.23L1816.43 1444.18V1342.38H2132.86Z" fill="#D86713"/>
<path d="M1816.44 1342.38L1879.05 1411.03H2191.29L2132.86 1342.38H1816.44Z" fill="#F99746"/>
<path d="M1658.4 1537.12H1708.55L1704.13 1523.02L1708.55 1512.94H1658.4V1537.12Z" fill="#F1A34F"/>
<path opacity="0.4" d="M2132.93 1581.87H2082.79L2087.21 1567.76L2082.79 1557.68H2132.93V1581.87Z" fill="#D86713"/>
<path d="M1816.44 1371.87L1749.73 1438.57H1658.4V1342.38H1816.44V1371.87Z" fill="#C95C12"/>
<path d="M1658.22 1342.38L1587.08 1411.03H1745.39L1816.44 1342.38H1658.22Z" fill="#F99746"/>
<path d="M1580.09 1534.56L1574.33 1535.68C1567.49 1537.01 1560.81 1532.5 1559.49 1525.66L1551.01 1482.04C1549.8 1475.8 1553.43 1469.71 1559.25 1467.67C1559.2 1467.52 1559.16 1467.37 1559.13 1467.21L1558.63 1464.64C1558.28 1462.87 1559.45 1461.13 1561.24 1460.78L1563.8 1460.28C1565.58 1459.94 1567.32 1461.11 1567.67 1462.89L1568.16 1465.46C1568.19 1465.57 1568.2 1465.69 1568.21 1465.82C1568.21 1465.84 1568.22 1465.86 1568.22 1465.88C1574.53 1465.38 1580.4 1469.73 1581.63 1476.08L1590.1 1519.72C1591.44 1526.55 1586.93 1533.23 1580.09 1534.56Z" fill="#CADDFF"/>
<path d="M1582.15 1478.68L1551.52 1484.62L1557.34 1514.61L1587.97 1508.66L1582.15 1478.68Z" fill="#2B478B"/>
<path d="M1568.21 1465.82L1559.25 1467.67C1559.2 1467.52 1559.16 1467.37 1559.13 1467.21L1558.63 1464.64C1558.28 1462.86 1559.46 1461.13 1561.24 1460.78L1563.8 1460.28C1565.58 1459.94 1567.32 1461.11 1567.67 1462.89L1568.16 1465.46C1568.19 1465.57 1568.2 1465.69 1568.21 1465.82Z" fill="#4A75CB"/>
<path d="M1735.35 1454.81C1735.35 1454.81 1731.56 1460.15 1728.08 1460.22C1724.6 1460.29 1719.31 1457.74 1719.31 1457.74C1719.31 1457.74 1716.12 1450.63 1718.29 1447.84C1718.29 1447.84 1720.46 1446.89 1722.73 1448.57C1723.12 1448.86 1723.51 1449.23 1723.9 1449.7C1724.46 1450.36 1725.07 1450.74 1725.73 1450.94C1728.21 1451.69 1731.16 1449.92 1732.26 1451.63C1732.9 1452.63 1733.6 1453.37 1734.18 1453.9C1734.86 1454.51 1735.35 1454.81 1735.35 1454.81Z" fill="#F9DDBF"/>
<path d="M1685.89 1493.33C1685.89 1493.33 1699.3 1460.84 1723.44 1460.22C1723.44 1460.22 1745.72 1462.7 1746.96 1493.33H1685.89Z" fill="#F9DDBF"/>
<path d="M1716.83 1461.21C1716.83 1461.21 1726.5 1463.36 1729.49 1462.1C1729.49 1462.1 1729.94 1458.05 1725.87 1458.62C1723.08 1459.01 1721.26 1457.67 1720.19 1457.13C1718.68 1456.36 1716.43 1459.52 1716.83 1461.21Z" fill="#F1A34F"/>
<path d="M1725.25 1455.11C1724.63 1455.58 1722.73 1448.57 1722.73 1448.57C1723.12 1448.86 1723.51 1449.23 1723.9 1449.7C1724.46 1450.36 1725.07 1450.74 1725.73 1450.94C1725.74 1451.14 1725.85 1454.66 1725.25 1455.11Z" fill="#E5C1A1"/>
<path d="M1734.18 1453.9C1734.04 1453.98 1729.57 1456.66 1728.96 1456.66C1728.34 1456.66 1732.26 1451.63 1732.26 1451.63C1732.9 1452.63 1733.6 1453.38 1734.18 1453.9Z" fill="#E5C1A1"/>
<path d="M1698.99 1484.25C1698.75 1484.04 1708.48 1469.92 1711.17 1469.81C1713.85 1469.71 1719.87 1472.91 1724.23 1473.32C1728.6 1473.73 1732.83 1472.5 1733.65 1475.08C1734.48 1477.65 1736.75 1486.8 1735.35 1488.26C1733.96 1489.72 1704.35 1488.83 1698.99 1484.25Z" fill="#E5C1A1"/>
<path d="M1585.98 1506.22C1585.61 1506.95 1585.08 1507.53 1584.45 1507.96C1584.09 1508.19 1583.71 1508.38 1583.3 1508.51C1582.18 1508.88 1580.92 1508.82 1579.79 1508.24L1519.66 1477.7C1517.4 1476.55 1516.5 1473.76 1517.64 1471.51C1518.22 1470.38 1519.2 1469.59 1520.32 1469.22C1521.44 1468.85 1522.7 1468.91 1523.83 1469.49L1583.96 1500.03C1586.22 1501.18 1587.13 1503.96 1585.98 1506.22Z" fill="#E57970"/>
<path d="M1539.6 1487.83L1535.81 1475.57L1526.13 1470.65L1531.97 1483.95L1539.6 1487.83Z" fill="#B64C41"/>
<path d="M1554.29 1495.29L1546.65 1491.41L1540.81 1478.11L1550.5 1483.03L1554.29 1495.29Z" fill="#B64C41"/>
<path d="M1568.96 1502.74L1561.32 1498.86L1555.48 1485.56L1565.17 1490.49L1568.96 1502.74Z" fill="#B64C41"/>
<path d="M1584.45 1507.96C1584.09 1508.19 1583.71 1508.38 1583.3 1508.51C1582.18 1508.88 1580.92 1508.82 1579.79 1508.24L1576.26 1506.45L1570.43 1493.16L1580.11 1498.08L1584.45 1507.96Z" fill="#B64C41"/>
<path d="M1517.65 1471.51C1517.65 1471.51 1516.43 1464.97 1511.12 1463.03C1511.12 1463.03 1511.74 1463.78 1509.19 1464.6C1506.63 1465.41 1507.38 1467.17 1506.47 1467.97C1506.47 1467.97 1510.15 1472.86 1517.65 1471.51Z" fill="#B64C41"/>
<path d="M1516.61 1472.37L1516.47 1472.3C1516.07 1472.09 1515.9 1471.59 1516.11 1471.18L1516.86 1469.71C1517.06 1469.3 1517.57 1469.14 1517.97 1469.34L1518.12 1469.42C1518.52 1469.62 1518.69 1470.12 1518.48 1470.53L1517.73 1472C1517.52 1472.41 1517.02 1472.58 1516.61 1472.37Z" fill="#4A75CB"/>
<path d="M1585.73 1506.1C1585.73 1506.1 1591.73 1503.22 1596.43 1506.37C1596.43 1506.37 1595.45 1506.31 1596.3 1508.85C1597.15 1511.39 1595.29 1511.83 1595.18 1513.04C1595.18 1513.04 1589.05 1512.95 1585.73 1506.1Z" fill="#B64C41"/>
<path d="M1585.64 1507.44L1585.79 1507.51C1586.19 1507.71 1586.69 1507.55 1586.9 1507.14L1587.65 1505.67C1587.86 1505.26 1587.69 1504.76 1587.29 1504.55L1587.14 1504.48C1586.74 1504.28 1586.23 1504.44 1586.03 1504.85L1585.28 1506.32C1585.07 1506.73 1585.23 1507.23 1585.64 1507.44Z" fill="#4A75CB"/>
<path d="M1663.81 1506.7C1663.11 1507.1 1662.34 1507.3 1661.58 1507.31C1661.15 1507.32 1660.73 1507.26 1660.32 1507.15C1659.18 1506.85 1658.16 1506.11 1657.52 1505.02L1623.75 1446.64C1622.48 1444.45 1623.23 1441.62 1625.43 1440.35C1626.52 1439.71 1627.78 1439.59 1628.92 1439.89C1630.06 1440.2 1631.09 1440.93 1631.72 1442.03L1665.5 1500.4C1666.76 1502.6 1666.01 1505.43 1663.81 1506.7Z" fill="#F1A34F"/>
<path d="M1634.95 1466L1638.45 1453.66L1633.01 1444.26L1630.66 1458.58L1634.95 1466Z" fill="#F9DDBF"/>
<path d="M1643.2 1480.25L1638.91 1472.84L1641.26 1458.51L1646.7 1467.91L1643.2 1480.25Z" fill="#F9DDBF"/>
<path d="M1651.44 1494.5L1647.15 1487.08L1649.5 1472.75L1654.94 1482.16L1651.44 1494.5Z" fill="#F9DDBF"/>
<path d="M1661.58 1507.31C1661.15 1507.32 1660.73 1507.26 1660.32 1507.15C1659.18 1506.85 1658.16 1506.11 1657.52 1505.02L1655.54 1501.59L1657.89 1487.26L1663.33 1496.66L1661.58 1507.31Z" fill="#F9DDBF"/>
<path d="M1625.43 1440.35C1625.43 1440.35 1627.97 1434.21 1624.58 1429.69C1624.58 1429.69 1624.69 1430.66 1622.1 1429.95C1619.52 1429.24 1619.18 1431.12 1617.98 1431.3C1617.98 1431.3 1618.41 1437.41 1625.43 1440.35Z" fill="#F1A34F"/>
<path d="M1624.1 1440.51L1624.02 1440.37C1623.79 1439.98 1623.92 1439.47 1624.32 1439.24L1625.75 1438.41C1626.15 1438.18 1626.66 1438.32 1626.88 1438.72L1626.96 1438.85C1627.19 1439.25 1627.06 1439.76 1626.66 1439.99L1625.23 1440.81C1624.83 1441.04 1624.32 1440.91 1624.1 1440.51Z" fill="#D3671E"/>
<path d="M1663.68 1506.45C1663.68 1506.45 1670.27 1507.31 1672.5 1512.51C1672.5 1512.51 1671.71 1511.92 1671.04 1514.52C1670.36 1517.11 1668.56 1516.47 1667.81 1517.42C1667.81 1517.42 1662.73 1514.01 1663.68 1506.45Z" fill="#F1A34F"/>
<path d="M1662.87 1507.53L1662.95 1507.66C1663.18 1508.06 1663.69 1508.2 1664.08 1507.97L1665.51 1507.14C1665.91 1506.91 1666.05 1506.4 1665.82 1506.01L1665.74 1505.87C1665.51 1505.47 1665 1505.34 1664.6 1505.56L1663.17 1506.39C1662.78 1506.62 1662.64 1507.13 1662.87 1507.53Z" fill="#D3671E"/>
<path d="M1554.51 1523.07C1553.79 1522.69 1553.22 1522.15 1552.8 1521.51C1552.57 1521.15 1552.39 1520.76 1552.27 1520.36C1551.92 1519.23 1552 1517.97 1552.59 1516.85L1584.1 1457.22C1585.29 1454.98 1588.08 1454.12 1590.32 1455.3C1591.44 1455.89 1592.22 1456.89 1592.57 1458.02C1592.92 1459.15 1592.84 1460.4 1592.24 1461.52L1560.73 1521.15C1559.55 1523.39 1556.75 1524.26 1554.51 1523.07Z" fill="#4A75CB"/>
<path d="M1573.65 1476.99L1585.97 1473.4L1591.04 1463.8L1577.66 1469.42L1573.65 1476.99Z" fill="#699FF0"/>
<path d="M1565.96 1491.56L1569.96 1483.98L1583.35 1478.36L1578.27 1487.96L1565.96 1491.56Z" fill="#699FF0"/>
<path d="M1558.27 1506.11L1562.27 1498.53L1575.66 1492.91L1570.58 1502.51L1558.27 1506.11Z" fill="#699FF0"/>
<path d="M1552.8 1521.51C1552.57 1521.15 1552.39 1520.76 1552.27 1520.36C1551.92 1519.23 1552 1517.97 1552.59 1516.85L1554.44 1513.35L1567.83 1507.73L1562.75 1517.33L1552.8 1521.51Z" fill="#699FF0"/>
<path d="M1590.32 1455.3C1590.32 1455.3 1596.88 1454.19 1598.91 1448.91C1598.91 1448.91 1598.14 1449.53 1597.37 1446.96C1596.6 1444.39 1594.82 1445.1 1594.04 1444.18C1594.04 1444.18 1589.09 1447.79 1590.32 1455.3Z" fill="#699FF0"/>
<path d="M1589.48 1454.26L1589.55 1454.12C1589.77 1453.71 1590.27 1453.56 1590.67 1453.77L1592.14 1454.54C1592.54 1454.76 1592.69 1455.26 1592.48 1455.66L1592.41 1455.8C1592.19 1456.21 1591.69 1456.36 1591.29 1456.15L1589.82 1455.38C1589.42 1455.17 1589.27 1454.66 1589.48 1454.26Z" fill="#4A75CB"/>
<path d="M1554.64 1522.82C1554.64 1522.82 1557.42 1528.86 1554.2 1533.51C1554.2 1533.51 1554.28 1532.53 1551.72 1533.34C1549.16 1534.15 1548.75 1532.28 1547.55 1532.16C1547.55 1532.16 1547.74 1526.03 1554.64 1522.82Z" fill="#4A75CB"/>
<path d="M1553.3 1522.71L1553.23 1522.85C1553.02 1523.26 1553.17 1523.76 1553.58 1523.97L1555.04 1524.75C1555.44 1524.96 1555.95 1524.8 1556.16 1524.4L1556.23 1524.26C1556.45 1523.86 1556.29 1523.35 1555.89 1523.14L1554.43 1522.37C1554.02 1522.15 1553.52 1522.31 1553.3 1522.71Z" fill="#4A75CB"/>
<path d="M1617.47 1468.87C1617.47 1468.87 1620.22 1472.75 1622.74 1472.8C1625.27 1472.86 1629.11 1471.01 1629.11 1471.01C1629.11 1471.01 1631.43 1465.84 1629.85 1463.82C1629.85 1463.82 1628.28 1463.13 1626.63 1464.35C1626.35 1464.56 1626.06 1464.82 1625.77 1465.16C1625.38 1465.65 1624.92 1465.92 1624.45 1466.06C1622.65 1466.61 1620.51 1465.32 1619.71 1466.57C1619.24 1467.29 1618.74 1467.83 1618.32 1468.21C1617.82 1468.66 1617.47 1468.87 1617.47 1468.87Z" fill="#B64C41"/>
<path d="M1653.36 1496.83C1653.36 1496.83 1643.63 1473.25 1626.11 1472.8C1626.11 1472.8 1609.94 1474.6 1609.04 1496.83H1653.36Z" fill="#B64C41"/>
<path d="M1630.91 1473.52C1630.91 1473.52 1623.89 1475.08 1621.72 1474.17C1621.72 1474.17 1621.4 1471.23 1624.35 1471.64C1626.38 1471.92 1627.69 1470.95 1628.47 1470.56C1629.57 1470 1631.2 1472.29 1630.91 1473.52Z" fill="#963333"/>
<path d="M1624.8 1469.1C1625.25 1469.43 1626.63 1464.35 1626.63 1464.35C1626.35 1464.56 1626.06 1464.83 1625.78 1465.17C1625.38 1465.65 1624.93 1465.92 1624.45 1466.06C1624.45 1466.21 1624.37 1468.77 1624.8 1469.1Z" fill="#963333"/>
<path d="M1618.32 1468.22C1618.42 1468.27 1621.67 1470.22 1622.11 1470.22C1622.55 1470.22 1619.71 1466.57 1619.71 1466.57C1619.25 1467.29 1618.74 1467.83 1618.32 1468.22Z" fill="#963333"/>
<path d="M1643.85 1490.24C1644.04 1490.09 1636.97 1479.84 1635.02 1479.76C1633.07 1479.69 1628.7 1482.01 1625.54 1482.31C1622.37 1482.61 1619.3 1481.71 1618.7 1483.58C1618.1 1485.45 1616.45 1492.09 1617.47 1493.15C1618.48 1494.21 1639.97 1493.56 1643.85 1490.24Z" fill="#963333"/>
<path d="M1687.24 1470.13L1687.24 1470.13C1684.34 1470.17 1682.89 1465.79 1682.89 1465.79L1654.67 1474.33C1655.93 1477.43 1653.89 1479.81 1653.89 1479.81C1653.89 1479.81 1649.01 1483.07 1650.52 1488.08L1656.77 1508.72C1657.88 1512.37 1661.77 1514.46 1665.43 1513.35L1695.2 1504.34C1698.86 1503.23 1700.94 1499.34 1699.83 1495.68L1693.59 1475.05C1692.72 1472.16 1690.1 1470.26 1687.24 1470.13Z" fill="#CADDFF"/>
<path d="M1651.85 1473.42L1653.54 1479.02C1654.16 1481.04 1661.89 1480.5 1670.81 1477.79C1679.73 1475.09 1686.47 1471.26 1685.85 1469.24L1684.16 1463.64L1651.85 1473.42Z" fill="#963333"/>
<path d="M1684.16 1463.64C1684.77 1465.66 1678.04 1469.49 1669.11 1472.19C1660.19 1474.9 1652.46 1475.44 1651.85 1473.42C1651.24 1471.4 1657.97 1467.57 1666.89 1464.86C1675.82 1462.16 1683.55 1461.61 1684.16 1463.64Z" fill="#B64C41"/>
<path d="M1611.52 1481.34C1609.5 1480.36 1610.01 1476.82 1610.01 1476.82L1587.44 1472.96C1587.25 1475.54 1585 1476.49 1585 1476.49C1585 1476.49 1580.48 1477.06 1579.8 1481.07L1576.98 1497.56C1576.48 1500.48 1578.46 1503.28 1581.38 1503.78L1605.18 1507.85C1608.1 1508.35 1610.9 1506.37 1611.4 1503.45L1614.22 1486.96C1614.61 1484.65 1613.46 1482.42 1611.52 1481.34Z" fill="#B7D2F9"/>
<path d="M1585.81 1471.34L1585.04 1475.82C1584.76 1477.44 1590.32 1479.74 1597.45 1480.96C1604.58 1482.18 1610.59 1481.86 1610.87 1480.24L1611.63 1475.76L1585.81 1471.34Z" fill="#C95C12"/>
<path d="M1611.63 1475.76C1611.35 1477.38 1605.35 1477.7 1598.22 1476.48C1591.09 1475.26 1585.53 1472.96 1585.81 1471.34C1586.08 1469.73 1592.09 1469.4 1599.22 1470.62C1606.35 1471.84 1611.91 1474.14 1611.63 1475.76Z" fill="#F1A34F"/>
<path d="M1539.62 1603.3H1679.41V1488.03H1539.62V1603.3Z" fill="#D3671E"/>
<path d="M1609.52 1603.3H1749.3V1488.03H1609.52V1603.3Z" fill="#F99746"/>
<path d="M1609.52 1488.03H1749.66V1528.18L1609.52 1545.66V1488.03Z" fill="#ED7D2B"/>
<path d="M1609.52 1488.03L1637.18 1518.36H1775.11L1749.3 1488.03H1609.52Z" fill="#F99746"/>
<path d="M1539.7 1574.06H1561.85L1559.9 1567.83L1561.85 1563.38H1539.7V1574.06Z" fill="#F99746"/>
<path d="M1609.52 1501.06L1580.05 1530.53H1539.7V1488.03H1609.52V1501.06Z" fill="#C95C12"/>
<path d="M1539.62 1488.03L1508.19 1518.36H1578.13L1609.52 1488.03H1539.62Z" fill="#F99746"/>
<path d="M1368.07 961.164C1227.05 935.084 1144.03 1101.87 1129.77 1122.52C1115.5 1101.87 1032.49 935.083 891.462 961.164C735.922 989.929 669.035 1136.64 727.801 1279.84C775.681 1396.52 1085.05 1583.38 1127.56 1605.62V1607.91C1127.56 1607.91 1128.32 1607.52 1129.77 1606.77C1131.21 1607.52 1131.97 1607.91 1131.97 1607.91V1605.62C1174.48 1583.38 1478.95 1394.39 1531.73 1279.84C1590.64 1151.99 1523.61 989.929 1368.07 961.164Z" fill="#F77D48"/>
<path d="M933.977 1292.5C931.442 1298.7 914.635 1297.01 901.678 1288.18C888.815 1279.45 870.317 1271.37 859.802 1264.05C851.915 1258.7 843.746 1238.42 837.549 1225.93C835.953 1222.74 834.45 1220.01 833.23 1218.23C825.625 1215.98 826.094 1208.09 819.052 1205.55C810.695 1202.64 813.231 1197.95 813.231 1197.95C813.231 1197.95 819.24 1195.42 826.564 1196.17C829.193 1196.54 834.451 1204.15 837.549 1208.94C840.46 1211.1 843.934 1214.01 847.69 1217.39C857.831 1226.4 869.286 1238.04 873.886 1243.77C879.238 1250.44 913.885 1257.76 923.274 1265.46C939.986 1279.17 933.977 1292.5 933.977 1292.5Z" fill="#ED985F"/>
<path d="M873.986 1387.87L910.315 1589.54L922.898 1590.37C922.898 1590.37 932.788 1502.54 924.315 1472.22C915.843 1441.91 938.933 1403.57 932.446 1377.27C925.959 1350.97 873.986 1387.87 873.986 1387.87Z" fill="#ED985F"/>
<path d="M915.781 1276.46L884.06 1271.3C882.55 1266.15 882.118 1259.07 882.096 1252.81C882.075 1245.03 882.692 1238.52 882.692 1238.52L908.289 1236.06L919.659 1234.96C913.413 1246.86 915.781 1276.46 915.781 1276.46Z" fill="#FFB27D"/>
<path d="M916.724 1241.21C916.724 1241.21 899.775 1255.66 882.096 1252.81C882.075 1245.03 882.692 1238.52 882.692 1238.52L908.289 1236.06L916.724 1241.21Z" fill="#ED985F"/>
<path d="M898.174 1437.55C891.752 1455.41 885.982 1473.61 888.874 1488.53C889.725 1492.94 890.256 1497.5 890.512 1502.15C890.746 1506.42 890.76 1510.76 890.583 1515.11C889.172 1550.27 875.782 1586.11 873.712 1591.46C873.535 1591.91 873.443 1592.14 873.443 1592.14L862.307 1590.96L857.515 1379.35C857.515 1379.35 908.368 1358.81 911.203 1385.75C912.67 1399.67 905.05 1418.42 898.174 1437.55Z" fill="#FFB27D"/>
<path d="M928.569 1449.54C928.569 1449.54 925.323 1450.01 920.495 1450.53C911.436 1451.53 896.833 1452.7 887.81 1451.31C883.507 1450.65 881.097 1443.55 879.963 1434.01C877.446 1412.86 881.203 1379.77 884.62 1378.3C889.582 1376.17 933.51 1377.97 933.51 1377.97C933.51 1377.97 943.101 1401.69 928.569 1449.54Z" fill="#35488B"/>
<path d="M921.205 1450.53C912.146 1451.53 897.543 1452.7 888.519 1451.31C884.216 1450.65 881.806 1443.55 880.672 1434.01L904.752 1394.6L922.828 1387.52C922.828 1387.52 930.086 1417.73 921.205 1450.53Z" fill="#2C3A64"/>
<path d="M857.329 1378.66C857.329 1378.66 847.877 1420.48 849.295 1453.56C849.295 1453.56 870.797 1457.81 892.772 1453.56C892.772 1453.56 929.16 1400.63 926.088 1383.62C923.016 1366.61 866.544 1373.22 857.329 1378.66Z" fill="#35488B"/>
<path d="M874.61 1233.43C874.61 1233.43 904.182 1256.87 918.5 1238.23C932.817 1219.59 946.276 1210.06 928 1194.31C909.724 1178.55 900.549 1182.81 894.256 1187.87C887.965 1192.93 867.287 1226.85 874.61 1233.43Z" fill="#FFB27D"/>
<path d="M948.997 1201.31C948.997 1201.31 947.355 1200.78 945.47 1201.35C945.468 1201.33 945.467 1201.31 945.467 1201.31C947.853 1196.9 946.064 1190.05 946.064 1190.05C946.661 1193.81 943.28 1198.22 943.28 1198.22C943.081 1184.31 908.679 1175.7 905.497 1174.82C902.315 1173.94 902.713 1168.64 902.713 1168.64C896.151 1169.96 889.191 1178.35 889.39 1186.52C889.589 1194.69 896.35 1210.36 900.725 1210.58C905.1 1210.81 903.111 1214.34 900.128 1219.19C897.145 1224.05 901.02 1237.24 906.389 1241.88C910.714 1245.61 912.986 1242.49 915.521 1241.11C916.15 1240.77 916.82 1240.51 917.518 1240.35C927.551 1238.11 937.989 1228.2 943.18 1215.55C945.243 1210.53 945.531 1205.49 945.524 1202.97C946.38 1202.47 948.032 1201.55 948.997 1201.31Z" fill="#2C3A64"/>
<path d="M924.604 1604.28H917.582C915.229 1603.95 913.492 1603.35 911.079 1603.07C907.415 1602.65 905.728 1603.98 905.393 1604.28C905.348 1604.32 905.328 1604.34 905.328 1604.34H875.494C874.743 1603.4 875.464 1601.2 876.17 1599.59C876.646 1598.49 877.682 1597.65 878.963 1597.33C882.127 1596.52 888.364 1595.8 894.075 1591.22C897.288 1588.66 909.593 1581.78 909.593 1581.78L909.658 1581.77C909.929 1581.77 911.215 1582.12 916.811 1586.3C919.705 1588.46 924.635 1583.26 924.635 1583.26C924.635 1583.26 925.561 1583.93 926.252 1585.19C926.808 1586.19 927.213 1587.56 926.893 1589.24C926.448 1591.62 927.884 1596.04 929.031 1599.03C929.727 1600.84 930.312 1602.12 930.312 1602.12C930.312 1602.12 930.646 1603.61 924.604 1604.28Z" fill="#739CF3"/>
<path d="M926.25 1585.19C924.573 1586.24 921.034 1588.3 918.687 1588.57C915.519 1588.93 909.592 1581.78 909.592 1581.78L909.657 1581.77C909.928 1581.77 911.214 1582.12 916.81 1586.3C919.704 1588.46 924.634 1583.25 924.634 1583.25C924.634 1583.25 925.56 1583.93 926.25 1585.19Z" fill="#415DA5"/>
<path d="M924.604 1604.28H917.582C915.229 1603.95 913.492 1603.35 911.079 1603.07C907.415 1602.65 905.728 1603.98 905.393 1604.28C905.348 1604.32 905.328 1604.34 905.328 1604.34H875.494C874.743 1603.4 875.464 1601.2 876.17 1599.59C877.076 1598.87 877.331 1602.68 877.832 1603.29C878.332 1603.89 902.169 1603.51 903.546 1602.62C904.923 1601.74 909.052 1600.19 914.809 1601.4C919.82 1602.46 927.203 1599.75 929.03 1599.03C929.726 1600.84 930.311 1602.12 930.311 1602.12C930.311 1602.12 930.646 1603.61 924.604 1604.28Z" fill="#415DA5"/>
<path d="M876.606 1604.28H869.583C867.23 1603.95 865.493 1603.35 863.081 1603.07C859.417 1602.65 857.73 1603.98 857.394 1604.28C857.349 1604.32 857.329 1604.34 857.329 1604.34H827.495C826.745 1603.4 827.465 1601.2 828.171 1599.59C828.647 1598.49 829.683 1597.65 830.964 1597.33C834.128 1596.52 840.364 1595.8 846.076 1591.22C849.29 1588.66 861.594 1581.78 861.594 1581.78L861.659 1581.77C861.929 1581.77 863.216 1582.12 868.812 1586.3C871.705 1588.46 876.636 1583.26 876.636 1583.26C876.636 1583.26 877.562 1583.93 878.253 1585.19C878.808 1586.19 879.214 1587.56 878.894 1589.24C878.449 1591.62 879.885 1596.04 881.031 1599.03C881.727 1600.84 882.313 1602.12 882.313 1602.12C882.313 1602.12 882.647 1603.61 876.606 1604.28Z" fill="#739CF3"/>
<path d="M878.253 1585.19C876.576 1586.24 873.037 1588.3 870.689 1588.57C867.521 1588.93 861.594 1581.78 861.594 1581.78L861.659 1581.77C861.929 1581.77 863.216 1582.12 868.812 1586.3C871.705 1588.46 876.636 1583.25 876.636 1583.25C876.636 1583.25 877.562 1583.93 878.253 1585.19Z" fill="#415DA5"/>
<path d="M876.606 1604.28H869.583C867.23 1603.95 865.493 1603.35 863.081 1603.07C859.417 1602.65 857.73 1603.98 857.394 1604.28C857.349 1604.32 857.329 1604.34 857.329 1604.34H827.495C826.745 1603.4 827.465 1601.2 828.171 1599.59C829.077 1598.87 829.333 1602.68 829.833 1603.29C830.333 1603.89 854.17 1603.51 855.547 1602.62C856.924 1601.74 861.053 1600.19 866.81 1601.4C871.821 1602.46 879.204 1599.75 881.031 1599.03C881.727 1600.84 882.313 1602.12 882.313 1602.12C882.313 1602.12 882.647 1603.61 876.606 1604.28Z" fill="#415DA5"/>
<path d="M939.668 1387.52C939.668 1387.52 911.232 1395.79 876.64 1389.9C870.317 1388.83 859.22 1385.68 851.368 1381.26L861.795 1298.34L863.943 1259.8C863.943 1259.8 875.881 1256.15 881.665 1255.79C881.665 1255.79 905.887 1258.68 915.279 1256.2C915.279 1256.2 928.74 1258.98 932.596 1271.65C940.621 1298 943.307 1330.71 939.668 1387.52Z" fill="white"/>
<path d="M883.556 1292.5C880.927 1298.7 864.12 1297.01 851.257 1288.18C850.13 1287.43 849.004 1286.68 847.783 1285.93C835.201 1278.04 818.864 1270.72 809.286 1264.05C800.272 1257.85 790.789 1232.03 784.405 1220.95C783.842 1219.92 783.278 1218.98 782.715 1218.23C775.203 1215.88 775.673 1208.09 768.631 1205.55C760.275 1202.64 762.716 1197.95 762.716 1197.95C762.716 1197.95 768.819 1195.41 776.049 1196.17C778.772 1196.54 784.029 1204.15 787.034 1208.93C789.1 1210.53 791.635 1212.5 794.264 1214.66C804.968 1223.96 818.395 1237.48 823.371 1243.77C827.221 1248.56 846.187 1253.72 860.083 1258.98C865.529 1261.14 870.224 1263.3 872.853 1265.46C889.565 1279.17 883.556 1292.5 883.556 1292.5Z" fill="#FFB27D"/>
<path d="M883.556 1292.5C880.73 1305.36 847.927 1289.75 846.706 1289C848.492 1269.67 848.256 1259.07 853.699 1255.71C864.372 1254.04 880.457 1254.85 883.658 1256.01C909.846 1265.45 883.556 1292.5 883.556 1292.5Z" fill="white"/>
<path d="M847.688 1217.39C846.562 1220.48 843.745 1224.05 837.547 1225.93C835.951 1222.74 834.448 1220.01 833.228 1218.23C825.623 1215.98 826.092 1208.09 819.05 1205.55C810.693 1202.64 813.229 1197.95 813.229 1197.95C813.229 1197.95 819.238 1195.42 826.562 1196.17C829.191 1196.54 834.449 1204.15 837.547 1208.94C840.458 1211.09 843.933 1214.01 847.688 1217.39Z" fill="#FFA412"/>
<path d="M830.269 1209.63C827.427 1211.82 819.836 1219.51 819.836 1219.51L802.336 1196.89C802.336 1196.89 811.283 1191.24 814.272 1188.95C816.986 1186.87 824.96 1179.39 824.96 1179.39L842.46 1202.01C842.46 1202.01 833.112 1207.43 830.269 1209.63Z" fill="white"/>
<path d="M830.269 1209.63C827.427 1211.82 819.836 1219.51 819.836 1219.51L807.509 1203.58C807.509 1203.58 816.456 1197.92 819.445 1195.64C822.158 1193.56 830.132 1186.08 830.132 1186.08L842.459 1202.01C842.459 1202.01 833.112 1207.43 830.269 1209.63Z" fill="white"/>
<path d="M844.205 1200.58L826.707 1177.95L824.897 1179.35L842.395 1201.98L844.205 1200.58Z" fill="white"/>
<path d="M819.773 1219.48L802.274 1196.85L800.464 1198.25L817.963 1220.88L819.773 1219.48Z" fill="white"/>
<path opacity="0.5" d="M796.707 1199.88L773.366 1228.48C770.602 1231.87 765.569 1232.38 762.182 1229.62L750.459 1220.05C746.879 1217.13 746.34 1211.81 749.262 1208.23L772.319 1179.98C776.243 1175.17 782.552 1173.39 788.198 1174.94C788.939 1175.14 789.748 1174.86 790.149 1174.2C790.267 1174.02 790.396 1173.83 790.541 1173.65L791.774 1172.14L800.485 1179.25L799.252 1180.76C799.089 1180.96 798.916 1181.14 798.732 1181.31C798.213 1181.78 798.048 1182.53 798.372 1183.15C801.12 1188.4 800.672 1195.02 796.707 1199.88Z" fill="#EBF3FA"/>
<path opacity="0.3" d="M796.707 1199.88L773.366 1228.48C770.602 1231.87 765.569 1232.38 762.182 1229.62L754.814 1223.6C751.234 1220.68 750.696 1215.36 753.617 1211.78L776.674 1183.53C780.598 1178.72 786.907 1176.94 792.553 1178.49C792.825 1178.57 793.108 1178.58 793.376 1178.53C793.832 1178.44 794.25 1178.17 794.504 1177.76C794.622 1177.57 794.751 1177.38 794.896 1177.21L796.129 1175.69L800.484 1179.25L799.251 1180.76C799.088 1180.96 798.915 1181.14 798.731 1181.31C798.212 1181.78 798.047 1182.53 798.371 1183.15C801.12 1188.4 800.672 1195.02 796.707 1199.88Z" fill="#EBF3FA"/>
<path opacity="0.3" d="M791.876 1195.94L768.535 1224.54C765.771 1227.93 760.738 1228.44 757.351 1225.67L754.814 1223.6C751.234 1220.68 750.696 1215.36 753.617 1211.78L776.674 1183.53C780.598 1178.72 786.907 1176.94 792.553 1178.49C792.825 1178.57 793.108 1178.58 793.376 1178.53C793.373 1178.75 793.426 1178.99 793.541 1179.2C796.29 1184.45 795.842 1191.08 791.876 1195.94Z" fill="#EBF3FA"/>
<path d="M794.713 1202.43L770.32 1182.53L756.618 1199.32L781.011 1219.22L794.713 1202.43Z" fill="#EBF3FA"/>
<path d="M802.9 1177.3L793.199 1169.41L791.333 1171.71L801.034 1179.59L802.9 1177.3Z" fill="#EBF3FA"/>
<path d="M794.263 1214.66C792.573 1217.2 789.568 1219.45 784.405 1220.95C783.842 1219.92 783.278 1218.98 782.715 1218.23C775.203 1215.88 775.673 1208.09 768.631 1205.55C760.275 1202.64 762.716 1197.95 762.716 1197.95C762.716 1197.95 768.819 1195.41 776.049 1196.17C778.772 1196.54 784.029 1204.15 787.034 1208.93C789.099 1210.53 791.634 1212.5 794.263 1214.66Z" fill="#FFA412"/>
<path d="M671.827 1174.37L670.136 1185.73C670.136 1185.73 669.386 1185.73 668.071 1185.64C663.94 1185.36 653.893 1184.79 642.532 1183.57C625.443 1181.88 605.162 1178.88 597.087 1173.9C584.787 1166.39 564.6 1143.39 551.455 1120.38C551.079 1119.82 550.798 1119.26 550.515 1118.69C543.661 1106.49 538.872 1094.37 538.497 1084.7C538.215 1078.79 538.872 1073.72 540.093 1069.3C541.689 1063.48 544.319 1058.88 547.041 1055.41C547.417 1054.84 547.792 1054.28 548.355 1053.81C552.862 1048.46 557.275 1046.21 557.275 1046.21C559.528 1045.27 561.97 1046.39 564.504 1049.12V1049.21C566.57 1051.37 568.823 1054.66 570.983 1058.79C571.077 1058.88 571.171 1058.98 571.171 1059.07C571.64 1059.91 572.11 1060.85 572.674 1061.89C572.861 1062.07 572.955 1062.36 573.049 1062.54C574.082 1064.7 575.114 1066.96 576.148 1069.3C587.697 1094.47 599.997 1132.59 610.231 1143.95C614.644 1148.83 634.831 1158.41 650.886 1165.55C662.437 1170.62 671.827 1174.37 671.827 1174.37Z" fill="#FFB27D"/>
<path d="M519.089 923.901C519.089 923.901 515.598 905.745 496.026 904.763C476.454 903.782 453.39 919.38 455.353 939.797C457.316 960.214 435.233 968.557 431.308 985.733C427.382 1002.91 445.879 1002.95 449.852 1016.16C453.825 1029.37 442.818 1041.31 466.702 1042.4C490.586 1043.49 518.022 1039.36 523.565 1025.97C529.107 1012.58 532.196 958.404 532.196 958.404L519.089 923.901Z" fill="#2C3A64"/>
<path d="M552.983 1109.25C551.849 1115.54 549.978 1120.93 547.723 1126.03C545.845 1130.3 543.704 1134.37 541.499 1138.6C535.041 1151.04 520.708 1156.74 519.319 1181.07C518.844 1189.45 519.901 1200.04 523.345 1213.87C540.308 1282.04 406.305 1223.97 413.883 1206.31C428.946 1171.22 449.326 1151.37 450.013 1122.03C450.02 1121.96 450.006 1121.89 449.999 1121.81C449.928 1120.38 449.879 1116.57 449.85 1111.53C449.779 1099.2 449.822 1079.54 449.942 1069.6C449.942 1069.37 449.949 1069.14 449.949 1068.92C450.006 1064.66 449.991 1061.57 449.857 1060.76C460.852 1020.77 482.677 1021.41 490.12 1021.82C492.877 1021.96 495.769 1022.25 498.144 1022.54C502.921 1020.06 511.485 1007.95 516.447 987.697L518.12 988.483L546.262 1001.71C546.262 1001.71 543.27 1010.86 541.066 1019.63C539.344 1026.49 538.11 1033.11 539.145 1034.96C541.364 1035.86 542.689 1036.43 542.689 1036.43C542.689 1036.43 542.689 1036.44 542.696 1036.46C543.159 1037.61 558.754 1077.33 552.983 1109.25Z" fill="#FFB27D"/>
<path d="M548.836 1585.31L538.541 1590.68C538.541 1590.68 482.549 1513.44 475.905 1447.68C474.727 1435.94 475.12 1424.57 477.672 1414.07C477.672 1414.07 476.553 1407.58 474.678 1396.84C474.305 1394.7 473.903 1392.41 473.481 1389.95C471.891 1380.88 469.938 1369.75 467.769 1357.44C465.629 1345.31 463.284 1332.03 460.859 1318.47C456.089 1291.81 451.065 1264.03 446.824 1241.62L450.171 1240.54L465.491 1235.59L486.337 1228.87L493.815 1205.13L498.693 1203.84L520.746 1198.04C520.746 1198.04 521.708 1199.92 523.2 1205.72C525.182 1213.39 528.097 1227.92 530.973 1254.02C531.356 1257.59 531.748 1261.38 532.141 1265.41C536.185 1294.95 538.531 1336.73 532.151 1386.86C530.915 1396.53 529.354 1406.5 527.43 1416.76C526.007 1424.27 525.801 1434.51 526.39 1446.27C529.109 1500.02 548.836 1585.31 548.836 1585.31Z" fill="#35488B"/>
<path d="M530.974 1254.02C516.586 1288.28 485.386 1361.87 473.481 1389.95C471.891 1380.88 469.938 1369.75 467.769 1357.44C465.629 1345.31 463.284 1332.03 460.859 1318.47L455.422 1261.4L465.491 1235.59L478.319 1202.7C478.319 1202.7 487.908 1203.18 498.694 1203.84C507.625 1204.39 517.391 1205.08 523.201 1205.72C525.183 1213.39 528.098 1227.92 530.974 1254.02Z" fill="#2C3A64"/>
<path d="M694.787 1204.82C689.904 1209.14 669.268 1187.61 667.484 1185.64C663.353 1185.35 653.306 1184.79 641.945 1183.57C645.512 1177.75 648.799 1169.39 650.301 1165.54C661.85 1170.61 671.24 1174.37 671.24 1174.37C671.24 1174.37 688.881 1177.27 691.558 1180.22C698.981 1188.4 700.138 1200.22 694.787 1204.82Z" fill="#F99746"/>
<path d="M689.343 1188.91C685.822 1188.91 616.575 1185.39 616.575 1185.39L664.696 1236.71L770.326 1259.2L689.343 1188.91Z" fill="#699FF0"/>
<path d="M737.247 1254.59C734.951 1261.61 730.91 1283.44 730.91 1283.44L675.043 1265.16C675.043 1265.16 683.738 1245.22 686.18 1237.88C688.396 1231.21 693.326 1209.29 693.326 1209.29L749.193 1227.57C749.193 1227.57 739.544 1247.57 737.247 1254.59Z" fill="#F99746"/>
<path d="M737.247 1254.59C734.951 1261.61 730.91 1283.44 730.91 1283.44L691.558 1270.56C691.558 1270.56 700.253 1250.63 702.695 1243.28C704.912 1236.62 709.841 1214.7 709.841 1214.7L749.193 1227.57C749.193 1227.57 739.544 1247.57 737.247 1254.59Z" fill="#ED7D2B"/>
<path d="M750.687 1223.08L694.819 1204.79L693.356 1209.26L749.224 1227.55L750.687 1223.08Z" fill="#ED7D2B"/>
<path d="M730.942 1283.41L675.075 1265.13L673.612 1269.6L729.48 1287.88L730.942 1283.41Z" fill="#DC8D39"/>
<path d="M747.82 1238.91L767.99 1269.83C770.378 1273.49 769.337 1278.44 765.676 1280.83L753.002 1289.09C749.132 1291.62 743.898 1290.52 741.374 1286.65L721.45 1256.11C718.059 1250.91 718.277 1244.36 721.469 1239.45C721.888 1238.8 721.867 1237.95 721.361 1237.37C721.216 1237.2 721.08 1237.02 720.955 1236.83L719.889 1235.19L729.306 1229.05L730.371 1230.68C730.512 1230.9 730.631 1231.12 730.734 1231.34C731.023 1231.98 731.689 1232.36 732.376 1232.24C738.215 1231.22 744.394 1233.65 747.82 1238.91Z" fill="#ECF2FD"/>
<path d="M747.82 1238.91L767.99 1269.83C770.378 1273.49 769.337 1278.44 765.676 1280.83L757.711 1286.02C753.841 1288.55 748.607 1287.45 746.083 1283.58L726.159 1253.03C722.768 1247.84 722.986 1241.28 726.178 1236.38C726.331 1236.14 726.426 1235.87 726.459 1235.6C726.515 1235.14 726.388 1234.66 726.069 1234.29C725.925 1234.12 725.788 1233.94 725.663 1233.75L724.598 1232.12L729.306 1229.05L730.371 1230.68C730.512 1230.9 730.631 1231.12 730.734 1231.34C731.023 1231.98 731.689 1232.36 732.376 1232.24C738.215 1231.22 744.394 1233.65 747.82 1238.91Z" fill="#E5EAF5"/>
<path opacity="0.3" d="M742.599 1242.31L762.769 1273.23C765.157 1276.89 764.115 1281.84 760.454 1284.23L757.711 1286.02C753.841 1288.55 748.607 1287.45 746.083 1283.58L726.159 1253.03C722.768 1247.84 722.986 1241.28 726.178 1236.38C726.331 1236.14 726.426 1235.87 726.459 1235.6C726.677 1235.67 726.915 1235.69 727.155 1235.65C732.993 1234.62 739.171 1237.06 742.599 1242.31Z" fill="#CED4EA"/>
<path d="M749.547 1241.46L723.18 1258.66L735.02 1276.81L761.387 1259.61L749.547 1241.46Z" fill="#EBF3FA"/>
<path d="M728.008 1226.07L717.553 1232.92L719.175 1235.4L729.63 1228.55L728.008 1226.07Z" fill="#EBF3FA"/>
<path d="M678.314 1225.82L685.799 1261.97C686.685 1266.25 683.907 1270.48 679.627 1271.36L664.81 1274.43C660.286 1275.37 655.815 1272.43 654.878 1267.91L647.484 1232.2C646.226 1226.12 648.82 1220.1 653.586 1216.7C654.211 1216.25 654.505 1215.45 654.245 1214.72C654.172 1214.51 654.111 1214.29 654.064 1214.07L653.669 1212.16L664.679 1209.88L665.074 1211.79C665.126 1212.04 665.157 1212.29 665.171 1212.54C665.207 1213.23 665.687 1213.84 666.371 1213.97C672.181 1215.15 677.042 1219.68 678.314 1225.82Z" fill="#ECF2FD"/>
<path d="M678.314 1225.82L685.799 1261.97C686.685 1266.25 683.907 1270.48 679.627 1271.36L670.314 1273.29C665.79 1274.23 661.319 1271.29 660.382 1266.77L652.988 1231.06C651.729 1224.98 654.324 1218.96 659.089 1215.56C659.318 1215.39 659.504 1215.18 659.633 1214.94C659.853 1214.53 659.91 1214.04 659.748 1213.58C659.675 1213.37 659.614 1213.15 659.567 1212.93L659.171 1211.02L664.676 1209.88L665.071 1211.79C665.123 1212.04 665.154 1212.29 665.168 1212.54C665.204 1213.23 665.684 1213.84 666.368 1213.98C672.181 1215.15 677.042 1219.68 678.314 1225.82Z" fill="#E5EAF5"/>
<path opacity="0.3" d="M672.208 1227.08L679.693 1263.23C680.579 1267.51 677.801 1271.74 673.522 1272.63L670.315 1273.29C665.791 1274.23 661.32 1271.29 660.383 1266.77L652.989 1231.06C651.73 1224.98 654.325 1218.96 659.09 1215.56C659.319 1215.39 659.505 1215.18 659.634 1214.94C659.811 1215.09 660.025 1215.19 660.264 1215.24C666.075 1216.42 670.937 1220.94 672.208 1227.08Z" fill="#CED4EA"/>
<path d="M678.97 1228.85L648.142 1235.24L652.536 1256.46L683.365 1250.07L678.97 1228.85Z" fill="#ED7D2B"/>
<path d="M664.648 1206.65L652.413 1209.21L653.018 1212.1L665.253 1209.54L664.648 1206.65Z" fill="#ED7D2B"/>
<path d="M806.563 1464.31L794.638 1540.18L791.164 1562.06L784.31 1605.9H691.543C691.543 1605.9 679.337 1598.39 663.469 1588.53C636.428 1571.54 599.058 1547.88 595.302 1543.65C592.861 1540.93 588.635 1520.46 584.504 1497.36C578.682 1464.41 573.049 1425.91 573.049 1425.91L607.039 1362.44L577.744 1292.3L616.428 1185.39L664.501 1236.72L770.225 1259.16L806.563 1464.31Z" fill="#AAC9F5"/>
<path d="M668.657 1450.35L658.094 1510.2L737.317 1455.04L668.657 1450.35Z" fill="#AAC9F5"/>
<path d="M794.492 1540.18L784.164 1605.91H691.397C691.397 1605.91 679.191 1598.39 663.323 1588.54L655.624 1565.91L744.822 1525.44L755.526 1524.88L794.492 1540.18Z" fill="#AAC9F5"/>
<path d="M806.563 1464.31L794.638 1540.18L791.164 1562.06C785.155 1559.05 743.279 1537.45 744.969 1525.44C746.753 1512.57 806.563 1464.31 806.563 1464.31Z" fill="#C3D9FA"/>
<path d="M595.303 1543.65C595.303 1543.65 651.639 1560.67 655.747 1565.95C659.855 1571.23 671.591 1593.53 671.591 1593.53L595.303 1543.65Z" fill="#C3D9FA"/>
<path d="M668.657 1450.35C668.657 1450.35 713.257 1437.44 717.364 1431.57C721.472 1425.7 750.227 1389.9 750.227 1389.9C750.227 1389.9 742.599 1448 737.317 1455.04C732.035 1462.08 668.657 1450.35 668.657 1450.35Z" fill="#C3D9FA"/>
<path d="M632.109 1408.26L584.505 1497.36C578.683 1464.41 573.05 1425.91 573.05 1425.91L599.998 1394.18L632.109 1408.26Z" fill="#9DC1ED"/>
<path d="M632.109 1408.26C632.109 1408.26 606.288 1398.12 573.05 1425.91L607.04 1362.44L632.109 1408.26Z" fill="#C3D9FA"/>
<path d="M577.745 1292.3L656.334 1312.83L689.196 1362.91L577.745 1292.3Z" fill="#C3D9FA"/>
<path d="M658.094 1510.2L655.747 1565.95L744.969 1525.44L806.563 1464.31L750.227 1389.9L723.233 1461.5L658.094 1510.2Z" fill="#9DC1ED"/>
<path d="M571.714 944.042C571.714 944.042 564.162 916.868 542.309 914.251C520.456 911.634 506.716 924.72 503.771 937.479C500.827 950.238 502.955 983.609 516.449 987.698C529.943 991.785 571.714 944.042 571.714 944.042Z" fill="#2C3A64"/>
<path d="M508.988 1212.96L507.634 1201.35C484.95 1207.37 424.343 1184.51 424.343 1184.51C424.343 1184.51 402.368 1203.83 405.254 1250.13C406.662 1272.73 407.576 1311.08 407.576 1311.08H407.578C407.521 1343.97 409.968 1376.54 411.92 1397.18C412.891 1407.48 413.742 1414.81 414.089 1417.74C414.096 1417.76 414.096 1417.76 414.096 1417.77C414.202 1418.66 413.891 1419.51 413.437 1420.29C409.482 1427 405.734 1433.83 403.52 1441.14C388.025 1492.33 400.222 1570.96 400.222 1570.96L415.479 1594.76C415.479 1594.76 432.796 1498.46 446.867 1455.91C449.256 1448.7 451.545 1443.02 453.643 1439.64C459.761 1429.76 465.438 1413.63 470.592 1394.44C480.277 1358.37 508.988 1212.96 508.988 1212.96Z" fill="#35488B"/>
<path d="M546.266 1001.71C546.266 1001.71 543.274 1010.86 541.07 1019.63C524.622 1015.04 519.627 997.754 518.124 988.486L546.266 1001.71Z" fill="#ED985F"/>
<path d="M549.729 1011.4C549.729 1011.4 510.377 1002.29 516.426 977.874C522.475 953.455 521.469 935.834 546.85 940.616C572.231 945.398 574.785 955.922 574.749 964.562C574.714 973.204 560.122 1013.14 549.729 1011.4Z" fill="#FFB27D"/>
<path d="M576.963 950.699C572.732 941.848 567.753 942.321 564.639 943.89C546.148 926.782 528.013 940.758 528.013 940.758C521.032 957.621 505.904 964.512 505.904 964.512C505.904 964.512 511.949 970.702 529.47 970.566C534.822 970.525 540.203 968.067 545.099 964.681C535.655 974.194 524.581 979.985 524.581 979.985C546.515 975.788 561.222 950.395 562.729 947.698C564.587 950.442 568.141 956.283 568.44 961.216C568.846 967.918 566.54 980.935 570.378 981.428C570.378 981.428 583.308 963.973 576.963 950.699Z" fill="#2C3A64"/>
<path d="M565.353 1048.48C565.353 1048.48 574.828 1065.01 576.246 1069.26C576.246 1069.26 563.959 1068.79 558.997 1078.24C558.997 1078.24 559.422 1050.86 565.353 1048.48Z" fill="#F99746"/>
<path d="M562.076 1097.72C561.791 1098.49 561.457 1099.26 561.104 1100.03C551.231 1121.3 542.24 1139.05 542.24 1139.05C541.995 1138.9 540.807 1217.85 528.863 1220.96C522.12 1222.7 502.884 1225.28 489.114 1226.19C482.42 1226.63 464.087 1227.66 447.284 1226.19C426.095 1224.33 414.042 1219.53 405.955 1212.21C396.366 1199.44 440.787 1157.35 446.822 1127.06C446.743 1125.48 447.018 1120.4 447.45 1113.77C448.216 1101.67 449.453 1084.41 449.825 1073.86C449.893 1072.28 449.933 1070.84 449.943 1069.6C449.943 1069.36 449.953 1069.14 449.953 1068.92C452.093 1067.33 454.183 1065.86 456.107 1064.45C462.29 1059.95 466.913 1056.1 467.207 1051.16C467.315 1049.22 467.256 1047.22 467.05 1045.22C466.962 1044.28 466.844 1043.33 466.697 1042.4C465.176 1032.5 461.054 1023.53 461.054 1023.53C471.507 1019.29 490.125 1021.81 490.125 1021.81C490.125 1021.81 490.095 1022.85 490.085 1024.54C490.017 1031.34 490.085 1048.79 492.264 1052.09C494.993 1056.2 544.84 1074.23 547.471 1068.65C550.062 1063.16 542.966 1037.44 542.701 1036.46C542.691 1036.43 542.691 1036.43 542.691 1036.43C559.385 1042.98 565.353 1048.48 565.353 1048.48C555.294 1055.01 569.859 1077.09 562.076 1097.72Z" fill="#F99746"/>
<path d="M493.041 1174.3C479.948 1168.23 460.152 1136.51 447.452 1113.77C448.218 1101.67 449.455 1084.41 449.827 1073.86L493.041 1174.3Z" fill="#ED7D2B"/>
<path d="M590.891 1192.87L587.604 1204.89C587.604 1204.89 583.473 1204.14 576.9 1202.91C574.928 1202.54 573.802 1202.26 573.802 1202.26C568.544 1201.23 562.253 1199.82 555.399 1198.31H555.305C543.568 1195.5 530.423 1192.12 519.344 1188.36C511.551 1185.64 504.791 1182.73 500.19 1179.82C499.721 1179.54 499.345 1179.25 498.875 1178.88C487.89 1170.9 474.838 1147.43 464.698 1122.26C463.289 1118.79 461.975 1115.31 460.66 1111.93C455.965 1099.35 452.21 1086.96 449.957 1076.25C448.548 1069.87 447.609 1064.05 447.421 1059.26C447.327 1057.57 447.233 1055.97 447.327 1054.47C447.515 1027.24 461.035 1023.49 461.035 1023.49C461.316 1023.39 461.598 1023.3 461.974 1023.21C464.321 1022.83 466.763 1024.42 469.298 1027.52C472.49 1031.37 475.871 1037.66 479.345 1045.27C484.696 1057.38 490.33 1073.06 495.588 1088.65C498.499 1097.19 501.315 1105.74 504.132 1113.62C505.729 1118.41 507.325 1122.92 508.827 1127.05C511.738 1134.94 514.367 1141.32 516.714 1145.36C518.216 1147.99 522.535 1151.65 528.263 1155.78C538.216 1163.01 552.769 1171.75 565.445 1178.88C570.703 1181.89 575.679 1184.61 579.81 1186.86C586.477 1190.52 590.891 1192.87 590.891 1192.87Z" fill="#FFB27D"/>
<path d="M479.312 1045.31C461.236 1040.32 447.293 1054.44 447.293 1054.44C447.519 1027.25 461.052 1023.53 461.052 1023.53C466.496 1021.28 472.805 1030.7 479.312 1045.31Z" fill="#F99746"/>
<path d="M630.349 1204.79C624.34 1207.32 615.89 1216.15 602.369 1210.8C592.698 1207.04 582.464 1204.41 577.487 1203.19C575.515 1202.82 574.389 1202.53 574.389 1202.53C569.131 1201.5 562.84 1200.09 555.986 1198.59C561.619 1191.64 564.812 1182.82 566.033 1179.15C571.291 1182.16 576.267 1184.88 580.398 1187.14C594.008 1192.33 601.524 1191.64 609.787 1189.76C619.082 1187.61 634.669 1198.78 634.669 1198.78C634.669 1198.78 636.358 1202.35 630.349 1204.79Z" fill="#F99746"/>
<path d="M457.033 1601.22H396.304C396.304 1601.22 394.034 1591.53 398.021 1584.94C401.55 1579.11 400.048 1572.4 399.331 1564.43C402.082 1565.56 405.586 1568.46 409.454 1569.12C413.707 1569.86 417.923 1568.62 420.729 1566.99C423.343 1569.97 430.649 1585.38 434.146 1587.89C438.115 1590.74 455.811 1589.73 457.033 1601.22Z" fill="#233862"/>
<path d="M579.522 1601.22H518.794C518.794 1601.22 516.523 1591.53 520.51 1584.94C524.039 1579.11 522.537 1572.4 521.821 1564.43C524.572 1565.56 528.076 1568.46 531.943 1569.12C536.196 1569.86 541.693 1567.05 544.499 1565.42C545.875 1577.22 553.138 1585.38 556.635 1587.89C560.603 1590.74 578.3 1589.73 579.522 1601.22Z" fill="#233862"/>
<path d="M2794.89 1608.19H3.37198C1.66298 1608.19 0.265991 1606.79 0.265991 1605.09V1604.17C0.265991 1602.47 1.66298 1601.07 3.37198 1601.07H2794.89C2796.6 1601.07 2798 1602.47 2798 1604.17V1605.09C2798 1606.79 2796.6 1608.19 2794.89 1608.19Z" fill="#2E3552"/>
</svg>
