<svg width="2000" height="2000" viewBox="0 0 2000 2000" fill="none" xmlns="http://www.w3.org/2000/svg">
<path d="M349.532 1679.58C711.228 1865.47 1297.65 1865.48 1659.34 1679.58C2021.04 1493.69 2021.04 1192.3 1659.34 1006.4C1297.65 820.508 711.224 820.508 349.528 1006.4C-12.164 1192.29 -12.164 1493.69 349.532 1679.58Z" fill="#F5F5F5"/>
<path d="M1343.64 1471.19L1545.43 1354.7C1550.83 1351.58 1559.8 1351.17 1565.46 1353.79L1771.23 1472.58C1776.89 1475.19 1777.1 1479.84 1771.7 1482.96L1566.04 1601.39C1560.64 1604.51 1552.16 1604.07 1547.1 1600.42L1343.01 1483.45C1337.96 1479.8 1338.24 1474.31 1343.64 1471.19Z" fill="#E0E0E0"/>
<path d="M1165.07 1343.86C1084.62 1382.21 954.172 1382.21 873.716 1343.86C793.256 1305.52 793.256 1243.34 873.716 1204.99C954.172 1166.65 1084.62 1166.65 1165.07 1204.99C1245.53 1243.34 1245.53 1305.52 1165.07 1343.86Z" fill="#E0E0E0"/>
<path d="M1731.18 1416.27C1731.51 1397.43 1745.82 1358.64 1765.79 1334.52C1785.77 1310.39 1816.82 1293.04 1838.52 1300.89C1858.74 1308.2 1856.07 1334.84 1831.09 1352.1C1806.1 1369.34 1768.63 1390.91 1757.24 1421.28L1733.82 1458.38L1731.18 1416.27Z" fill="#607DDD"/>
<path opacity="0.1" d="M1731.18 1416.27C1731.51 1397.43 1745.82 1358.64 1765.79 1334.52C1785.77 1310.39 1816.82 1293.04 1838.52 1300.89C1858.74 1308.2 1856.07 1334.84 1831.09 1352.1C1806.1 1369.34 1768.63 1390.91 1757.24 1421.28L1733.82 1458.38L1731.18 1416.27Z" fill="black"/>
<path d="M1729.34 1442.03C1729.94 1441.99 1730.47 1441.56 1730.6 1440.94C1744.34 1376.85 1797.28 1325.48 1828.62 1314.47C1829.34 1314.22 1829.72 1313.43 1829.46 1312.72C1829.22 1312 1828.44 1311.61 1827.71 1311.87C1795.77 1323.09 1741.85 1375.3 1727.91 1440.36C1727.75 1441.11 1728.22 1441.84 1728.96 1442C1729.09 1442.02 1729.22 1442.04 1729.34 1442.03Z" fill="white"/>
<path d="M1738.21 1483.36C1741.42 1472.82 1754.66 1455.57 1775.84 1441.5C1799.26 1425.93 1828.68 1419.1 1835.65 1406.79C1844.02 1392 1831.68 1377.67 1807.86 1380.2C1784.03 1382.74 1741.66 1414.45 1734.13 1463.17L1738.21 1483.36Z" fill="#607DDD"/>
<path d="M1733.81 1472.17C1734.33 1472.14 1734.81 1471.8 1735.01 1471.28C1755.7 1416.52 1798.07 1397.92 1817.58 1395.73C1818.34 1395.65 1818.88 1394.96 1818.8 1394.21C1818.72 1393.46 1818.06 1392.91 1817.28 1393C1795.7 1395.42 1753.55 1414.42 1732.44 1470.31C1732.17 1471.02 1732.53 1471.82 1733.24 1472.08C1733.42 1472.15 1733.62 1472.18 1733.81 1472.17Z" fill="white"/>
<path d="M413.296 1356.05L436.96 1342.53C436.96 1342.53 448.312 1279.98 439.82 1226.21C427.884 1150.62 376.412 1124.54 357.72 1132.05C339.028 1139.57 334.632 1161.96 368.392 1205.64C388.316 1231.41 413.936 1285.89 413.296 1356.05Z" fill="#607DDD"/>
<g opacity="0.1">
<path d="M413.296 1356.05L436.96 1342.53C436.96 1342.53 448.312 1279.98 439.82 1226.21C427.884 1150.62 376.412 1124.54 357.72 1132.05C339.028 1139.57 334.632 1161.96 368.392 1205.64C388.316 1231.41 413.936 1285.89 413.296 1356.05Z" fill="black"/>
</g>
<path d="M421.876 1326.03C421.796 1326.03 421.72 1326.02 421.64 1326.01C420.716 1325.88 420.072 1325.03 420.2 1324.11C429.98 1253.34 401.52 1175.8 369.54 1144.54C368.876 1143.9 368.86 1142.82 369.512 1142.16C370.164 1141.5 371.232 1141.48 371.896 1142.13C404.46 1173.95 433.464 1252.76 423.54 1324.57C423.428 1325.42 422.704 1326.03 421.876 1326.03Z" fill="white"/>
<path d="M347.636 1393.98C343.896 1396.13 336.192 1391.44 333.236 1389.46C328.184 1386.06 324.088 1381.26 321.368 1375.83C318.204 1369.51 317.404 1362.74 318.396 1355.75C318.912 1352.12 319.924 1348.59 320.936 1345.07C321.928 1341.61 322.924 1338.16 323.916 1334.7C324.896 1331.29 325.888 1327.76 325.436 1324.24C324.528 1317.16 318.236 1312.19 312.516 1307.9C306.188 1303.17 299.6 1296.91 299.636 1288.38C299.664 1281.79 303.076 1275.67 307.156 1270.5C311.236 1265.34 316.08 1260.77 319.768 1255.31C322.424 1251.38 324.496 1246.77 324.064 1242.05C323.796 1239.12 322.58 1236.35 321.176 1233.76C318.16 1228.2 314.184 1223.11 312.108 1217.14C310.028 1211.17 310.324 1203.74 314.984 1199.47C318.808 1195.96 324.492 1195.48 329.672 1195.82C334.464 1196.13 339.14 1198.29 343.332 1200.62C356.884 1208.16 364.616 1224.21 378.996 1230.01C384.544 1232.24 390.62 1232.73 396.4 1234.26C402.18 1235.79 408.076 1238.74 410.752 1244.09C416.032 1254.63 406.236 1267.62 409.944 1278.82C413.228 1288.72 422.852 1292.51 428.256 1301.44C430.62 1305.34 431.164 1309.85 430.784 1314.4C430.14 1322.1 429.012 1327.75 425.316 1336.31C422.264 1343.38 413.292 1356.04 413.292 1356.04C413.072 1356.27 348.212 1393.65 347.636 1393.98Z" fill="#607DDD"/>
<path d="M386.052 1373.52C386.028 1373.52 386.008 1373.52 386.008 1373.52C385.052 1373.48 384.332 1372.69 384.368 1371.76C387.156 1304.77 355.592 1230.82 332.64 1209.33C331.96 1208.69 331.924 1207.62 332.56 1206.94C333.2 1206.26 334.264 1206.23 334.944 1206.86C358.36 1228.78 390.564 1303.97 387.74 1371.9C387.7 1372.8 386.952 1373.52 386.052 1373.52Z" fill="white"/>
<path d="M376.016 1294.37C375.852 1294.37 375.684 1294.35 375.52 1294.3C353.996 1287.64 327.172 1286.47 326.904 1286.46C325.972 1286.42 325.248 1285.63 325.288 1284.7C325.328 1283.78 326.032 1283.04 327.044 1283.09C327.316 1283.1 354.568 1284.29 376.516 1291.08C377.404 1291.35 377.908 1292.3 377.628 1293.18C377.404 1293.91 376.74 1294.37 376.016 1294.37Z" fill="white"/>
<path d="M628.524 1119.14V1109.55L457.912 1208.24L466.048 1213.04L628.524 1119.14Z" fill="#37474F"/>
<path d="M415.792 469.488C416.656 469.988 417.096 470.988 416.876 471.96L275.524 1099.49L271.484 1117.29C269.444 1117.41 267.404 1117.01 265.844 1116.17C265.804 1116.13 265.764 1116.13 265.724 1116.09L256.252 1110.61C255.388 1110.11 254.952 1109.11 255.172 1108.14L400.284 463.948C400.62 462.448 402.316 461.708 403.644 462.476L415.792 469.488Z" fill="#37474F"/>
<path d="M433.524 460.928L287.688 1108.14C287.456 1109.18 286.8 1110.06 285.884 1110.6L276.4 1116.08C275.04 1116.88 273.28 1117.28 271.48 1117.28L275.52 1099.48L417.24 470.324L433.524 460.928Z" fill="#455A64"/>
<path d="M449.804 1333.17V1351.89C447.884 1351.89 446.004 1351.49 444.564 1350.69C444.524 1350.65 444.484 1350.65 444.444 1350.61L435.644 1345.53C434.204 1344.69 433.524 1343.57 433.524 1342.49L433.484 780.488L449.764 789.888L449.804 1333.17Z" fill="#37474F"/>
<path d="M466.084 780.528L466.044 1342.29V1342.69C466.004 1343.73 465.244 1344.73 463.884 1345.53L455.124 1350.61C453.684 1351.49 451.724 1351.89 449.804 1351.89V1333.17L449.764 789.888L466.084 780.528Z" fill="#455A64"/>
<path d="M660.724 1230.13C659.604 1230.13 657.596 1229.76 655.66 1228.65L646.604 1223.42C645.44 1222.74 644.628 1221.6 644.376 1220.28L547.444 714.688L563.724 724.088L657.244 1211.93L660.724 1230.13Z" fill="#37474F"/>
<path d="M676.964 1220.65C676.964 1220.69 676.964 1220.69 676.964 1220.73C676.964 1221.85 676.204 1222.93 674.724 1223.81L666.444 1228.61L666.044 1228.85C664.564 1229.69 662.644 1230.13 660.724 1230.13L657.244 1211.93L563.724 724.088L580.044 714.728L676.804 1219.93C676.804 1219.97 676.844 1220.01 676.844 1220.05L676.964 1220.65Z" fill="#455A64"/>
<path d="M460.456 1234.96L644.772 1128.55V1109.78L460.456 1216.2V1234.96Z" fill="#455A64"/>
<path d="M206.068 956.308V963.068C206.068 966.38 208.396 970.412 211.264 972.068L265.864 1003.59C268.732 1005.25 273.388 1005.25 276.256 1003.59L737.06 737.548C739.928 735.892 742.256 731.86 742.256 728.548V721.784C742.256 718.472 739.928 714.44 737.06 712.784L682.46 681.26C679.592 679.604 674.936 679.604 672.068 681.26L211.264 947.308C208.396 948.964 206.068 952.996 206.068 956.308Z" fill="#607DDD"/>
<path opacity="0.4" d="M211.264 953.308L265.864 984.832C268.732 986.488 273.388 986.488 276.256 984.832L737.06 718.788C739.928 717.132 739.928 714.444 737.06 712.788L682.46 681.264C679.592 679.608 674.936 679.608 672.068 681.264L211.264 947.308C208.396 948.964 208.396 951.652 211.264 953.308Z" fill="white"/>
<path opacity="0.1" d="M271.044 986.084V1004.84C269.164 1004.84 267.284 1004.4 265.884 1003.6L211.284 972.084C208.404 970.404 206.084 966.364 206.084 963.084V956.324C206.084 953.404 207.844 949.964 210.244 948.044C208.444 949.684 208.804 951.884 211.284 953.324L265.884 984.844C267.284 985.648 269.204 986.084 271.044 986.084Z" fill="black"/>
<path d="M246.144 973.452L230.964 964.688C226.18 961.928 222.044 955.22 221.728 949.704L190.396 406.82C190.08 401.308 193.696 394.6 198.48 391.836L652.356 129.792C657.14 127.032 664.892 127.028 669.676 129.792L684.864 138.556C689.648 141.316 693.784 148.024 694.1 153.54L725.436 696.424C725.756 701.94 722.136 708.648 717.352 711.408L263.464 973.452C258.68 976.212 250.928 976.212 246.144 973.452Z" fill="#E0E0E0"/>
<path d="M693.884 152.048C692.964 147.648 689.204 146.088 684.844 148.568L230.964 410.608C228.564 412.008 226.444 414.408 225.004 417.128L192.484 398.368C193.964 395.648 196.084 393.248 198.484 391.848L652.364 129.808C657.124 127.048 664.884 127.048 669.644 129.768L684.924 138.568C689.284 141.128 693.044 146.888 693.884 152.048Z" fill="#FAFAFA"/>
<path d="M222.888 425.58L254.224 968.464C254.544 973.976 258.676 976.208 263.46 973.448L717.348 711.404C722.132 708.644 725.752 701.936 725.432 696.42L694.096 153.536C693.776 148.024 689.644 145.792 684.86 148.552L230.972 410.6C226.192 413.36 222.572 420.068 222.888 425.58Z" fill="#F0F0F0"/>
<path d="M563.524 222.8V251.924C563.524 254.244 561.896 257.064 559.888 258.224L372.184 366.592C370.176 367.752 366.92 367.752 364.908 366.592L355.936 361.412C353.928 360.252 352.3 357.432 352.3 355.112L352.308 340.548L319.804 321.804L303.584 331.168L303.56 297.844C303.56 295.524 305.184 292.704 307.196 291.544L494.9 183.172C496.908 182.012 500.164 182.012 502.176 183.172L559.892 216.496C561.892 217.66 563.524 220.48 563.524 222.8Z" fill="#263238"/>
<path d="M563.524 222.804V251.924C563.524 254.244 561.884 257.044 559.884 258.204L372.204 366.604C371.164 367.164 369.884 367.444 368.564 367.444V329.964C369.884 329.964 371.204 329.644 372.204 329.084L559.884 220.684C561.644 219.684 561.844 218.084 560.524 216.964C562.244 218.288 563.524 220.728 563.524 222.804Z" fill="#37474F"/>
<path d="M307.192 295.748L364.92 329.072C366.928 330.232 370.184 330.232 372.196 329.072L559.888 220.7C561.896 219.54 561.896 217.66 559.888 216.5L502.172 183.176C500.164 182.016 496.908 182.016 494.896 183.176L307.192 291.548C305.184 292.704 305.184 294.588 307.192 295.748Z" fill="#455A64"/>
<path d="M278.22 530.844C280.456 569.572 309.98 584.968 344.164 565.232C378.348 545.496 404.248 498.104 402.016 459.376C399.78 420.648 370.256 405.248 336.072 424.984C301.884 444.72 275.984 492.112 278.22 530.844Z" fill="#607DDD"/>
<path opacity="0.1" d="M379.78 419.676L340.1 495.116L336.06 424.996C352.58 415.476 367.98 414.116 379.78 419.676Z" fill="black"/>
<path opacity="0.2" d="M392.46 507.716L340.1 495.116L379.78 419.676C392.42 425.556 400.86 439.356 402.02 459.396C402.9 474.876 399.3 491.796 392.46 507.716Z" fill="black"/>
<path d="M432.86 412.828L433.204 419.004C433.388 422.312 435.864 423.652 438.736 421.996C468.676 404.712 618.844 318.04 648.788 300.756C651.656 299.1 653.836 295.072 653.652 291.764L653.308 285.588C653.124 282.28 650.648 280.94 647.78 282.596L437.728 403.836C434.852 405.492 432.676 409.52 432.86 412.828Z" fill="#37474F"/>
<path d="M449.488 447.796L450.072 457.968C450.2 460.172 448.748 462.856 446.836 463.956L439.528 468.164C437.612 469.268 435.964 468.372 435.84 466.168L435.28 455.996C435.16 453.792 436.612 451.108 438.524 450.004L445.796 445.804C447.708 444.696 449.36 445.588 449.488 447.796Z" fill="#607DDD"/>
<path d="M651.316 345.928L472.136 449.32C469.264 450.976 466.792 449.636 466.608 446.328L466.268 440.152C466.084 436.844 468.264 432.82 471.136 431.16L650.276 327.768C653.144 326.112 655.624 327.452 655.816 330.76L656.172 336.94C656.36 340.248 654.184 344.272 651.316 345.928Z" fill="#455A64"/>
<path d="M451.52 493.356L452.08 503.528C452.2 505.732 450.748 508.416 448.836 509.524L441.564 513.724C439.652 514.828 438 513.936 437.88 511.732L437.32 501.56C437.2 499.356 438.652 496.672 440.564 495.564L447.836 491.364C449.748 490.26 451.396 491.152 451.52 493.356Z" fill="#607DDD"/>
<path opacity="0.1" d="M451.52 493.356L452.08 503.528C452.2 505.732 450.748 508.416 448.836 509.524L441.564 513.724C439.652 514.828 438 513.936 437.88 511.732L437.32 501.56C437.2 499.356 438.652 496.672 440.564 495.564L447.836 491.364C449.748 490.26 451.396 491.152 451.52 493.356Z" fill="black"/>
<path d="M653.356 391.492L474.136 494.924C471.268 496.58 468.792 495.24 468.608 491.932L468.268 485.752C468.084 482.444 470.264 478.42 473.136 476.764L652.356 373.332C655.224 371.676 657.7 373.016 657.884 376.324L658.224 382.504C658.404 385.812 656.228 389.836 653.356 391.492Z" fill="#455A64"/>
<path d="M453.528 539.304L454.108 549.436C454.236 551.64 452.788 554.324 450.872 555.428L443.52 559.668C441.608 560.772 439.956 559.88 439.836 557.672L439.276 547.54C439.152 545.336 440.604 542.648 442.516 541.544L449.832 537.312C451.748 536.208 453.404 537.1 453.528 539.304Z" fill="#607DDD"/>
<path opacity="0.2" d="M453.528 539.304L454.108 549.436C454.236 551.64 452.788 554.324 450.872 555.428L443.52 559.668C441.608 560.772 439.956 559.88 439.836 557.672L439.276 547.54C439.152 545.336 440.604 542.648 442.516 541.544L449.832 537.312C451.748 536.208 453.404 537.1 453.528 539.304Z" fill="black"/>
<path d="M655.316 437.44L476.136 540.832C473.264 542.488 470.792 541.148 470.608 537.84L470.268 531.7C470.084 528.392 472.264 524.364 475.132 522.708L654.312 419.28C657.18 417.624 659.656 418.964 659.84 422.272L660.18 428.452C660.364 431.76 658.184 435.784 655.316 437.44Z" fill="#455A64"/>
<path d="M304.5 617.512L391.416 567.236C394.284 565.576 396.764 566.912 396.952 570.224L397.788 584.768C397.98 588.076 395.808 592.104 392.94 593.764L306.024 644.04C303.156 645.7 300.676 644.364 300.488 641.052L299.652 626.508C299.46 623.196 301.632 619.172 304.5 617.512Z" fill="#37474F"/>
<path d="M286.396 735.076L414.064 661.368C416.932 659.712 419.416 661.052 419.604 664.36L419.96 670.536C420.152 673.844 417.98 677.868 415.108 679.524L287.44 753.232C284.572 754.888 282.088 753.548 281.9 750.24L281.544 744.064C281.356 740.756 283.528 736.732 286.396 735.076Z" fill="#455A64"/>
<path d="M289.208 783.524L416.872 709.748C419.74 708.092 422.224 709.428 422.412 712.736L422.768 718.912C422.96 722.22 420.788 726.244 417.916 727.9L290.252 801.608C287.384 803.264 284.9 801.924 284.708 798.62L284.356 792.516C284.168 789.208 286.336 785.18 289.208 783.524Z" fill="#455A64"/>
<path d="M292.016 831.972L419.68 758.128C422.548 756.468 425.028 757.804 425.22 761.112L425.576 767.288C425.768 770.596 423.596 774.62 420.724 776.276L293.06 849.984C290.192 851.64 287.708 850.304 287.52 846.992L287.172 840.96C286.98 837.656 289.148 833.632 292.016 831.972Z" fill="#455A64"/>
<path d="M294.828 880.42L422.488 806.512C425.356 804.852 427.836 806.188 428.024 809.496L428.38 815.672C428.572 818.98 426.4 823.004 423.528 824.664L295.86 898.372C292.992 900.028 290.508 898.692 290.32 895.384L289.976 889.42C289.792 886.108 291.96 882.08 294.828 880.42Z" fill="#455A64"/>
<path d="M463.112 661.368L481.468 650.768C484.336 649.112 486.82 650.448 487.016 653.756L492.684 750.388C492.88 753.696 490.708 757.72 487.84 759.376L469.484 769.972C466.616 771.628 464.132 770.292 463.936 766.984L458.268 670.352C458.072 667.048 460.24 663.024 463.112 661.368Z" fill="#607DDD"/>
<path d="M470.528 788.136L488.884 777.536C491.752 775.88 494.196 776.568 494.344 779.076C494.488 781.584 492.28 784.96 489.412 786.616L471.056 797.216C468.188 798.872 465.744 798.184 465.6 795.676C465.452 793.168 467.66 789.792 470.528 788.136Z" fill="#37474F"/>
<path d="M528.5 671.072L546.856 660.472C549.724 658.816 552.208 660.156 552.4 663.46L555.356 714.136C555.548 717.444 553.38 721.468 550.508 723.124L532.152 733.72C529.284 735.376 526.8 734.04 526.608 730.732L523.652 680.056C523.46 676.752 525.628 672.728 528.5 671.072Z" fill="#607DDD"/>
<path opacity="0.1" d="M528.5 671.072L546.856 660.472C549.724 658.816 552.208 660.156 552.4 663.46L555.356 714.136C555.548 717.444 553.38 721.468 550.508 723.124L532.152 733.72C529.284 735.376 526.8 734.04 526.608 730.732L523.652 680.056C523.46 676.752 525.628 672.728 528.5 671.072Z" fill="black"/>
<path d="M533.2 751.88L551.556 741.28C554.424 739.624 556.868 740.312 557.016 742.82C557.16 745.328 554.952 748.704 552.08 750.36L533.724 760.96C530.856 762.616 528.412 761.928 528.264 759.42C528.124 756.912 530.332 753.536 533.2 751.88Z" fill="#37474F"/>
<path d="M587.12 561.096L605.476 550.496C608.344 548.84 610.824 550.18 611.012 553.488L618.04 677.88C618.228 681.188 616.052 685.212 613.184 686.872L594.828 697.468C591.96 699.124 589.48 697.784 589.292 694.476L582.264 570.084C582.076 566.78 584.252 562.756 587.12 561.096Z" fill="#607DDD"/>
<path opacity="0.2" d="M587.12 561.096L605.476 550.496C608.344 548.84 610.824 550.18 611.012 553.488L618.04 677.88C618.228 681.188 616.052 685.212 613.184 686.872L594.828 697.468C591.96 699.124 589.48 697.784 589.292 694.476L582.264 570.084C582.076 566.78 584.252 562.756 587.12 561.096Z" fill="black"/>
<path d="M595.872 715.624L614.228 705.024C617.096 703.368 619.54 704.056 619.688 706.564C619.832 709.072 617.624 712.448 614.752 714.104L596.396 724.7C593.528 726.356 591.084 725.668 590.936 723.16C590.796 720.656 593.004 717.28 595.872 715.624Z" fill="#37474F"/>
<path d="M653.012 579.772L671.368 569.172C674.236 567.516 676.712 568.856 676.896 572.164L680.72 641.624C680.904 644.932 678.724 648.96 675.856 650.616L657.5 661.212C654.632 662.868 652.156 661.528 651.972 658.22L648.144 588.76C647.964 585.452 650.14 581.428 653.012 579.772Z" fill="#607DDD"/>
<path opacity="0.3" d="M653.012 579.772L671.368 569.172C674.236 567.516 676.712 568.856 676.896 572.164L680.72 641.624C680.904 644.932 678.724 648.96 675.856 650.616L657.5 661.212C654.632 662.868 652.156 661.528 651.972 658.22L648.144 588.76C647.964 585.452 650.14 581.428 653.012 579.772Z" fill="black"/>
<path d="M658.544 679.368L676.9 668.768C679.768 667.112 682.212 667.8 682.36 670.308C682.504 672.816 680.296 676.192 677.424 677.848L659.068 688.444C656.2 690.1 653.756 689.412 653.608 686.904C653.468 684.4 655.676 681.028 658.544 679.368Z" fill="#37474F"/>
<path d="M1108.28 761.176L1139.47 742.804C1141.59 748.344 1143.57 753.256 1145.31 757.224C1147 761.06 1155.1 766.168 1158.9 767.916C1169.12 772.6 1173.72 778.172 1181.8 784.7C1188.13 789.808 1193.06 790.644 1192.58 792.596C1191.94 795.104 1188.47 799.48 1181.37 798.284C1177.8 797.684 1173.01 795.572 1167.01 792.752C1167.01 792.752 1172.48 803.852 1183.81 814.564C1199.17 829.088 1201.04 838.988 1174.32 842.7C1157.58 845.028 1142.86 836.424 1125.45 801.124C1120.44 790.956 1112.57 774.896 1108.28 761.176Z" fill="#F8B7B8"/>
<path d="M1063.62 451.268C1063.62 451.268 1057.16 469.476 1050.86 480.228C1045.77 488.904 1050.04 627.392 1052.6 639.016C1055.18 650.64 1105.86 763.92 1105.86 763.92C1105.86 763.92 1126.48 770.036 1145.5 751.564L1107.83 632.956L1105.48 531.876C1105.48 531.876 1106.95 458.98 1063.62 451.268Z" fill="#607DDD"/>
<path opacity="0.1" d="M1063.62 451.268C1063.62 451.268 1057.16 469.476 1050.86 480.228C1045.77 488.904 1050.04 627.392 1052.6 639.016C1055.18 650.64 1105.86 763.92 1105.86 763.92C1105.86 763.92 1126.48 770.036 1145.5 751.564L1107.83 632.956L1105.48 531.876C1105.48 531.876 1106.95 458.98 1063.62 451.268Z" fill="black"/>
<path d="M904.85 1250.31H942.318V1186.17H904.85V1250.31Z" fill="#F8B7B8"/>
<path d="M1058.1 1201.74L1095.54 1203.03L1097.42 1135.15L1058.1 1133.86V1201.74Z" fill="#F8B7B8"/>
<path d="M910.116 728.296C910.116 764.076 907.648 972.108 907.648 972.108C906.776 982.404 896.864 1000.71 896.096 1037.79C894.98 1091.57 903.248 1218.24 903.248 1218.24C903.248 1218.24 921.436 1228.87 944.964 1219.07C944.964 1219.07 974.392 1039.89 981.108 986.664C986.968 940.208 1007.18 816.192 1007.18 816.192L1035.82 973.228C1035.82 973.228 1028.91 1000.94 1031.18 1032.77C1032.93 1057.39 1055.72 1180.72 1055.72 1180.72C1055.72 1180.72 1073.36 1192.69 1098.98 1184.03C1098.98 1184.03 1101.22 990.444 1101.65 967.856C1102.15 942.1 1090.91 720.556 1090.91 720.556L910.116 728.296Z" fill="#37474F"/>
<path d="M942.316 1231.82V1226.46C944.324 1226.42 945.568 1228.42 946.336 1233.24C946.884 1236.69 947.392 1239.3 948.528 1243.84C950.264 1250.78 951.828 1255.02 955.072 1263.02C960.368 1276.07 964.816 1280.93 976.944 1296.19C979.82 1299.81 986.316 1305.56 988.58 1309.59C990.844 1313.62 991.64 1324.84 987.796 1327.4C973.648 1336.83 952.168 1337.09 936.972 1332.64C925.284 1329.21 916.848 1319.88 914.908 1307.85C914.352 1304.4 914.556 1300.87 914.16 1297.39C913.256 1289.46 909.276 1282.22 904.776 1275.63C902.168 1271.8 899.328 1268.07 897.58 1263.78C894.432 1256.08 896.956 1247.42 898.968 1239.75C900.704 1233.12 902.588 1225.84 904.848 1226.46C904.856 1227.27 904.848 1230.54 904.848 1230.54C907.568 1233.56 915.092 1236.55 923.58 1236.88C929.064 1237.09 942.36 1236 942.316 1231.82Z" fill="#263238"/>
<path d="M1095.94 1191.48C1097.88 1191.54 1099.47 1194.29 1103.76 1198.93C1108.95 1204.54 1117.43 1210.6 1125.8 1214.79C1139.83 1221.82 1167.1 1232.62 1179.45 1238.18C1187.16 1241.65 1186.8 1250.97 1178.83 1256.27C1170.86 1261.57 1151.62 1265.39 1128.5 1260.22C1115.92 1257.41 1099.53 1245.78 1089.15 1246.41C1078.78 1247.04 1059.37 1246.89 1051.71 1241.61C1044.06 1236.33 1047.12 1225.06 1049.28 1215.37C1051.64 1204.8 1054.6 1188.32 1058.1 1189.04V1192.68C1062.6 1199.5 1085.85 1202.28 1095.74 1197.26L1095.94 1191.48Z" fill="#263238"/>
<path d="M1007.18 816.188C1007.18 816.188 1037.13 807.752 1059.36 786.272C1059.36 786.272 1049.29 805.12 1019.35 822.664L1033.83 962.348L1007.18 816.188Z" fill="#263238"/>
<path d="M975.076 453.8C962.34 456.864 936.648 461.068 930.876 486.48C923.948 516.98 921.692 583.4 921.692 583.4L919.328 731.188C945.132 749.984 1039.9 760.216 1094.2 720.556C1094.2 720.556 1087.56 543.092 1087.56 515.472C1087.56 487.848 1072.21 454.664 1029.84 452.2L975.076 453.8Z" fill="#F5F5F5"/>
<path d="M1029.24 449.332C1029.24 449.332 1048.29 464.456 1053.44 486.804C1058.6 509.152 1059.43 758.724 1059.43 758.724C1059.43 758.724 1085.92 753.828 1098.33 744.084C1098.33 744.084 1096.72 547.072 1094.2 514.508C1090.38 465.112 1090.78 450.872 1029.28 445.664L1029.24 449.332Z" fill="#607DDD"/>
<path d="M963.916 445.66C963.92 445.636 999.228 467.392 999.62 553.82C999.96 628.548 1002.46 758.72 1002.46 758.72C1002.46 758.72 943.992 767.308 906.956 745.18C906.956 745.18 902.544 563.972 903.248 535.904C904.052 503.772 911.572 462.244 921.864 458.112C940.624 450.58 963.916 445.66 963.916 445.66Z" fill="#607DDD"/>
<path d="M882.924 505.404C866.376 533.524 830.52 590.2 830.52 590.2C827.352 587.704 751.992 540.516 735.016 519.448C730.98 511.196 727.888 504.256 722.216 496.856C715.72 488.38 709.008 480.068 702.084 471.932C701.56 471.316 701.02 470.688 700.324 470.28C697.78 468.78 694.352 471.012 693.508 473.844C692.668 476.676 693.596 479.7 694.516 482.508C695.724 486.192 699.472 491.324 694.26 492.18C689.892 492.9 685.184 490.968 681.256 489.276C674.588 486.404 668.036 483.248 661.628 479.82C657.5 477.612 653.22 475.232 648.54 475.16C641.704 475.052 635.464 480.276 633.244 486.74C631.02 493.204 632.36 500.52 635.648 506.512C638.936 512.504 644.004 517.336 649.408 521.524C661.12 530.6 676.64 534.768 690.856 538.52C697.72 540.332 702.316 542.472 710.86 547.884C722.192 555.804 781.176 606.036 809.38 626.688C834.944 645.408 842.156 638.072 857.064 622.964C871.976 607.856 928.232 536.772 928.232 536.772L882.924 505.404Z" fill="#F8B7B8"/>
<path d="M932.328 454.292C893.992 465.488 896.568 479.052 871.032 519.784C845.5 560.516 828.456 579.008 828.456 579.008L747.008 527.688C747.008 527.688 729.984 538.632 720.864 561.124C720.864 561.124 802.756 624.636 814.148 631.756C830.396 641.912 838.74 645.84 852.088 634.568C865.436 623.296 919.324 564.048 919.324 564.048C943.948 539.148 949.132 472.644 932.328 454.292Z" fill="#607DDD"/>
<path opacity="0.1" d="M932.328 454.292C893.992 465.488 896.568 479.052 871.032 519.784C845.5 560.516 828.456 579.008 828.456 579.008L747.008 527.688C747.008 527.688 729.984 538.632 720.864 561.124C720.864 561.124 802.756 624.636 814.148 631.756C830.396 641.912 838.74 645.84 852.088 634.568C865.436 623.296 919.324 564.048 919.324 564.048C943.948 539.148 949.132 472.644 932.328 454.292Z" fill="black"/>
<path opacity="0.1" d="M959.956 492.928L976.124 512.94L968.04 535.728L989.3 590.2L963.668 535.728L972.64 514.22L959.956 492.928Z" fill="black"/>
<path opacity="0.1" d="M1074.02 486.492L1070.5 507.184L1084.51 525.416L1065.04 586.744L1080.11 526.092L1067.19 509.048L1074.02 486.492Z" fill="black"/>
<path d="M1072.11 367.072C1092.22 346.963 1092.22 314.36 1072.11 294.252C1052 274.143 1019.4 274.143 999.29 294.252C979.181 314.36 979.181 346.963 999.29 367.072C1019.4 387.18 1052 387.18 1072.11 367.072Z" fill="#263238"/>
<path d="M946.7 367.268C946.7 367.268 955.044 406.468 958.392 412.912C961.74 419.352 968.652 421.184 968.652 421.184L968.068 393.608L946.7 367.268Z" fill="#263238"/>
<path d="M957.172 311.108C957.172 311.108 948.184 309.568 941.18 316.732C934.312 323.756 938.148 345.736 946.7 367.268L962.416 369.072L957.172 311.108Z" fill="#263238"/>
<path d="M967.132 369.084C963.98 370.968 959.484 364.912 955.596 360.844C951.708 356.78 939.02 351.22 932.692 364.556C926.244 378.148 938.28 396.104 948.268 399.24C965.484 404.644 968.068 393.6 968.068 393.6L969.34 457.592C981.244 472.852 1007.98 490.788 1022.38 488.228C1033.87 486.184 1036.38 466.776 1025.39 454.052L1025.34 435.156C1025.34 435.156 1040.94 437.524 1048.55 436.348C1061.21 434.392 1069.18 424.404 1073.02 410.7C1079.18 388.688 1081.53 370.916 1076.29 327.632C1070.56 280.188 1015.37 279.692 985.572 298.448C955.768 317.204 967.132 369.084 967.132 369.084Z" fill="#F8B7B8"/>
<path d="M967.132 374.388C965.548 374.42 959.52 364.416 955.596 360.848C950.16 355.9 957.172 311.108 957.172 311.108C957.172 311.108 950.448 298.448 960.916 286.924C968.364 278.728 978.752 268.72 1012.54 272.716C1036.63 275.564 1062.85 283.076 1084.03 272.672C1087.2 285.852 1084.64 300.552 1071.48 310.968C1071.48 310.968 1063.81 315.912 1043.64 318.368C1023.48 320.824 992.072 317.896 987.776 317.308C981.928 316.508 980.68 322.176 977.528 337.66C974.756 351.248 972.46 374.284 967.132 374.388Z" fill="#263238"/>
<path d="M957.204 314.592L938.148 304.364C940.852 298.904 947.312 296.768 952.572 299.592C957.836 302.416 959.908 309.132 957.204 314.592Z" fill="#263238"/>
<path d="M1025.34 435.16C1025.34 435.16 997.08 429.468 987.2 424.216C980.588 420.7 975.14 414.608 973.544 410.704C973.544 410.704 975.396 419.088 981.304 426.644C988.528 435.88 1025.34 442.684 1025.34 442.684V435.16Z" fill="#BB6F72"/>
<path d="M1018.55 362.02C1018.55 365.272 1016.01 367.896 1012.88 367.888C1009.76 367.88 1007.22 365.24 1007.22 361.988C1007.22 358.74 1009.76 356.112 1012.88 356.12C1016.01 356.128 1018.55 358.768 1018.55 362.02Z" fill="#263238"/>
<path d="M1012.54 340.64L1000.43 347.328C998.64 343.848 999.908 339.528 1003.25 337.684C1006.6 335.832 1010.76 337.156 1012.54 340.64Z" fill="#263238"/>
<path d="M1022.78 401.14L1035.71 405.992C1034.43 409.696 1030.5 411.616 1026.93 410.276C1023.36 408.936 1021.5 404.844 1022.78 401.14Z" fill="#BB6F72"/>
<path d="M1069.05 345.352L1058 336.844C1060.25 333.68 1064.55 333.02 1067.6 335.372C1070.66 337.72 1071.3 342.188 1069.05 345.352Z" fill="#263238"/>
<path d="M1065.65 360.408C1065.65 363.656 1063.11 366.284 1059.98 366.276C1056.86 366.268 1054.32 363.628 1054.32 360.376C1054.32 357.128 1056.86 354.5 1059.98 354.508C1063.11 354.516 1065.65 357.156 1065.65 360.408Z" fill="#263238"/>
<path d="M1036.8 355.036L1038.66 389.092L1056.44 383.032L1036.8 355.036Z" fill="#BB6F72"/>
<path d="M1042.95 484.32C1039.47 492.572 1033.06 495.94 1021.44 497.244C1009.82 498.548 995.708 492.792 989.3 486.06L1003.76 471.672L1022.08 485.48L1023.64 470.1L1042.95 484.32Z" fill="#607DDD"/>
<path opacity="0.1" d="M1042.95 484.32C1039.47 492.572 1033.06 495.94 1021.44 497.244C1009.82 498.548 995.708 492.792 989.3 486.06L1003.76 471.672L1022.08 485.48L1023.64 470.1L1042.95 484.32Z" fill="black"/>
<path d="M1033.84 479.816C1033.84 479.816 1036.71 487.78 1035.75 495.28C1034.73 503.312 1030.59 508.168 1030.59 508.168C1030.59 508.168 1025.98 511.832 1018.1 509.524C1011.95 503.844 1005.75 494.74 1006.22 483.664L1022.08 485.476L1033.84 479.816Z" fill="#607DDD"/>
<path d="M1030.59 508.168C1030.59 508.168 1049.4 611.956 1050.16 620.332C1050.92 628.708 1039.36 658.468 1032.19 658.72C1025.02 658.976 1010.94 632.032 1010.73 624.416C1010.52 616.8 1018.1 509.52 1018.1 509.52L1030.59 508.168Z" fill="#607DDD"/>
<path opacity="0.1" d="M1018.1 509.528C1018.1 509.528 1024.51 512.7 1030.59 508.172L1030.88 509.812C1030.88 509.812 1025.63 514.572 1017.9 512.384L1018.1 509.528Z" fill="black"/>
<path d="M1022.08 485.476L969.088 445.112L968.852 433.14C968.852 433.14 956.536 437.812 953.768 459.552C961.316 477.088 974.996 492.052 995.084 503.504L1006.21 483.664L1022.08 485.476Z" fill="#E0E0E0"/>
<path d="M1025.34 438.64C1025.34 438.64 1037.12 440.388 1042.43 449.148C1047.74 457.892 1046.52 491.328 1046.52 491.328L1033.84 479.816L1022.08 485.48C1023.21 474.34 1025.39 454.06 1025.39 454.06L1025.34 438.64Z" fill="#E0E0E0"/>
<path d="M1353.56 1382.66C1355.68 1385.46 1356.06 1391.94 1358.21 1400.71C1360.35 1409.48 1361.08 1416.27 1359.64 1420.56C1358.21 1424.85 1349.15 1436.04 1337.22 1438.08C1330.44 1439.24 1319.67 1439.53 1305.91 1431.3C1292.15 1423.08 1286.74 1416.78 1255.35 1414.52C1235.02 1413.05 1220.4 1404.2 1211.5 1396.3C1199.38 1385.54 1202.28 1366.49 1223.24 1366.59C1248.41 1366.71 1283.68 1371.16 1317.8 1366.56L1353.56 1382.66Z" fill="#263238"/>
<path d="M1475.24 1343.18C1477.36 1345.98 1477.74 1352.46 1479.89 1361.23C1482.03 1370 1482.76 1376.79 1481.32 1381.08C1479.89 1385.37 1470.83 1396.56 1458.9 1398.6C1452.12 1399.76 1441.35 1400.05 1427.59 1391.82C1413.83 1383.6 1408.42 1377.3 1377.03 1375.04C1356.7 1373.57 1342.08 1364.72 1333.18 1356.82C1321.06 1346.07 1323.96 1327.01 1344.92 1327.11C1370.09 1327.23 1405.36 1331.68 1439.48 1327.08L1475.24 1343.18Z" fill="#263238"/>
<path d="M1475.3 1316.72V1347.52C1475.3 1347.52 1471.08 1357.77 1453.51 1358.42C1442.8 1358.82 1435 1353.92 1430.21 1347.26V1316.72H1475.3V1316.72Z" fill="#FFA8A7"/>
<path d="M1416.47 1115.18C1416.25 1153.51 1427.23 1330.22 1427.23 1330.22C1427.23 1330.22 1442.9 1350.05 1476.94 1330.22L1488.5 1134.13L1416.47 1115.18Z" fill="#37474F"/>
<path d="M1359.72 1356.95L1353.56 1387.75C1353.56 1387.75 1349.34 1398 1331.77 1398.65C1321.06 1399.04 1313.26 1394.14 1308.47 1387.49L1310.98 1352.07L1359.72 1356.95Z" fill="#FFA8A7"/>
<path d="M1324.74 1168.15C1321.5 1185.85 1308.26 1363.03 1308.26 1363.03C1308.26 1363.03 1325.68 1387.28 1359.72 1367.45L1396.04 1194.37L1324.74 1168.15Z" fill="#37474F"/>
<path d="M1417.88 1235.9V1480.76C1417.88 1482.82 1416.42 1485.35 1414.64 1486.38L1405.89 1491.43C1404.1 1492.46 1401.18 1492.46 1399.4 1491.43L1390.66 1486.38C1388.87 1485.35 1387.41 1482.82 1387.41 1480.76V1235.9C1387.41 1229.82 1392.34 1224.9 1398.42 1224.9H1406.88C1412.96 1224.9 1417.88 1229.82 1417.88 1235.9Z" fill="#455A64"/>
<path d="M1395.02 1224.9C1399.23 1224.9 1402.64 1228.31 1402.64 1232.52L1402.64 1489.56C1402.64 1491.62 1401.18 1492.46 1399.4 1491.43L1390.52 1486.31C1388.81 1485.32 1387.4 1482.88 1387.4 1480.9V1232.52C1387.4 1228.31 1390.82 1224.9 1395.02 1224.9Z" fill="#263238"/>
<path d="M1712.37 1235.9V1480.76C1712.37 1482.82 1713.84 1485.35 1715.62 1486.38L1724.36 1491.43C1726.15 1492.46 1729.08 1492.46 1730.86 1491.43L1739.6 1486.38C1741.39 1485.35 1742.85 1482.82 1742.85 1480.76V1235.9C1742.85 1229.82 1737.92 1224.9 1731.84 1224.9H1723.38C1717.3 1224.9 1712.37 1229.82 1712.37 1235.9Z" fill="#455A64"/>
<path d="M1735.23 1224.9C1731.02 1224.9 1727.61 1228.31 1727.61 1232.52L1727.62 1489.56C1727.62 1491.62 1729.08 1492.46 1730.86 1491.43L1739.73 1486.31C1741.45 1485.32 1742.86 1482.88 1742.86 1480.9V1232.52C1742.85 1228.31 1739.44 1224.9 1735.23 1224.9Z" fill="#263238"/>
<path d="M1580.37 1322.46V1574.57C1580.37 1576.64 1578.91 1579.16 1577.12 1580.2L1568.38 1585.24C1566.58 1586.28 1563.67 1586.28 1561.88 1585.24L1553.14 1580.2C1551.34 1579.16 1549.89 1576.64 1549.89 1574.57V1322.46C1549.89 1320.39 1551.57 1318.71 1553.64 1318.71H1576.62C1578.69 1318.71 1580.37 1320.39 1580.37 1322.46Z" fill="#455A64"/>
<path d="M1553.64 1318.71H1561.38C1563.45 1318.71 1565.13 1320.39 1565.13 1322.46L1565.12 1583.36C1565.12 1585.44 1563.67 1586.28 1561.88 1585.24L1553.14 1580.19C1551.34 1579.16 1549.89 1576.64 1549.89 1574.56V1322.46C1549.89 1320.39 1551.57 1318.71 1553.64 1318.71Z" fill="#263238"/>
<path d="M1368.11 1241.82V1245.18C1368.11 1250.71 1371.74 1257.81 1376.22 1261.05L1557.02 1364.75C1561.5 1367.99 1569 1368.37 1573.79 1365.61L1755.98 1260.7C1760.77 1257.94 1764.65 1251.22 1764.65 1245.7V1242.24C1764.65 1236.72 1760.58 1230.36 1755.57 1228.04L1573.28 1122.81C1568.26 1120.5 1560.32 1120.86 1555.54 1123.62L1376.77 1226.82C1371.99 1229.57 1368.11 1236.29 1368.11 1241.82Z" fill="#607DDD"/>
<g opacity="0.4">
<path d="M1376.77 1226.81L1555.54 1123.62C1560.32 1120.85 1568.26 1120.49 1573.28 1122.8L1755.57 1228.04C1760.58 1230.35 1760.77 1234.47 1755.99 1237.23L1573.8 1342.14C1569.02 1344.91 1561.5 1344.52 1557.03 1341.29L1376.23 1237.67C1371.74 1234.44 1371.99 1229.57 1376.77 1226.81Z" fill="white"/>
</g>
<path d="M1402.28 843.108L1282.37 905.684L1341.95 1068.6L1453.85 1005.91L1402.28 843.108Z" fill="#607DDD"/>
<path d="M1396.77 859.06L1296.18 911.556L1348.91 1051.62L1442.78 999.024L1396.77 859.06Z" fill="#F5F5F5"/>
<path opacity="0.15" d="M1375.55 874.168C1375.55 874.168 1374.68 871.936 1373.6 869.184C1372.52 866.432 1364.15 868.072 1354.9 872.848L1337.18 881.992C1327.93 886.768 1321.3 892.872 1322.38 895.624L1324.33 900.608L1375.55 874.168Z" fill="black"/>
<path d="M1373.6 854.236C1372.94 852.516 1369.3 852.796 1365.46 854.864L1358.53 858.608C1358.53 858.608 1354.26 847.848 1338.3 855.296C1322.34 862.744 1325.99 875.22 1325.99 875.22C1325.99 875.22 1322.69 877.036 1318.62 879.276C1314.56 881.516 1311.66 884.752 1312.16 886.5L1313.05 889.668L1374.82 857.44C1374.82 857.44 1374.27 855.956 1373.6 854.236Z" fill="#37474F"/>
<path d="M1366.93 861.468C1361.19 864.292 1358.92 865.656 1360.58 869.9C1362.47 874.744 1364.23 878.224 1364.23 878.224L1336.91 892.516C1336.91 892.516 1334.63 886.356 1333.64 883.98C1332.64 881.604 1330.64 880.464 1326.3 882.74L1324.68 881.028L1367.77 859.064L1366.93 861.468Z" fill="#263238"/>
<path d="M1376.72 874.428C1376.72 874.428 1375.85 872.196 1374.77 869.444C1373.7 866.692 1365.32 868.332 1356.07 873.112L1338.36 882.256C1329.1 887.032 1322.48 893.136 1323.55 895.888L1325.5 900.872L1376.72 874.428Z" fill="#37474F"/>
<path d="M1710.02 1162.13C1710.02 1162.13 1551.2 1114.2 1523.58 1106.65C1495.97 1099.09 1443 1086.36 1427.53 1093.29C1412.05 1100.22 1404.19 1108.26 1402.77 1130.59C1402.48 1134.79 1402.77 1155.22 1402.77 1155.22C1402.77 1155.22 1479.54 1178.98 1542.43 1178.98C1605.33 1178.99 1710.02 1162.13 1710.02 1162.13Z" fill="#263238"/>
<path d="M1575.97 892.112L1574.8 950.02L1630.62 968.424L1638.26 889.748L1575.97 892.112Z" fill="#FFA8A7"/>
<path d="M1531.78 836.564C1531.78 836.564 1519.53 858.02 1521.53 859.908C1523.54 861.796 1533.89 863.22 1533.89 863.22L1531.78 836.564Z" fill="#F28F8F"/>
<path d="M1561.74 765.868C1549.75 774.196 1536.8 789.62 1531.86 834.416C1526.44 883.508 1538.18 899.32 1543.66 903.396C1551.86 909.488 1584.21 908.468 1595.76 903.148C1610.22 896.492 1638.6 878.352 1650.62 851.252C1664.75 819.368 1663.31 779.532 1640.51 766.828C1608.42 748.948 1571.88 758.816 1561.74 765.868Z" fill="#FFA8A7"/>
<path d="M1541.29 783.672C1548.44 792.32 1555.99 797.22 1564.16 802.192C1569.72 810.988 1560.8 835.256 1573.01 841.108C1573.01 841.108 1578.6 822.768 1594.13 825.784C1609.76 828.82 1611.01 848.972 1600.56 860.724C1590.11 872.476 1581.07 867.4 1581.07 867.4C1581.07 867.4 1578.08 886.356 1595.1 899.652C1595.1 899.652 1613.31 913.464 1636.82 904.496C1647.4 900.46 1665.08 885.724 1674.94 866.116C1695.79 824.636 1700.63 790.588 1674.12 777.992C1672.05 758.368 1663.82 750.5 1646.49 745.712C1609.2 735.412 1578.99 758.352 1547.56 751.864C1531.17 748.48 1532.02 772.452 1541.29 783.672Z" fill="#263238"/>
<path d="M1646.62 763.772L1665.94 755.496C1663.66 750.16 1657.48 747.688 1652.14 749.972C1646.81 752.26 1644.34 758.436 1646.62 763.772Z" fill="#263238"/>
<path d="M1704.74 1143.54C1704.68 1174.05 1708.6 1206.98 1695.88 1229.33C1683.58 1250.94 1629.42 1296.03 1564.52 1285.1C1522.12 1277.97 1385.1 1225.75 1385.1 1225.75C1385.1 1225.75 1324.45 1203.32 1324.18 1187.37C1324.11 1183.46 1323.76 1179.41 1324.01 1175.18C1325.29 1153.96 1333.87 1131.09 1378.26 1132.26C1426.74 1133.55 1570.57 1157.11 1570.57 1157.11L1704.74 1143.54Z" fill="#37474F"/>
<path d="M1699.72 950.968C1694.48 935.032 1672.88 912.532 1652.65 916.288C1615.48 923.192 1574.83 935.232 1564.05 938.416L1564.04 938.412C1564.04 938.412 1568.87 1020.31 1526.85 1045.1L1525.35 1189.02C1525.35 1189.02 1528.39 1199.27 1544.44 1209.48C1561.8 1220.51 1595.38 1225.38 1637.64 1213.92C1694.39 1198.54 1704.74 1166.03 1704.74 1166.03C1704.74 1166.03 1704.3 1069.46 1704.74 1025.32C1705.14 985.364 1703.32 961.912 1699.72 950.968Z" fill="#F0F0F0"/>
<path d="M1526.65 1064.36C1526.65 1064.36 1547.74 1042.54 1555.46 1016.1C1555.46 1016.1 1556.64 1055.48 1526.53 1076.38L1526.65 1064.36Z" fill="#E0E0E0"/>
<path d="M1564.04 938.412C1541.1 945.296 1527.12 946.54 1501.78 985.536C1476.43 1024.53 1419.06 1097.61 1413.56 1106.91C1405.91 1119.84 1404.47 1139.5 1411.07 1151.38C1417.23 1162.46 1432.06 1155.93 1457.21 1133.86C1481.54 1112.52 1532.86 1053.84 1532.86 1053.84C1532.86 1053.84 1557.98 998.82 1564.04 938.412Z" fill="#FFA8A7"/>
<path d="M1564.04 938.412C1564.04 938.412 1543.59 942.692 1530.88 948.912C1526.96 950.824 1513.1 954.396 1502.62 968.42C1482.02 995.96 1455.43 1042.46 1455.43 1042.46C1455.43 1042.46 1460.17 1078.56 1504.53 1091.29L1526.34 1064.71C1535.95 1054.33 1543.99 1042.57 1549.85 1029.69C1559.83 1007.74 1571.23 972.876 1564.04 938.412Z" fill="#F0F0F0"/>
<path d="M1418.79 1156.84C1397.57 1154.27 1351.76 1090.09 1337.66 1068.13C1322.23 1044.08 1307.85 1032.52 1294.72 1022.82C1272.26 1006.23 1275.53 980.732 1285.33 957.364C1288.73 949.272 1300.23 954.536 1300.23 954.536L1304.29 965.624L1311.31 984.824C1316.07 989.24 1318.78 990.68 1319.1 989.364C1319.7 986.888 1315.6 976.56 1315.7 965.796C1315.82 952.848 1324.89 961.36 1327.6 965.896C1330.3 970.436 1333.47 977.82 1337.17 987.288C1341.69 998.876 1339.82 1010.61 1345.33 1018.51C1350.84 1026.41 1424.78 1097.25 1424.78 1097.25L1418.79 1156.84Z" fill="#FFA8A7"/>
<path d="M1612.07 1162.34V1323.77C1612.07 1324.8 1612.8 1326.07 1613.7 1326.58L1618.07 1329.11C1618.96 1329.62 1620.42 1329.62 1621.32 1329.11L1625.69 1326.58C1626.58 1326.07 1627.31 1324.8 1627.31 1323.77V1162.34C1627.31 1159.3 1624.85 1156.84 1621.81 1156.84H1617.58C1614.54 1156.84 1612.07 1159.3 1612.07 1162.34Z" fill="#263238"/>
<path d="M1623.5 1156.84C1621.4 1156.84 1619.69 1158.54 1619.69 1160.65V1328.17C1619.69 1329.2 1620.42 1329.62 1621.31 1329.11L1625.75 1326.55C1626.61 1326.05 1627.31 1324.84 1627.31 1323.84V1160.65C1627.31 1158.55 1625.6 1156.84 1623.5 1156.84Z" fill="#455A64"/>
<path d="M1693.31 1116.38V1277.81C1693.31 1278.84 1694.04 1280.11 1694.94 1280.62L1699.31 1283.15C1700.2 1283.66 1701.66 1283.66 1702.56 1283.15L1706.92 1280.62C1707.82 1280.11 1708.55 1278.84 1708.55 1277.81V1116.38C1708.55 1113.34 1706.08 1110.88 1703.04 1110.88H1698.81C1695.78 1110.88 1693.31 1113.34 1693.31 1116.38Z" fill="#263238"/>
<path d="M1704.74 1110.88C1702.64 1110.88 1700.93 1112.59 1700.93 1114.69V1282.21C1700.93 1283.24 1701.66 1283.66 1702.55 1283.15L1706.99 1280.59C1707.85 1280.09 1708.55 1278.88 1708.55 1277.88V1114.69C1708.55 1112.59 1706.84 1110.88 1704.74 1110.88Z" fill="#455A64"/>
<path d="M1741.55 981.896C1737.07 979.296 1729.35 979.056 1724.35 981.376L1580.03 1048.06C1577.55 1049.22 1575.31 1051.3 1573.67 1053.82C1573.43 1054.18 1573.23 1054.54 1572.99 1054.94C1572.67 1055.58 1572.35 1056.22 1572.07 1056.9C1571.35 1058.66 1570.95 1060.5 1570.95 1062.26V1169.14C1570.95 1174.66 1574.59 1181.26 1579.07 1183.86C1583.27 1186.26 1590.35 1186.62 1595.35 1184.7C1595.67 1184.62 1595.95 1184.5 1596.27 1184.34L1603.43 1181.02L1740.59 1117.66C1745.59 1115.38 1749.67 1109.02 1749.67 1103.5V996.576C1749.67 991.056 1746.03 984.496 1741.55 981.896Z" fill="#607DDD"/>
<path opacity="0.4" d="M1749.67 996.576C1749.67 991.056 1745.59 988.456 1740.59 990.776L1596.27 1057.42C1593.83 1058.58 1591.55 1060.7 1589.91 1063.22L1573.67 1053.82C1575.31 1051.3 1577.55 1049.22 1580.03 1048.06L1724.35 981.376C1729.35 979.056 1737.07 979.296 1741.55 981.896C1746.03 984.496 1749.67 991.056 1749.67 996.576Z" fill="white"/>
<path opacity="0.1" d="M1595.35 1184.7C1590.35 1186.62 1583.27 1186.26 1579.07 1183.86C1574.59 1181.26 1570.95 1174.66 1570.95 1169.14V1062.26C1570.95 1060.5 1571.35 1058.66 1572.07 1056.9C1572.35 1056.22 1572.67 1055.58 1572.99 1054.94C1573.23 1054.54 1573.43 1054.18 1573.67 1053.82L1589.91 1063.22C1588.23 1065.82 1587.19 1068.82 1587.19 1071.62V1178.54C1587.19 1183.7 1590.79 1186.34 1595.35 1184.7Z" fill="black"/>
</svg>
